<?xml version="1.0" encoding="utf-8"?>
<!-- Generator: Adobe Illustrator 23.1.0, SVG Export Plug-In . SVG Version: 6.00 Build 0)  -->
<svg version="1.1" id="Calque_1" xmlns="http://www.w3.org/2000/svg" xmlns:xlink="http://www.w3.org/1999/xlink" x="0px" y="0px"
	 viewBox="0 0 300 200" style="enable-background:new 0 0 300 200;" xml:space="preserve">
<style type="text/css">
	.st0{fill:#39BFF0;}
</style>
<title>logo_drakkar</title>
<g id="Danone">
	<path class="st0" d="M161.9,66.7l-13.1-3.5c3.9,20.3-1.3,37-7,50.7h2.5c4,0,7.9,0.2,11.7,0.4c3.8-9.5,6.2-19.4,7.1-29.6
		C163.6,78.7,163.2,72.7,161.9,66.7z"/>
	<path class="st0" d="M167.3,115.3c4.5,0.5,8.8,1.1,12.9,1.9c5.5-12.6,8.6-29.3,5.1-44.1l-12.1-3.3
		C176.3,87.5,172.5,102.2,167.3,115.3z"/>
	<path class="st0" d="M137.8,82.9c0.7-7.7,0-15.5-1.8-23.1l-15.1-4c7.9,25.2-2.3,48.5-7.8,60.1c5.2-0.7,10.6-1.2,16.2-1.5
		C133.7,104,136.9,94.1,137.8,82.9z"/>
	<path class="st0" d="M74.3,143.8h-6.2v-16.2h6.5c5,0,8.6,2.2,8.6,7.9C83.3,141.5,79.4,143.8,74.3,143.8z M74.1,140.2
		c2.8,0,4.5-0.9,4.5-4.5s-1.7-4.5-4.3-4.5h-1.6v9L74.1,140.2z"/>
	<path class="st0" d="M102.8,143.8c-0.5-0.5-0.8-1.1-1-1.8l-0.5-1.5c-0.2-1.1-1.2-1.9-2.3-1.8c0,0,0,0,0,0h-1.6v5h-4.5v-16.2h7.3
		c4.4,0,6.6,1.8,6.6,5.3c0,2.8-1.8,4-4.2,4.2v0.1c1.5,0,2.8,0.9,3.3,2.2l0.9,2.4c0.2,0.7,0.6,1.4,1.2,2L102.8,143.8z M97.4,135.4
		h2.4c1.6,0,2.3-0.6,2.3-2.1s-0.8-2.1-2.3-2.1h-2.4V135.4z"/>
	<path class="st0" d="M133.1,143.8h-4.9l-1-2.8h-6.7l-1,2.8h-4.8l6.7-16.2h5.4L133.1,143.8z M121.7,137.8h4.2l-0.8-2.2
		c-0.5-1.3-0.9-2.7-1.1-4.1h-0.2c-0.2,1.4-0.6,2.8-1.2,4.1L121.7,137.8z"/>
	<path class="st0" d="M152.6,143.8l-4.3-6.4H146v6.4h-4.5v-16.2h4.5v6.4h2.3l4.1-6.4h5.4l-5.7,7.8l5.8,8.4H152.6z"/>
	<path class="st0" d="M177.9,143.8l-4.3-6.4h-2.2v6.4h-4.5v-16.2h4.5v6.4h2.3l4.1-6.4h5.4l-5.7,7.8l5.8,8.4L177.9,143.8z"/>
	<path class="st0" d="M208.1,143.8h-4.9l-1-2.8h-6.6l-1,2.8h-4.8l6.7-16.2h5.4L208.1,143.8z M196.8,137.8h4.3l-0.8-2.2
		c-0.5-1.3-0.9-2.7-1.1-4.1h-0.2c-0.2,1.4-0.6,2.8-1.2,4.1L196.8,137.8z"/>
	<path class="st0" d="M226.5,143.8c-0.5-0.5-0.8-1.1-1-1.8l-0.5-1.5c-0.2-1.1-1.2-1.9-2.3-1.8h-1.6v5h-4.5v-16.2h7.3
		c4.4,0,6.6,1.8,6.6,5.3c0,2.8-1.9,4-4.2,4.2v0.1c1.5,0,2.8,0.8,3.3,2.2l0.9,2.4c0.2,0.7,0.6,1.4,1.1,2L226.5,143.8z M221.1,135.4
		h2.4c1.6,0,2.4-0.6,2.4-2.1s-0.8-2.1-2.4-2.1h-2.4V135.4z"/>
</g>
</svg>
