<?xml version="1.0" encoding="utf-8"?>
<!-- Generator: Adobe Illustrator 19.1.0, SVG Export Plug-In . SVG Version: 6.00 Build 0)  -->
<svg version="1.1" id="Layer_2" xmlns="http://www.w3.org/2000/svg" xmlns:xlink="http://www.w3.org/1999/xlink" x="0px" y="0px"
	 viewBox="-155 297 300 200" style="enable-background:new -155 297 300 200;" xml:space="preserve">
<style type="text/css">
	.st0{fill:#39BFF0;}
</style>
<path class="st0" d="M24,356.4c0.1-0.4,0-0.9-0.3-1.3c0,0-4.2-7.1-19.1-8.7c-8-0.9-18.8,0.8-26.4,4.9c-13.8,7.4-15.8,19.6-15.8,19.6
	c-0.1,0.5-0.1,1.1,0.1,1.6c0.3,0.4,0.8,0.4,1.3,0.2c4.9-1.6,19.3-6.4,28.5-8.9c13-3.4,23.7-5.5,30.5-6.7
	C23.4,357.1,23.8,356.8,24,356.4z M-26,428.8c-0.1,0.5,0,1.1,0.4,1.4c3.1,3.9,16.8,8.8,31.6,5.2c22.7-5.5,27.5-21.5,28-23.8
	c0.2-0.6,0.1-1.2-0.2-1.6c-0.4-0.4-0.9-0.4-1.6-0.2c-15.8,3.7-41.9,11.7-57.1,18.2C-25.5,428.3-25.8,428.4-26,428.8L-26,428.8z"/>
<path class="st0" d="M38.9,413.9c-7.8,17.5-22.7,29.6-42.3,29.9c-14.2,0.2-26.8-4.7-35.9-13.2l-5.5,2.4v-8.5
	c-6.3-8.7-9.6-19.1-9.4-29.9c0-29.7,22.7-53.1,54.5-53.1c4.5,0,9,0.6,13.4,1.6c-5.4-1.8-11.1-2.7-16.9-2.7
	c-31.2-0.3-56.6,24.7-56.9,55.9c0,0.1,0,0.1,0,0.2c0,31,24.3,57,56.3,57c30.5,0,47-21.5,52.2-34.4L38.9,413.9L38.9,413.9z"/>
<path class="st0" d="M31,407.8c3.4-0.3,6.7-1.7,9.3-4c1.3-1.4,2-3.3,1.9-5.2c0.1-2.3,0-9.5,0-9.5l-11.8,2.6c0,0,0,0.9,0,2.8
	c0,1.9,0.9,2.8,2.8,2.5c0.5-0.1,1-0.2,1.5-0.4v2.3c0-0.1,0.2,1.3-2.8,1.9c-3.9,0.6-5.7-1.8-5.7-6c0.1-4.6,2.6-7.2,5.8-7.9
	c2.2-0.5,4.5-0.4,6.7,0.2c3.9,0.6,5-5.3,1.5-6.7c-3-1.1-6.2-1.3-9.3-0.6c-4.4,0.9-12.9,4.5-12.9,16.4
	C17.8,405.5,24.8,408.5,31,407.8L31,407.8z M24.7,379.2V361c0,0,5.3-0.9,6.7-1.1c3.8-0.5,6.4,1.6,6.3,4.6c-0.1,2.1-1.2,4.1-3.1,5.2
	c0,0,2.6,2.9,3.3,3.7c0.9,1,0.8,2.6-0.2,3.5c-0.1,0.1-0.2,0.2-0.3,0.2c-1.1,0.8-2.6,0.6-3.5-0.5l-4.3-5c0,0,0,3.1,0,4.5
	c0,1.3-0.9,2.4-2.2,2.6L24.7,379.2L24.7,379.2z M29.7,368.8c0,0,3-1.1,2.9-3.5c0-2-2-1.6-2.9-1.4V368.8z M21.8,379.8
	c1.1-0.2,1.9-1.2,1.8-2.4c0-1.2,0-2.2,0-2.2l-6.1,1.3V373l3.8-0.8c1-0.1,1.7-1,1.6-2c0,0,0,0,0,0v-2.1l-5.4,1.1v-2.8l4.3-0.9
	c1-0.2,1.7-1.1,1.6-2.2c0-0.7,0-2.1,0-2.1c-2.7,0.5-7.8,1.5-11,2.2v18.5C12.4,381.9,18.4,380.5,21.8,379.8L21.8,379.8z M-7.4,417.9
	l3.9-1.4c2.9-1,4-2.7,4-5.8c0-3.3,0-9.6,0-9.6l8.4,9.7c1.2,1.2,3,1.7,4.7,1.1c1.8-0.5,3-2.2,3-4.1c0-7,0-24.2,0-24.2s-2.2,0.5-4,1
	c-2.1,0.6-3.7,1.9-3.7,5.4c0,1.3,0,8.4,0,8.4s-4.8-5.9-7.9-9.1c-1.7-1.7-4.4-0.7-4.4-0.7l-4.2,1.2L-7.4,417.9L-7.4,417.9z
	 M-10,390.6c0,0-2.5,0.8-4.6,1.5c-2.7,1-4.2,2.5-4.2,6.6c0,3.7,0,23.2,0,23.2s2.4-0.8,4.6-1.6c3.1-1.2,4.3-2.8,4.3-6.1
	C-10,411.4-10,390.6-10,390.6z M-22.7,396.1c-1.8-0.9-4.1-0.3-5.2,1.4l-7.2,12.2v-9.9l-8.5,3.5v27.8l6-2.5c0.8-0.3,1.4-0.8,1.9-1.5
	c0.4-0.8,0.6-1.8,0.6-2.7v-8.8l6.7,7.1c1.7,1.9,4.6,2,6.5,0.4c1.8-1.5,2.1-4.2,0.6-6l-6.1-6.1c0,0,5.3-8.4,6.2-9.8
	c1.1-1.6,0.7-3.7-0.9-4.8C-22.2,396.3-22.4,396.2-22.7,396.1L-22.7,396.1z M-34,391.7c0.1,3.9-2.7,6-6.4,7.5l-7.5,3.2V382
	c0,0,4.7-1.9,6.3-2.5c4.4-1.6,6.9,0.3,6.9,3.2c0,2-1,3.9-2.6,5.1C-35.4,388.2-34,389.8-34,391.7z M-42.7,387.9
	c0.3-0.1,0.7-0.3,1-0.4c1.1-0.5,1.9-1.6,1.9-2.8c0-1.5-1.2-1.9-2.9-1L-42.7,387.9l3.4,4.5c0-1.5-1.2-2.4-3.3-1.3v4.9l1.2-0.5
	c1.3-0.5,2.1-1.7,2.1-3.1L-42.7,387.9L-42.7,387.9z M-19.8,374.5c0-1.7-1.2-2.2-2.6-1.8c-1.1,0.3-2.5,0.9-2.5,0.9v12.6
	c0,1.3-0.2,2.8-1.8,3.2c-1.2,0.3-1.7-0.5-1.8-1.7v-10.3c0-1.7-1.2-2.2-2.6-1.8c-1.6,0.5-2.6,0.9-2.6,0.9s0,8.9,0,12.5
	c0,4.2,2.9,6.3,7.3,5c3.9-1.1,6.5-3.3,6.5-8.9L-19.8,374.5L-19.8,374.5z M-13.3,381.9c0,0,0,3.6,0,5c0,1.3-0.9,2.4-2.1,2.8l0,0l-3,1
	v-19c0,0,4.3-1.5,6.8-2.1c3.9-0.9,6.6,0.9,6.6,4c-0.1,2.4-1.2,4.6-3.2,6l3.2,3.2c1,1,1,2.7,0,3.7c0,0,0,0-0.1,0.1
	c-1.1,1-2.8,0.9-3.9-0.1L-13.3,381.9L-13.3,381.9z M-13.3,379c0,0,3-1.6,3-4c0-2.1-2-1.6-3-1.3V379L-13.3,379z M11.2,371.5l-7.6,1.7
	c0,0,0,0.8,0,2.1c-0.1,0.7,0.5,1.4,1.2,1.4c0.2,0,0.3,0,0.5,0c0.6-0.1,1.1-0.2,1.1-0.2v2.1c0,0.8-1.2,1.4-2.5,1.3
	c-1.8,0-2.8-1.4-2.9-4.1c0.1-3.5,1.7-5.6,4-6.2c1-0.2,2-0.2,2.9,0c1.9,0.3,3.1-0.6,3.1-2.2c0-1.6-1.5-2.8-4.8-2.7
	c-7.1,0.3-10.8,5.4-10.8,11.5s4.1,9,9.1,8.1c1.9-0.3,3.6-1.1,5.1-2.3c0.9-0.8,1.4-2,1.4-3.2L11.2,371.5L11.2,371.5z"/>
<path class="st0" d="M-18.6,351.1c-8.3,3.7-14,12.4-14.3,16.1c0,0.6,0.4,1,0.9,1.1c0.6,0,1-0.4,1.1-0.9
	C-29.1,360.6-23.7,354.2-18.6,351.1L-18.6,351.1z"/>
<path class="st0" d="M9,357.4c4.5-1.1,7-1.3,7-3.3c0.1-3.4-9.5-7.3-18.3-6.6c9,0.6,14.3,4,14.4,6.5C11.9,355.7,10.6,357.1,9,357.4z"
	/>
<path class="st0" d="M11.8,431.7c7.3-2.8,13.4-8.3,16.8-15.3c1-2.2-2-3.3-2.8-0.7C23.1,422.5,18.2,428.1,11.8,431.7L11.8,431.7z"/>
<path class="st0" d="M38.6,407.6v0.8h1.9v3.8h1.3v-3.8h1.8v-0.8H38.6z M47.8,412.2l1.1-3.7v3.7h1.3v-4.6h-1.8l-1.1,3.5l-1.1-3.5
	h-1.8v4.6h1.3v-3.7l1.1,3.7H47.8z"/>
</svg>
