<?xml version="1.0"?>
<svg xmlns="http://www.w3.org/2000/svg" viewBox="0 0 300 200">
  <title>logo_drakkar</title>
  <g id="Danone">
    <path d="M161.92,66.74l-13.08-3.52c3.95,20.29-1.28,37-7,50.72h2.51q6,.06,11.74.4a102.06,102.06,0,0,0,7.06-29.59A61.94,61.94,0,0,0,161.92,66.74Z" style="fill:#39bff0"/>
    <path d="M167.32,115.29c4.48.5,8.8,1.13,12.92,1.87,5.48-12.6,8.6-29.26,5.11-44.13l-12.14-3.26C176.25,87.51,172.53,102.21,167.32,115.29Z" style="fill:#39bff0"/>
    <path d="M137.83,82.88A71.24,71.24,0,0,0,136,59.79l-15.06-4c7.91,25.2-2.33,48.5-7.77,60.09,5.15-.7,10.58-1.22,16.23-1.53C133.7,104,136.91,94.09,137.83,82.88Z" style="fill:#39bff0"/>
    <path d="M74.35,143.8H68.19V127.63h6.49c5,0,8.57,2.22,8.57,7.9C83.25,141.52,79.42,143.8,74.35,143.8Zm-.24-3.6c2.82,0,4.5-.94,4.5-4.47s-1.74-4.5-4.3-4.5H72.73v9Z" style="fill:#39bff0"/>
    <path d="M102.82,143.8a4,4,0,0,1-1-1.78l-.47-1.48A2.06,2.06,0,0,0,99,138.79H97.37v5H92.83V127.63h7.3c4.44,0,6.59,1.78,6.59,5.25,0,2.79-1.85,4-4.24,4.23v.1a3.42,3.42,0,0,1,3.3,2.22l.9,2.42a5.23,5.23,0,0,0,1.15,2Zm-5.45-8.44h2.36c1.61,0,2.35-.6,2.35-2.05s-.77-2.08-2.35-2.08H97.37Z" style="fill:#39bff0"/>
    <path d="M133.07,143.8h-4.91l-1-2.75h-6.65l-1,2.75h-4.77l6.66-16.17h5.38Zm-11.36-6h4.2l-.84-2.22a18.08,18.08,0,0,1-1.14-4.14h-.17a19.92,19.92,0,0,1-1.18,4.14Z" style="fill:#39bff0"/>
    <path d="M152.59,143.8l-4.3-6.39h-2.24v6.39h-4.54V127.63h4.54V134h2.27l4.1-6.39h5.45l-5.68,7.8L158,143.8Z" style="fill:#39bff0"/>
    <path d="M177.89,143.8l-4.3-6.39h-2.24v6.39h-4.54V127.63h4.54V134h2.27l4.1-6.39h5.45l-5.68,7.8,5.81,8.37Z" style="fill:#39bff0"/>
    <path d="M208.11,143.8H203.2l-1-2.75h-6.65l-1,2.75h-4.77l6.66-16.17h5.38Zm-11.36-6H201l-.84-2.22a18.08,18.08,0,0,1-1.14-4.14h-.17a19.92,19.92,0,0,1-1.18,4.14Z" style="fill:#39bff0"/>
    <path d="M226.53,143.8a4.06,4.06,0,0,1-1-1.78l-.47-1.48a2.06,2.06,0,0,0-2.32-1.75h-1.64v5h-4.54V127.63h7.29c4.44,0,6.59,1.78,6.59,5.25,0,2.79-1.85,4-4.23,4.23v.1a3.39,3.39,0,0,1,3.29,2.22l.91,2.42a5.21,5.21,0,0,0,1.14,2Zm-5.44-8.44h2.35c1.61,0,2.35-.6,2.35-2.05s-.77-2.08-2.35-2.08h-2.35Z" style="fill:#39bff0"/>
  </g>
</svg>
