<?xml version="1.0"?>
<svg xmlns="http://www.w3.org/2000/svg" id="Burger_King" data-name="Burger King" viewBox="0 0 300 200">
  <defs>
    <style>.cls-1{fill:#39bff0;fill-rule:evenodd;}</style>
  </defs>
  <title>logo_burger_king</title>
  <path class="cls-1" d="M179,59.41a1.37,1.37,0,0,0-.27-1.28s-4.2-7.14-19.05-8.73c-8-.85-18.78.76-26.38,4.85-13.75,7.41-15.81,19.62-15.81,19.62a2.42,2.42,0,0,0,.1,1.6c.32.39.78.38,1.34.2,4.86-1.64,19.32-6.44,28.45-8.87,13-3.44,23.67-5.54,30.52-6.7a1.32,1.32,0,0,0,1.1-.69Zm-50,72.43a1.49,1.49,0,0,0,.4,1.45c3.08,3.87,16.76,8.77,31.6,5.18,22.67-5.49,27.46-21.52,28-23.79a1.8,1.8,0,0,0-.23-1.64c-.37-.38-.87-.38-1.58-.22-15.75,3.71-41.95,11.71-57.05,18.17-.65.28-.95.39-1.15.85Z"/>
  <path class="cls-1" d="M193.88,116.93c-7.78,17.47-22.7,29.62-42.25,29.9-14.23.2-26.8-4.68-35.87-13.18L110.27,136V127.5a49.55,49.55,0,0,1-9.45-29.86c0-29.68,22.74-53.08,54.45-53.08a60.88,60.88,0,0,1,13.38,1.61,53.72,53.72,0,0,0-16.85-2.69A56.41,56.41,0,0,0,94.88,99.53c0,31,24.33,57,56.26,57,30.49,0,47-21.5,52.21-34.44l-9.47-5.15Z"/>
  <path class="cls-1" d="M186,110.8a15.79,15.79,0,0,0,9.27-4,7.24,7.24,0,0,0,1.92-5.18c.06-2.28,0-9.5,0-9.5l-11.84,2.56s0,.89,0,2.77.9,2.82,2.82,2.47a14.87,14.87,0,0,0,1.53-.39v2.26c0-.06.18,1.26-2.81,1.85-3.9.61-5.67-1.79-5.72-6,.08-4.56,2.65-7.18,5.77-7.9a13.37,13.37,0,0,1,6.67.21c3.92.59,5-5.29,1.47-6.67a17,17,0,0,0-9.33-.61c-4.35.87-12.92,4.52-12.94,16.36,0,9.42,7,12.48,13.19,11.77Zm-6.31-28.59V64s5.33-.94,6.7-1.12c3.82-.49,6.39,1.63,6.33,4.65a6.25,6.25,0,0,1-3.09,5.19s2.59,2.93,3.29,3.7a2.45,2.45,0,0,1-.49,3.71,2.65,2.65,0,0,1-3.49-.46l-4.29-5s0,3.09,0,4.45a2.55,2.55,0,0,1-2.18,2.61l-2.8.55Zm5-10.43s3-1.12,2.93-3.49c0-2-2-1.64-2.93-1.44v4.93Zm-7.89,11a2.2,2.2,0,0,0,1.81-2.39c0-1.23,0-2.17,0-2.17l-6.07,1.33V76l3.8-.8a1.78,1.78,0,0,0,1.58-2V71.1l-5.38,1.14V69.41l4.3-.9a1.9,1.9,0,0,0,1.56-2.16c0-.71,0-2.14,0-2.14-2.69.47-7.79,1.5-11,2.22l0,18.48s6-1.43,9.37-2.15Zm-29.25,38.13,3.95-1.36c2.92-1,4-2.74,4-5.75,0-3.26,0-9.62,0-9.62l8.44,9.73a4.43,4.43,0,0,0,4.67,1.08,4.25,4.25,0,0,0,3-4.07c0-7,0-24.18,0-24.18s-2.18.46-4,1c-2.09.59-3.69,1.93-3.69,5.43,0,1.25,0,8.37,0,8.37s-4.75-5.95-7.86-9.07c-1.66-1.66-4.41-.67-4.41-.67L147.48,93v27.91Zm-2.56-27.28s-2.54.75-4.61,1.49c-2.69,1-4.24,2.53-4.24,6.6,0,3.74,0,23.19,0,23.19s2.36-.8,4.55-1.63c3.12-1.17,4.3-2.78,4.3-6.06,0-2.82,0-23.59,0-23.59ZM132.3,99.12a4.09,4.09,0,0,0-5.19,1.44l-7.18,12.21v-9.85l-8.46,3.51,0,27.84,6-2.5a3.68,3.68,0,0,0,1.88-1.45,5.9,5.9,0,0,0,.62-2.73v-8.83l6.66,7.07a4.73,4.73,0,0,0,6.53.38,4.29,4.29,0,0,0,.61-6l-6.07-6.11s5.35-8.42,6.22-9.83a3.47,3.47,0,0,0-1.55-5.15ZM121,94.66c.07,3.9-2.73,6-6.39,7.48l-7.48,3.18,0-20.27s4.72-1.93,6.26-2.48c4.37-1.59,6.94.32,6.94,3.24a6.27,6.27,0,0,1-2.64,5.07A3.9,3.9,0,0,1,121,94.66Zm-8.72-3.75a8.45,8.45,0,0,0,1-.42,3.18,3.18,0,0,0,1.92-2.85c0-1.49-1.22-1.87-2.87-1v4.29l3.32,4.46c0-1.54-1.22-2.37-3.28-1.34V99l1.15-.52a3.29,3.29,0,0,0,2.13-3.07l-3.32-4.46Zm22.93-13.36c0-1.7-1.17-2.16-2.6-1.75-1.14.33-2.48.85-2.48.85V89.26c0,1.25-.21,2.82-1.76,3.21-1.18.3-1.74-.5-1.75-1.74V80.41c0-1.72-1.2-2.23-2.61-1.76-1.6.53-2.55.91-2.55.91s0,8.93,0,12.5c0,4.18,2.86,6.27,7.26,5,3.88-1.15,6.47-3.32,6.51-8.89V77.55Zm6.52,7.31s0,3.55,0,5a3,3,0,0,1-2.08,2.75h0l-3,1v-19s4.25-1.48,6.75-2.06c3.88-.9,6.64.86,6.59,4a7.66,7.66,0,0,1-3.19,6L150,85.72a2.65,2.65,0,0,1-.06,3.81,2.81,2.81,0,0,1-3.88-.14l-4.38-4.53Zm0-2.85s3-1.55,3-4c0-2.09-2-1.63-3-1.27V82Zm24.5-7.46-7.55,1.72s0,.79,0,2.1a1.33,1.33,0,0,0,1.68,1.4c.62-.12,1.12-.24,1.12-.24v2.1c0,.83-1.24,1.37-2.53,1.34-1.82,0-2.82-1.45-2.85-4.13.06-3.53,1.72-5.59,4-6.18a7.74,7.74,0,0,1,2.95,0c1.95.32,3.07-.62,3.11-2.23s-1.49-2.79-4.77-2.68c-7.12.25-10.76,5.36-10.76,11.46s4.09,9,9.07,8.11A10.49,10.49,0,0,0,164.8,85a4.33,4.33,0,0,0,1.37-3.22V74.55Z"/>
  <path class="cls-1" d="M136.4,54.11c-8.34,3.69-14,12.44-14.27,16.14a1,1,0,1,0,2,.13c1.76-6.77,7.15-13.14,12.26-16.27Z"/>
  <path class="cls-1" d="M164,60.39c4.49-1.1,7-1.26,7-3.27.08-3.36-9.51-7.26-18.29-6.56,9,.6,14.32,4,14.35,6.45A3.85,3.85,0,0,1,164,60.39Z"/>
  <path class="cls-1" d="M166.8,134.72a30.92,30.92,0,0,0,16.82-15.31c1-2.2-2-3.32-2.81-.74a31.79,31.79,0,0,1-14,16Z"/>
  <path class="cls-1" d="M193.62,110.63v.79h1.85v3.82h1.26v-3.82h1.78v-.79Zm9.15,4.61,1.09-3.73v3.73h1.26v-4.61h-1.84l-1.14,3.54L201,110.63h-1.83v4.61h1.26v-3.73l1.09,3.73Z"/>
</svg>
