<?xml version="1.0"?>
<svg xmlns="http://www.w3.org/2000/svg" viewBox="0 0 1644.55 208.48">
  <title>Fichier 25</title>
  <g id="Calque_2" data-name="Calque 2">
    <g id="Calque_7" data-name="Calque 7">
      <path d="M36.84,17.83l-5.32,1.38a12.21,12.21,0,0,1-2.66.39,6.65,6.65,0,0,1-6.6-6.5,6.72,6.72,0,0,1,5-6.5L37,3.74a27.45,27.45,0,0,1,7.09-1.28h.2A7.49,7.49,0,0,1,51.82,10V65.51a7.49,7.49,0,0,1-15,0Z" style="fill:#fff"/>
      <path d="M63.74,38.12v-.19c0-20,12.41-35.66,30.73-35.66S125,17.73,125,37.73v.2c0,20-12.31,35.66-30.73,35.66S63.74,58.12,63.74,38.12Zm45.71,0v-.19c0-12.51-6.11-22-15.17-22s-15,9.16-15,21.77v.2c0,12.61,6,22,15.17,22S109.45,50.63,109.45,38.12Z" style="fill:#fff"/>
      <path d="M133.19,38.12v-.19c0-20,12.41-35.66,30.74-35.66s30.54,15.46,30.54,35.46v.2c0,20-12.32,35.66-30.74,35.66S133.19,58.12,133.19,38.12Zm45.71,0v-.19c0-12.51-6.11-22-15.17-22s-15,9.16-15,21.77v.2c0,12.61,6,22,15.17,22S178.9,50.63,178.9,38.12Z" style="fill:#fff"/>
      <path d="M229.74,38.12v-.19c0-20,12.41-35.66,30.73-35.66S291,17.73,291,37.73v.2c0,20-12.31,35.66-30.73,35.66S229.74,58.12,229.74,38.12Zm45.71,0v-.19c0-12.51-6.11-22-15.17-22s-15,9.16-15,21.77v.2c0,12.61,6,22,15.17,22S275.45,50.63,275.45,38.12Z" style="fill:#fff"/>
      <path d="M299.19,38.12v-.19c0-20,12.42-35.66,30.74-35.66s30.54,15.46,30.54,35.46v.2c0,20-12.32,35.66-30.74,35.66S299.19,58.12,299.19,38.12Zm45.71,0v-.19c0-12.51-6.11-22-15.17-22s-15,9.16-15,21.77v.2c0,12.61,6,22,15.17,22S344.9,50.63,344.9,38.12Z" style="fill:#fff"/>
      <path d="M368.65,38.12v-.19c0-20,12.41-35.66,30.73-35.66s30.54,15.46,30.54,35.46v.2c0,20-12.31,35.66-30.73,35.66S368.65,58.12,368.65,38.12Zm45.71,0v-.19c0-12.51-6.11-22-15.17-22s-15,9.16-15,21.77v.2c0,12.61,6,22,15.17,22S414.36,50.63,414.36,38.12Z" style="fill:#fff"/>
      <path d="M514.55,65.51a7.49,7.49,0,1,1-15,0v-.59c-3.44,4.43-7.88,8.47-15.46,8.47-11.33,0-17.93-7.49-17.93-19.6V26.5a7.49,7.49,0,1,1,15,0V49.06c0,7.09,3.35,10.74,9.06,10.74s9.36-3.65,9.36-10.74V26.5a7.49,7.49,0,1,1,15,0Z" style="fill:#fff"/>
      <path d="M524.11,67.38a6,6,0,0,1-2.86-5.12,5.8,5.8,0,0,1,5.91-5.91,5.64,5.64,0,0,1,3,.79c5,3.15,10,4.73,14.29,4.73s6.3-1.58,6.3-3.95v-.19c0-3.25-5.12-4.34-10.93-6.11C532.38,49.45,524,46,524,35.76v-.2c0-10.73,8.67-16.74,19.31-16.74a37.13,37.13,0,0,1,16.35,4,6.1,6.1,0,0,1,3.54,5.62,5.88,5.88,0,0,1-6,5.91,5.47,5.47,0,0,1-2.76-.69c-4.24-2.07-8.28-3.35-11.43-3.35-3.64,0-5.52,1.58-5.52,3.65v.19c0,3,5,4.34,10.74,6.31,7.39,2.46,16,6,16,15.66v.2c0,11.72-8.77,17-20.2,17A36.74,36.74,0,0,1,524.11,67.38Z" style="fill:#fff"/>
      <path d="M597.5,73.59c-15.86,0-27.58-11.13-27.58-27.29v-.2c0-15.07,10.73-27.48,26.1-27.48,17.63,0,25.42,14.48,25.42,25.41a6.84,6.84,0,0,1-7,7.2H584.79C586.27,58,591,61.57,597.7,61.57A17.29,17.29,0,0,0,608.34,58,5.55,5.55,0,0,1,612,56.84a5.72,5.72,0,0,1,5.81,5.91,5.84,5.84,0,0,1-2,4.43A27.36,27.36,0,0,1,597.5,73.59Zm9.65-31.72c-.88-6.7-4.82-11.23-11.13-11.23s-10.24,4.43-11.43,11.23Z" style="fill:#fff"/>
      <path d="M630.41,26.5a7.49,7.49,0,1,1,15,0v2.36c2.17-5.12,5.71-9.85,10.15-9.85,4.63,0,7.29,3.06,7.29,7.29a6.9,6.9,0,0,1-5.62,7c-7.59,1.77-11.82,7.58-11.82,18.22v14a7.49,7.49,0,1,1-15,0Z" style="fill:#fff"/>
      <path d="M667.74,67.38a6,6,0,0,1-2.85-5.12,5.8,5.8,0,0,1,5.91-5.91,5.67,5.67,0,0,1,3,.79c5,3.15,10,4.73,14.29,4.73s6.3-1.58,6.3-3.95v-.19c0-3.25-5.12-4.34-10.93-6.11C676,49.45,667.65,46,667.65,35.76v-.2c0-10.73,8.66-16.74,19.3-16.74a37.17,37.17,0,0,1,16.36,4,6.12,6.12,0,0,1,3.54,5.62,5.89,5.89,0,0,1-6,5.91,5.52,5.52,0,0,1-2.76-.69c-4.23-2.07-8.27-3.35-11.42-3.35-3.65,0-5.52,1.58-5.52,3.65v.19c0,3,5,4.34,10.74,6.31,7.39,2.46,16,6,16,15.66v.2c0,11.72-8.77,17-20.2,17A36.8,36.8,0,0,1,667.74,67.38Z" style="fill:#fff"/>
      <path d="M743,7c0-4.33,3.64-7,8.37-7s8.38,2.66,8.38,7v.2c0,4.34-3.65,7.09-8.38,7.09S743,11.53,743,7.19Zm.89,19.51a7.49,7.49,0,1,1,15,0v39a7.49,7.49,0,1,1-15,0Z" style="fill:#fff"/>
      <path d="M770.49,26.5a7.49,7.49,0,0,1,15,0v.59c3.45-4.43,7.88-8.47,15.46-8.47,11.33,0,17.93,7.49,17.93,19.6V65.51a7.49,7.49,0,1,1-15,0V43c0-7.09-3.35-10.74-9.06-10.74s-9.36,3.65-9.36,10.74V65.51a7.49,7.49,0,0,1-15,0Z" style="fill:#fff"/>
      <path d="M889,57.53H860.64a7.11,7.11,0,0,1-7.39-7c0-3.16,1.28-5.62,3.54-8.28l30-34.77c2.86-3.35,5-5.13,9.46-5.13a7.2,7.2,0,0,1,7.29,7.2V45.22h3.64a6.18,6.18,0,0,1,6.21,6.2,6.1,6.1,0,0,1-6.21,6.11h-3.64v8.28A7.19,7.19,0,0,1,896.2,73,7.11,7.11,0,0,1,889,65.81Zm0-12.31V23.74L870.68,45.22Z" style="fill:#fff"/>
      <path d="M919.65,53.49v-.2c0-8.37,3.84-13.29,11.13-16.64C925.46,33.4,922,29,922,21.57v-.19c0-10.54,9.66-18.92,24.24-18.92s24.23,8.28,24.23,18.92v.19c0,7.39-3.45,11.83-8.77,15.08,7,3.64,11.13,8.07,11.13,16.25v.2c0,12.8-11.32,20.29-26.59,20.29S919.65,65.51,919.65,53.49Zm38.52-1.18v-.2c0-5.32-5-8.47-11.92-8.47s-11.92,3.15-11.92,8.47v.2c0,4.73,4.43,8.57,11.92,8.57S958.17,57.14,958.17,52.31ZM956.1,23.25v-.2c0-4.23-3.65-8.08-9.85-8.08s-9.86,3.75-9.86,8v.2c0,4.83,3.85,8.47,9.86,8.47S956.1,28.08,956.1,23.25Z" style="fill:#fff"/>
      <path d="M1006.05,46.3v-.2c0-15.07,11.52-27.48,27.68-27.48,8,0,13.59,2.17,18,5.91a6.62,6.62,0,0,1,2.37,5.12,6.73,6.73,0,0,1-6.8,6.7,7,7,0,0,1-4.33-1.48,14.27,14.27,0,0,0-9.36-3.35c-7.49,0-12.81,6.6-12.81,14.39v.19c0,8.08,5.22,14.58,13.4,14.58a15.2,15.2,0,0,0,9.85-3.64,7,7,0,0,1,4-1.38,6.36,6.36,0,0,1,4.14,11.13c-4.44,4-10,6.8-18.72,6.8A27,27,0,0,1,1006.05,46.3Z" style="fill:#fff"/>
      <path d="M1058.36,46.3v-.2c0-15.17,12.21-27.48,28.67-27.48s28.46,12.12,28.46,27.29v.19c0,15.17-12.21,27.49-28.66,27.49S1058.36,61.47,1058.36,46.3Zm42.36,0v-.2c0-7.78-5.62-14.58-13.89-14.58-8.57,0-13.69,6.6-13.69,14.39v.19c0,7.79,5.61,14.58,13.89,14.58C1095.6,60.68,1100.72,54.08,1100.72,46.3Z" style="fill:#fff"/>
      <path d="M1171.85,65.51a7.49,7.49,0,0,1-15,0v-.59c-3.45,4.43-7.88,8.47-15.46,8.47-11.33,0-17.93-7.49-17.93-19.6V26.5a7.49,7.49,0,1,1,15,0V49.06c0,7.09,3.35,10.74,9.06,10.74s9.36-3.65,9.36-10.74V26.5a7.49,7.49,0,0,1,15,0Z" style="fill:#fff"/>
      <path d="M1182.78,26.5a7.49,7.49,0,0,1,15,0v.59c3.44-4.43,7.88-8.47,15.46-8.47,11.33,0,17.93,7.49,17.93,19.6V65.51a7.49,7.49,0,1,1-15,0V43c0-7.09-3.35-10.74-9.06-10.74s-9.36,3.65-9.36,10.74V65.51a7.49,7.49,0,1,1-15,0Z" style="fill:#fff"/>
      <path d="M1244.16,57.43v-25h-.49a6.41,6.41,0,1,1,0-12.81h.49V13a7.49,7.49,0,0,1,15,0v6.6h6.6a6.41,6.41,0,1,1,0,12.81h-6.6V55c0,3.45,1.48,5.12,4.83,5.12.49,0,1.48-.1,1.77-.1a6.25,6.25,0,0,1,6.21,6.21,6.07,6.07,0,0,1-3.84,5.61,22,22,0,0,1-8.57,1.48C1250.36,73.29,1244.16,69.65,1244.16,57.43Z" style="fill:#fff"/>
      <path d="M1280.12,26.5a7.49,7.49,0,1,1,15,0v2.36c2.17-5.12,5.71-9.85,10.15-9.85,4.63,0,7.29,3.06,7.29,7.29a6.89,6.89,0,0,1-5.62,7c-7.58,1.77-11.82,7.58-11.82,18.22v14a7.49,7.49,0,1,1-15,0Z" style="fill:#fff"/>
      <path d="M1318.64,7c0-4.33,3.64-7,8.37-7s8.37,2.66,8.37,7v.2c0,4.34-3.64,7.09-8.37,7.09s-8.37-2.75-8.37-7.09Zm.88,19.51a7.49,7.49,0,0,1,15,0v39a7.49,7.49,0,0,1-15,0Z" style="fill:#fff"/>
      <path d="M1371.14,73.59c-15.86,0-27.58-11.13-27.58-27.29v-.2c0-15.07,10.74-27.48,26.11-27.48,17.63,0,25.41,14.48,25.41,25.41a6.83,6.83,0,0,1-7,7.2h-29.65c1.47,6.79,6.2,10.34,12.9,10.34A17.25,17.25,0,0,0,1382,58a5.57,5.57,0,0,1,3.64-1.18,5.73,5.73,0,0,1,5.82,5.91,5.87,5.87,0,0,1-2,4.43A27.37,27.37,0,0,1,1371.14,73.59Zm9.66-31.72c-.89-6.7-4.83-11.23-11.13-11.23s-10.25,4.43-11.43,11.23Z" style="fill:#fff"/>
      <path d="M1402.67,67.38a6,6,0,0,1-2.86-5.12,5.81,5.81,0,0,1,5.91-5.91,5.68,5.68,0,0,1,3,.79c5,3.15,10,4.73,14.28,4.73s6.31-1.58,6.31-3.95v-.19c0-3.25-5.12-4.34-10.94-6.11-7.38-2.17-15.76-5.62-15.76-15.86v-.2c0-10.73,8.67-16.74,19.31-16.74a37.1,37.1,0,0,1,16.35,4,6.11,6.11,0,0,1,3.55,5.62,5.89,5.89,0,0,1-6,5.91,5.52,5.52,0,0,1-2.76-.69c-4.23-2.07-8.27-3.35-11.43-3.35-3.64,0-5.51,1.58-5.51,3.65v.19c0,3,5,4.34,10.74,6.31,7.38,2.46,16,6,16,15.66v.2c0,11.72-8.76,17-20.19,17A36.78,36.78,0,0,1,1402.67,67.38Z" style="fill:#fff"/>
      <path d="M1475,57.23V57c0-11.53,8.77-16.85,21.28-16.85a37.49,37.49,0,0,1,12.9,2.17v-.89c0-6.2-3.84-9.65-11.32-9.65a34.27,34.27,0,0,0-10.35,1.48,6.43,6.43,0,0,1-2.16.39,6.1,6.1,0,0,1-6.21-6.11,6.2,6.2,0,0,1,4-5.81A46,46,0,0,1,1500,19c8.18,0,14.09,2.17,17.83,5.91,3.94,3.94,5.72,9.76,5.72,16.85v24a7.19,7.19,0,0,1-7.29,7.19c-4.34,0-7.19-3.06-7.19-6.21v-.1c-3.65,4-8.67,6.7-16,6.7C1483.16,73.39,1475,67.68,1475,57.23Zm34.38-3.44V51.13a23.24,23.24,0,0,0-9.55-2c-6.41,0-10.35,2.56-10.35,7.29v.19c0,4,3.35,6.41,8.18,6.41C1504.63,63.05,1509.36,59.21,1509.36,53.79Z" style="fill:#fff"/>
      <path d="M1534,26.5a7.49,7.49,0,0,1,15,0v2.36c2.16-5.12,5.71-9.85,10.14-9.85,4.63,0,7.29,3.06,7.29,7.29a6.89,6.89,0,0,1-5.61,7c-7.59,1.77-11.82,7.58-11.82,18.22v14a7.49,7.49,0,1,1-15,0Z" style="fill:#fff"/>
      <path d="M1596.25,73.59c-15.86,0-27.58-11.13-27.58-27.29v-.2c0-15.07,10.74-27.48,26.11-27.48,17.63,0,25.41,14.48,25.41,25.41a6.83,6.83,0,0,1-7,7.2h-29.65c1.47,6.79,6.2,10.34,12.9,10.34A17.25,17.25,0,0,0,1607.09,58a5.58,5.58,0,0,1,3.65-1.18,5.73,5.73,0,0,1,5.81,5.91,5.87,5.87,0,0,1-2,4.43A27.37,27.37,0,0,1,1596.25,73.59Zm9.66-31.72c-.89-6.7-4.83-11.23-11.13-11.23s-10.25,4.43-11.43,11.23Z" style="fill:#fff"/>
      <path d="M6.7,202.94A6.12,6.12,0,1,1,11,191.51a34.16,34.16,0,0,0,14.58,3.16c10.25,0,15.08-4.93,15.08-14.39v-2.56c-4.44,5.32-9.27,8.57-17.24,8.57-12.32,0-23.45-9-23.45-24.62v-.2c0-15.76,11.33-24.63,23.45-24.63,8.17,0,13,3.45,17,7.88v-.1a7.49,7.49,0,0,1,15,.1v34c0,9.45-2.26,16.35-6.7,20.78-4.92,4.93-12.51,7.1-22.75,7.1A50.65,50.65,0,0,1,6.7,202.94Zm34-41.27v-.2c0-7.19-5.62-12.22-12.91-12.22S15,154.28,15,161.47v.2c0,7.28,5.52,12.21,12.81,12.21S40.69,168.86,40.69,161.67Z" style="fill:#fff"/>
      <path d="M63.84,164.52v-.2c0-15.17,12.21-27.48,28.66-27.48S121,149,121,164.13v.19c0,15.18-12.21,27.49-28.66,27.49S63.84,179.69,63.84,164.52Zm42.36,0v-.2c0-7.78-5.62-14.57-13.89-14.57-8.57,0-13.7,6.6-13.7,14.38v.19c0,7.79,5.62,14.58,13.89,14.58C101.08,178.9,106.2,172.3,106.2,164.52Z" style="fill:#fff"/>
      <path d="M129.15,125.22c0-4.34,3.65-7,8.38-7s8.37,2.66,8.37,7v.19c0,4.34-3.64,7.1-8.37,7.1s-8.38-2.76-8.38-7.1Zm.89,19.5a7.49,7.49,0,1,1,15,0v39a7.49,7.49,0,1,1-15,0Z" style="fill:#fff"/>
      <path d="M156.64,144.72a7.49,7.49,0,1,1,15,0v.59c3.45-4.43,7.88-8.47,15.47-8.47,11.33,0,17.93,7.49,17.93,19.6v27.29a7.49,7.49,0,1,1-15,0V161.17c0-7.09-3.34-10.74-9.06-10.74s-9.36,3.65-9.36,10.74v22.56a7.49,7.49,0,1,1-15,0Z" style="fill:#fff"/>
      <path d="M219.89,202.94A6.11,6.11,0,0,1,221.76,191a6.19,6.19,0,0,1,2.46.49,34.1,34.1,0,0,0,14.58,3.16c10.24,0,15.07-4.93,15.07-14.39v-2.56c-4.43,5.32-9.26,8.57-17.24,8.57-12.31,0-23.44-9-23.44-24.62v-.2c0-15.76,11.33-24.63,23.44-24.63,8.18,0,13,3.45,17,7.88v-.1a7.49,7.49,0,0,1,15,.1v34c0,9.45-2.27,16.35-6.7,20.78-4.93,4.93-12.51,7.1-22.76,7.1A50.63,50.63,0,0,1,219.89,202.94Zm34-41.27v-.2c0-7.19-5.61-12.22-12.9-12.22s-12.81,5-12.81,12.22v.2c0,7.28,5.52,12.21,12.81,12.21S253.87,168.86,253.87,161.67Z" style="fill:#fff"/>
      <path d="M306.68,144.72a7.49,7.49,0,1,1,15,0v.69c3.65-4.92,8.67-8.57,16.45-8.57,12.32,0,24,9.65,24,27.29v.19c0,17.64-11.53,27.29-24,27.29-8,0-12.9-3.64-16.45-7.88v15.76a7.49,7.49,0,1,1-15,0Zm40.49,19.6v-.19c0-8.77-5.92-14.58-12.91-14.58s-12.81,5.81-12.81,14.58v.19c0,8.77,5.82,14.58,12.81,14.58S347.17,173.19,347.17,164.32Z" style="fill:none;stroke:#00c6ff;stroke-miterlimit:10;stroke-width:3px"/>
      <path d="M367.56,175.46v-.2c0-11.53,8.77-16.85,21.28-16.85a37.49,37.49,0,0,1,12.9,2.17v-.89c0-6.2-3.84-9.65-11.32-9.65a34.27,34.27,0,0,0-10.35,1.48,6.44,6.44,0,0,1-2.17.39,6.1,6.1,0,0,1-6.2-6.11,6.2,6.2,0,0,1,4-5.81,46,46,0,0,1,16.84-2.76c8.18,0,14.09,2.17,17.83,5.91,3.94,3.94,5.72,9.76,5.72,16.85v24a7.19,7.19,0,0,1-7.29,7.19c-4.34,0-7.19-3.06-7.19-6.21v-.1c-3.65,4-8.67,6.7-16,6.7C375.74,191.61,367.56,185.9,367.56,175.46ZM401.94,172v-2.66a23.24,23.24,0,0,0-9.55-2c-6.41,0-10.35,2.56-10.35,7.29v.2c0,4,3.35,6.4,8.18,6.4C397.21,181.27,401.94,177.43,401.94,172Z" style="fill:none;stroke:#00c6ff;stroke-miterlimit:10;stroke-width:3px"/>
      <path d="M426.57,144.72a7.49,7.49,0,1,1,15,0v.69c3.64-4.92,8.66-8.57,16.45-8.57,12.31,0,24,9.65,24,27.29v.19c0,17.64-11.52,27.29-24,27.29-8,0-12.91-3.64-16.45-7.88v15.76a7.49,7.49,0,0,1-15,0Zm40.49,19.6v-.19c0-8.77-5.91-14.58-12.9-14.58s-12.81,5.81-12.81,14.58v.19c0,8.77,5.81,14.58,12.81,14.58S467.06,173.19,467.06,164.32Z" style="fill:none;stroke:#00c6ff;stroke-miterlimit:10;stroke-width:3px"/>
      <path d="M515.63,191.81c-15.86,0-27.58-11.13-27.58-27.29v-.2c0-15.07,10.73-27.48,26.1-27.48,17.63,0,25.42,14.48,25.42,25.42a6.84,6.84,0,0,1-7,7.19H502.92c1.48,6.79,6.21,10.34,12.91,10.34a17.29,17.29,0,0,0,10.64-3.55,5.6,5.6,0,0,1,3.64-1.18,5.72,5.72,0,0,1,5.81,5.91,5.88,5.88,0,0,1-2,4.44A27.36,27.36,0,0,1,515.63,191.81Zm9.65-31.72c-.88-6.7-4.82-11.23-11.13-11.23s-10.24,4.43-11.43,11.23Z" style="fill:none;stroke:#00c6ff;stroke-miterlimit:10;stroke-width:3px"/>
      <path d="M548.54,144.72a7.49,7.49,0,1,1,15,0v2.36c2.17-5.12,5.71-9.85,10.15-9.85,4.63,0,7.29,3.06,7.29,7.29a6.9,6.9,0,0,1-5.62,7c-7.59,1.77-11.82,7.58-11.82,18.22v14a7.49,7.49,0,1,1-15,0Z" style="fill:none;stroke:#00c6ff;stroke-miterlimit:10;stroke-width:3px"/>
      <path d="M587.94,125.61a7.49,7.49,0,0,1,15,0v58.12a7.49,7.49,0,0,1-15,0Z" style="fill:none;stroke:#00c6ff;stroke-miterlimit:10;stroke-width:3px"/>
      <path d="M639.56,191.81c-15.86,0-27.58-11.13-27.58-27.29v-.2c0-15.07,10.74-27.48,26.1-27.48,17.64,0,25.42,14.48,25.42,25.42a6.83,6.83,0,0,1-7,7.19H626.85c1.48,6.79,6.21,10.34,12.91,10.34a17.25,17.25,0,0,0,10.64-3.55,5.62,5.62,0,0,1,3.64-1.18,5.73,5.73,0,0,1,5.82,5.91,5.91,5.91,0,0,1-2,4.44A27.37,27.37,0,0,1,639.56,191.81Zm9.66-31.72c-.89-6.7-4.83-11.23-11.14-11.23s-10.24,4.43-11.42,11.23Z" style="fill:none;stroke:#00c6ff;stroke-miterlimit:10;stroke-width:3px"/>
      <path d="M671.09,185.6a6,6,0,0,1-2.86-5.12,5.92,5.92,0,0,1,8.87-5.12c5,3.15,10,4.73,14.28,4.73s6.31-1.58,6.31-3.94V176c0-3.25-5.13-4.34-10.94-6.11C679.36,167.67,671,164.23,671,154v-.2c0-10.73,8.67-16.74,19.31-16.74a37,37,0,0,1,16.35,4,6.09,6.09,0,0,1,3.55,5.61,5.89,5.89,0,0,1-6,5.91,5.49,5.49,0,0,1-2.76-.69c-4.24-2.07-8.27-3.35-11.43-3.35-3.64,0-5.51,1.58-5.51,3.65v.19c0,3,5,4.34,10.73,6.31,7.39,2.46,16,6,16,15.66v.2c0,11.72-8.76,17-20.19,17A36.78,36.78,0,0,1,671.09,185.6Z" style="fill:none;stroke:#00c6ff;stroke-miterlimit:10;stroke-width:3px"/>
      <path d="M717.1,185.6a6,6,0,0,1-2.86-5.12,5.92,5.92,0,0,1,8.87-5.12c5,3.15,10,4.73,14.28,4.73s6.31-1.58,6.31-3.94V176c0-3.25-5.13-4.34-10.94-6.11C725.37,167.67,717,164.23,717,154v-.2c0-10.73,8.67-16.74,19.31-16.74a37,37,0,0,1,16.35,4,6.09,6.09,0,0,1,3.55,5.61,5.89,5.89,0,0,1-6,5.91,5.47,5.47,0,0,1-2.76-.69c-4.24-2.07-8.28-3.35-11.43-3.35-3.64,0-5.52,1.58-5.52,3.65v.19c0,3,5,4.34,10.74,6.31,7.39,2.46,16,6,16,15.66v.2c0,11.72-8.77,17-20.19,17A36.75,36.75,0,0,1,717.1,185.6Z" style="fill:none;stroke:#00c6ff;stroke-miterlimit:10;stroke-width:3px"/>
      <path d="M792.36,125.22c0-4.34,3.65-7,8.38-7s8.37,2.66,8.37,7v.19c0,4.34-3.64,7.1-8.37,7.1s-8.38-2.76-8.38-7.1Zm.89,19.5a7.49,7.49,0,1,1,15,0v39a7.49,7.49,0,1,1-15,0Z" style="fill:#fff"/>
      <path d="M819.85,144.72a7.49,7.49,0,1,1,15,0v.59c3.45-4.43,7.88-8.47,15.47-8.47,11.33,0,17.93,7.49,17.93,19.6v27.29a7.49,7.49,0,1,1-15,0V161.17c0-7.09-3.35-10.74-9.06-10.74s-9.36,3.65-9.36,10.74v22.56a7.49,7.49,0,1,1-15,0Z" style="fill:#fff"/>
      <path d="M908.31,175.65v-25h-.49a6.4,6.4,0,0,1,0-12.8h.49v-6.61a7.49,7.49,0,0,1,15,0v6.61h6.6a6.4,6.4,0,0,1,0,12.8h-6.6v22.56c0,3.45,1.48,5.12,4.83,5.12.49,0,1.47-.1,1.77-.1a6.24,6.24,0,0,1,6.2,6.21,6.1,6.1,0,0,1-3.84,5.62,22.17,22.17,0,0,1-8.57,1.47C914.52,191.51,908.31,187.87,908.31,175.65Z" style="fill:#fff"/>
      <path d="M944.27,125.61a7.49,7.49,0,0,1,15,0v19.7c3.44-4.43,7.88-8.47,15.46-8.47,11.33,0,17.93,7.49,17.93,19.6v27.29a7.49,7.49,0,1,1-15,0V161.17c0-7.09-3.35-10.74-9.06-10.74s-9.36,3.65-9.36,10.74v22.56a7.49,7.49,0,1,1-15,0Z" style="fill:#fff"/>
      <path d="M1028.21,191.81c-15.86,0-27.59-11.13-27.59-27.29v-.2c0-15.07,10.74-27.48,26.11-27.48,17.63,0,25.42,14.48,25.42,25.42a6.84,6.84,0,0,1-7,7.19H1015.5c1.48,6.79,6.21,10.34,12.9,10.34a17.25,17.25,0,0,0,10.64-3.55,5.65,5.65,0,0,1,3.65-1.18,5.72,5.72,0,0,1,5.81,5.91,5.91,5.91,0,0,1-2,4.44A27.36,27.36,0,0,1,1028.21,191.81Zm9.65-31.72c-.89-6.7-4.83-11.23-11.13-11.23s-10.25,4.43-11.43,11.23Z" style="fill:#fff"/>
      <path d="M1088.2,125.61a7.49,7.49,0,1,1,15,0v19.8c3.64-4.92,8.67-8.57,16.45-8.57,12.31,0,24,9.65,24,27.29v.19c0,17.64-11.53,27.29-24,27.29-8,0-12.91-3.64-16.45-7.88v.1a7.49,7.49,0,0,1-15-.1Zm40.49,38.71v-.19c0-8.77-5.91-14.58-12.9-14.58S1103,155.36,1103,164.13v.19c0,8.77,5.81,14.58,12.81,14.58S1128.69,173.19,1128.69,164.32Z" style="fill:#fff"/>
      <path d="M1149.68,164.52v-.2c0-15.17,12.21-27.48,28.67-27.48s28.46,12.12,28.46,27.29v.19c0,15.18-12.21,27.49-28.66,27.49S1149.68,179.69,1149.68,164.52Zm42.36,0v-.2c0-7.78-5.62-14.57-13.89-14.57-8.57,0-13.69,6.6-13.69,14.38v.19c0,7.79,5.61,14.58,13.89,14.58C1186.92,178.9,1192,172.3,1192,164.52Z" style="fill:#fff"/>
      <path d="M1212,175.46v-.2c0-11.53,8.77-16.85,21.28-16.85a37.49,37.49,0,0,1,12.9,2.17v-.89c0-6.2-3.84-9.65-11.33-9.65a34.25,34.25,0,0,0-10.34,1.48,6.48,6.48,0,0,1-2.17.39,6.1,6.1,0,0,1-6.2-6.11,6.2,6.2,0,0,1,4-5.81,46,46,0,0,1,16.84-2.76c8.18,0,14.09,2.17,17.83,5.91,3.94,3.94,5.71,9.76,5.71,16.85v24a7.19,7.19,0,0,1-7.29,7.19c-4.33,0-7.19-3.06-7.19-6.21v-.1c-3.64,4-8.67,6.7-15.95,6.7C1220.22,191.61,1212,185.9,1212,175.46Zm34.38-3.45v-2.66a23.25,23.25,0,0,0-9.56-2c-6.4,0-10.34,2.56-10.34,7.29v.2c0,4,3.35,6.4,8.18,6.4C1241.69,181.27,1246.42,177.43,1246.42,172Z" style="fill:#fff"/>
      <path d="M1271.05,144.72a7.49,7.49,0,1,1,15,0v2.36c2.17-5.12,5.72-9.85,10.15-9.85,4.63,0,7.29,3.06,7.29,7.29a6.89,6.89,0,0,1-5.61,7c-7.59,1.77-11.83,7.58-11.83,18.22v14a7.49,7.49,0,1,1-15,0Z" style="fill:#fff"/>
      <path d="M1361.88,183.73a7.49,7.49,0,1,1-15,0V183c-3.65,4.93-8.67,8.57-16.45,8.57-12.32,0-24-9.65-24-27.29v-.19c0-17.64,11.52-27.29,24-27.29,8,0,12.9,3.65,16.45,7.88V125.61a7.49,7.49,0,1,1,15,0Zm-40.49-19.6v.19c0,8.77,5.91,14.58,12.91,14.58s12.8-5.81,12.8-14.58v-.19c0-8.77-5.81-14.58-12.8-14.58S1321.39,155.26,1321.39,164.13Z" style="fill:#fff"/>
      <path d="M1372.82,144.72a7.49,7.49,0,1,1,15,0v2.36c2.17-5.12,5.72-9.85,10.15-9.85,4.63,0,7.29,3.06,7.29,7.29a6.89,6.89,0,0,1-5.62,7c-7.58,1.77-11.82,7.58-11.82,18.22v14a7.49,7.49,0,1,1-15,0Z" style="fill:#fff"/>
      <path d="M1407.5,164.52v-.2c0-15.17,12.21-27.48,28.66-27.48s28.47,12.12,28.47,27.29v.19c0,15.18-12.21,27.49-28.66,27.49S1407.5,179.69,1407.5,164.52Zm42.36,0v-.2c0-7.78-5.62-14.57-13.89-14.57-8.57,0-13.7,6.6-13.7,14.38v.19c0,7.79,5.62,14.58,13.89,14.58C1444.73,178.9,1449.86,172.3,1449.86,164.52Z" style="fill:#fff"/>
      <path d="M1470.45,164.52v-.2c0-15.17,12.21-27.48,28.66-27.48s28.47,12.12,28.47,27.29v.19c0,15.18-12.21,27.49-28.66,27.49S1470.45,179.69,1470.45,164.52Zm42.36,0v-.2c0-7.78-5.62-14.57-13.89-14.57-8.57,0-13.7,6.6-13.7,14.38v.19c0,7.79,5.62,14.58,13.89,14.58C1507.69,178.9,1512.81,172.3,1512.81,164.52Z" style="fill:#fff"/>
      <path d="M1536,144.72a7.49,7.49,0,1,1,15,0v.59c3.45-4.43,8-8.47,15.57-8.47,6.9,0,12.12,3,14.87,8.37,4.63-5.41,10.15-8.37,17.34-8.37,11.13,0,17.83,6.7,17.83,19.41v27.48a7.49,7.49,0,1,1-15,0V161.17c0-7.09-3.15-10.74-8.77-10.74s-9.06,3.65-9.06,10.74v22.56a7.49,7.49,0,1,1-15,0V161.17c0-7.09-3.16-10.74-8.77-10.74s-9.07,3.65-9.07,10.74v22.56a7.49,7.49,0,1,1-15,0Z" style="fill:#fff"/>
      <path d="M1634.48,174.27a8.3,8.3,0,0,1,8.57,8.38v.19a8.57,8.57,0,0,1-17.14,0v-.19A8.29,8.29,0,0,1,1634.48,174.27Z" style="fill:none;stroke:#00c6ff;stroke-miterlimit:10;stroke-width:3px"/>
    </g>
  </g>
</svg>
