<?xml version="1.0" encoding="utf-8"?>
<!-- Generator: Adobe Illustrator 19.1.0, SVG Export Plug-In . SVG Version: 6.00 Build 0)  -->
<svg version="1.1" id="Layer_2" xmlns="http://www.w3.org/2000/svg" xmlns:xlink="http://www.w3.org/1999/xlink" x="0px" y="0px"
	 viewBox="-155 297 300 200" style="enable-background:new -155 297 300 200;" xml:space="preserve">
<style type="text/css">
	.st0{fill:#39BFF0;}
	.st1{fill:#FFFFFF;}
</style>
<g id="Danone_1_">
	<path class="st0" d="M-6.8,437.4h-3.3v7.6c-1-1.5-2.2-3-3.5-4.3c-1.1-1.2-2.4-2.3-3.7-3.3h-2.8v15.4h3.4v-10.6
		c3.3,2.8,5.7,6.5,7,10.6h3L-6.8,437.4z M23.9,437.4h-3.4v7.6c-1-1.5-2.2-3-3.5-4.3c-1.1-1.2-2.4-2.3-3.7-3.3h-2.8v15.4H14v-10.6
		c3.3,2.8,5.7,6.5,6.9,10.6h3L23.9,437.4z M32.1,450.5c-2.2-0.1-3.9-1.9-4-4.1H39c0.1-0.6,0.2-1.2,0.2-1.8c0.1-1.9-0.5-3.8-1.6-5.3
		c-1.3-1.6-3.3-2.5-5.4-2.4c-1.9,0-3.7,0.7-5,2c-3.1,3.6-3.1,9-0.2,12.7c1.4,1.4,3.4,2.1,5.4,1.9c2.6-0.1,5-1.4,6.5-3.5l-3.2-0.7
		C34.7,450.1,33.4,450.6,32.1,450.5 M28.3,443.4c0.3-2,2-3.5,3.9-3.5c1,0,1.9,0.4,2.6,1c0.7,0.7,1.1,1.6,1.2,2.6v0.4h-7.8
		L28.3,443.4z M9.8,445.1c-0.2,4.3-3.9,7.7-8.3,7.4s-7.7-3.9-7.4-8.3c0.2-4.2,3.7-7.4,7.8-7.4C6.4,437,9.9,440.7,9.8,445.1
		 M1.9,439.9c-2.9-0.3-5.5,1.8-5.8,4.7c-0.3,2.9,1.8,5.5,4.7,5.8c2.9,0.3,5.5-1.8,5.8-4.7c0-0.2,0-0.4,0-0.5
		C6.8,442.4,4.7,440.1,1.9,439.9 M-44.3,436.9c-1.5,0-3.1,0.1-4.6,0.4c0.2,0.6,0.3,2.1,0.3,7.9s-0.1,7.4-0.2,7.9
		c1.3,0.3,2.7,0.4,4,0.4c3.4,0,9.6-1.5,9.8-8.5C-35,437.7-41.4,436.9-44.3,436.9 M-44.3,450.4c-0.3,0-0.7,0-1,0v-10.5
		c0.4,0,0.8,0,1.3,0c1.7,0,5.8,0.7,5.8,5.3S-42.3,450.5-44.3,450.4 M-26.5,437.4h-3.3c-3.6,3.9-5.4,9.8-5.9,15.5h3.4
		c0.1-1.1,0.3-2.3,0.4-3.4h7.2c0.2,1.1,0.3,2.2,0.4,3.4h3.5C-21.1,447.3-22.9,441.3-26.5,437.4 M-31.1,446.6
		c0.6-2.3,1.6-4.5,2.9-6.5c1.3,2,2.3,4.2,2.9,6.5H-31.1z"/>
	<path class="st1" d="M-5.9,340.5c-0.2,0-0.4,0.1-0.5,0.3h-0.2h-0.1l0,0h-0.2c-0.1,0-0.3,0-0.4,0h-0.1c0,0-0.1,0-0.1,0
		c-0.1,0-0.3,0-0.4-0.1c-0.1,0-0.3-0.1-0.4-0.1l-0.8,0.1c-0.2,0.1-0.3,0.1-0.5,0.3H-10c-0.1-0.1-0.1-0.1-0.1-0.1s-0.1,0.1-0.1,0.1
		h-0.3c-0.1,0-0.3,0.1-0.4,0.1c-0.1,0-0.2,0.1-0.3,0.1c-0.1,0-0.1-0.1-0.2-0.1c-0.1,0-0.1,0-0.1,0.1h-0.1h-0.3
		c-0.1-0.1-0.2-0.2-0.2-0.1h-0.1c-0.1,0-0.1,0-0.2,0c-0.3,0.1-0.5,0.2-0.7,0.3l0,0c-0.1,0-0.2,0-0.4,0c-0.1,0-0.1,0-0.2,0
		c-0.1,0-0.1,0-0.2,0c-0.1,0-0.2,0.1-0.3,0.1h-0.1l0,0c-0.2,0-0.4,0.1-0.6,0.2c-0.1,0-0.2,0-0.3,0.1c0,0-0.1,0-0.1,0
		c0,0-0.1,0-0.1,0.1c-0.3,0-0.6,0.1-0.9,0.2c-0.1-0.1-0.2-0.1-0.4-0.1c-0.1,0-0.2,0.1-0.2,0.2c-0.1,0-0.1,0-0.2,0
		c-0.1,0-0.1,0.1-0.1,0.1l-0.3,0.1c-0.1,0.1-0.3,0.1-0.4,0.1c-0.1,0-0.1,0-0.2,0.1l0,0c-0.1,0-0.2,0-0.4,0s-0.1,0.1-0.1,0.2
		c-0.2,0.1-0.3,0.2-0.4,0.3l0,0c-0.1,0-0.1,0-0.2,0c-0.1,0-0.1,0.1-0.2,0.2l-0.2,0.1l0,0h-0.1l0,0l-0.2,0.1h-0.1
		c-0.1,0-0.2-0.1-0.3-0.1s-0.2,0.2-0.3,0.2c-0.1,0-0.2,0.1-0.3,0.2c-0.1,0-0.3,0-0.4,0.1c-0.1,0-0.2,0.2-0.3,0.2c-0.1,0-0.1,0-0.2,0
		c-0.1,0-0.1,0-0.2,0c0,0-0.1,0.1-0.1,0.1c-0.1,0-0.2,0-0.3,0c-0.3,0.1-0.6,0.1-0.8,0.2c-0.1,0.1-0.2,0.2-0.3,0.4h-0.1
		c-0.1,0-0.1,0-0.2,0s-0.2-0.1-0.2,0c-0.1,0.1-0.2,0.2-0.3,0.3l-0.1,0.1c-0.1-0.1-0.3-0.1-0.4-0.1c-0.3,0.1-0.5,0.3-0.7,0.5
		s-0.4,0.4-0.7,0.5c-0.1,0.1-0.2,0.2-0.3,0.4c-0.1,0-0.2-0.1-0.3-0.1s-0.1,0.3-0.2,0.4s-0.2,0.1-0.3,0.1s-0.3,0-0.4,0.1
		c-0.1,0.1-0.2,0.1-0.3,0.1s-0.2,0.2-0.3,0.2l-0.1,0.1c-0.2,0.1-0.6,0-0.8,0.1s-0.3,0.5-0.6,0.7s-0.6,0.2-0.8,0.3
		c-0.2,0.2-0.3,0.4-0.4,0.6c-0.1,0-0.1,0-0.2,0.1c-0.1,0.1-0.1,0.1-0.1,0.2l-0.2,0.2c-0.1,0-0.1,0.1-0.2,0.1
		c-0.1,0.1-0.3,0.1-0.3,0.1c-0.1,0.1-0.1,0.2-0.2,0.3l-0.2,0.2c-0.2,0.2-0.6,0.1-0.8,0.2c-0.2,0.2-0.4,0.4-0.6,0.6
		c-0.1,0.1-0.2,0.2-0.2,0.4c-0.1,0-0.2-0.1-0.3,0c0,0.1-0.1,0.3-0.2,0.4s-0.1,0.2-0.2,0.3h-0.1l-0.1,0.2l0,0c0,0-0.1,0-0.1,0.1
		l-0.1,0.1c-0.1,0-0.1,0-0.2,0c-0.1,0.1-0.2,0.1-0.3,0.2c0,0,0,0.1,0,0.1h-0.1c-0.1,0.1-0.1,0.2-0.1,0.3l-0.2,0.1
		c0,0-0.1,0.1-0.1,0.1c-0.1,0.1-0.2,0.1-0.3,0.2c-0.1,0-0.2,0-0.3,0s0,0.1,0,0.2c0,0-0.1,0.1-0.1,0.1l-0.1-0.1
		c0,0.1-0.1,0.1-0.1,0.1c0,0,0,0.1,0,0.1l0,0c0,0.1,0,0.1,0,0.2l0,0c-0.1,0-0.3,0.1-0.4,0.1v0.1c0,0,0,0-0.1,0s-0.2,0.2-0.3,0.3
		s0,0.3-0.1,0.4s-0.1,0.3-0.2,0.3c0,0,0,0,0,0.1c-0.1,0.1-0.2,0.2-0.3,0.3c-0.1,0.1-0.1,0.1-0.1,0.2l0,0h-0.1l0,0
		c-0.1,0-0.2,0-0.2,0.1c0,0.1-0.3,0.1-0.3,0.2c-0.1,0.1,0,0.3,0,0.4l-0.2,0.1c-0.1,0-0.2,0-0.2,0.1c0,0,0,0.1,0,0.1
		c-0.1,0.1-0.1,0.2-0.1,0.3c-0.1,0-0.3,0-0.3,0.1c0,0.1-0.1,0.2-0.1,0.3c-0.1,0.1,0,0.2,0,0.3l-0.3,0.2c0,0-0.1,0-0.1,0.1
		c-0.1,0.1-0.3,0.1-0.3,0.2c0,0,0,0,0,0.1c-0.1,0.1-0.2,0.1-0.3,0.3c-0.2,0.2-0.4,0.4-0.5,0.7c-0.1,0.1-0.1,0.3-0.1,0.4
		c0,0,0,0-0.1,0c-0.1,0.1-0.1,0.3-0.1,0.3c-0.1,0.1-0.1,0.2-0.2,0.3c-0.1,0.1,0,0.3,0,0.4l0,0c-0.1,0.1-0.2,0.2-0.3,0.3l-0.1,0.1
		c-0.2,0-0.4,0.1-0.5,0.2c0,0.1,0,0.2,0,0.4c-0.2,0.3-0.4,0.7-0.6,1c-0.1,0-0.1,0.1-0.2,0.2c-0.1,0.3-0.2,0.5-0.3,0.8
		c0,0.1-0.1,0.2-0.1,0.3c0,0-0.1,0-0.1,0.1c0,0.1-0.1,0.2-0.1,0.3c0,0.1,0,0.1,0,0.2c-0.2,0.2-0.4,0.4-0.5,0.7c0,0.1,0,0.1,0,0.2
		l-0.1,0.3c0,0,0,0.1,0,0.1l-0.1,0.2c0,0.1,0,0.2,0,0.3l-0.1,0.2c-0.1,0-0.1,0-0.2,0.1c0,0,0,0.1,0,0.1c-0.1,0.1-0.2,0.2-0.2,0.3
		c-0.2,0.2-0.2,0.3-0.2,0.6c0,0.2-0.1,0.3-0.1,0.5c-0.1,0.1-0.2,0.1-0.2,0.2c-0.1,0.3-0.2,0.5-0.3,0.8c0,0.1-0.1,0.2-0.1,0.3
		c0,0-0.1,0.1-0.1,0.1c0,0.1-0.1,0.2-0.1,0.3c0,0.1,0.1,0.3,0.1,0.4c0,0.1-0.2,0.2-0.3,0.3c0,0.1,0,0.3,0,0.4c0,0.1-0.2,0.2-0.3,0.3
		s0.2,0.3,0.1,0.4c0,0.1-0.3,0.2-0.3,0.3s0,0.2-0.1,0.3c0,0.1,0,0.1,0,0.2c-0.2,0.2-0.3,0.4-0.3,0.7c0,0.1-0.1,0.3-0.1,0.4
		c-0.1,0.1-0.1,0.2-0.2,0.3c0,0.1,0,0.2,0,0.3v0.2c0,0.3-0.1,0.6-0.1,0.9c0,0,0,0.1,0,0.1c0,0.1-0.1,0.2-0.1,0.2c0,0,0,0.1,0,0.1
		l0,0c0,0,0,0,0,0.1l0,0c0.1,0.2,0.1,0.4,0,0.6c0,0.1-0.1,0.2-0.1,0.3c-0.1,0-0.1,0.1-0.1,0.1c0,0,0,0.1,0,0.1
		c-0.1,0.1-0.2,0.2-0.3,0.3c0,0.3,0,0.6-0.1,0.9s0.1,0.3,0.2,0.5c0.1,0.2,0,0.2,0,0.3c0,0.1,0,0.1,0,0.2l0,0c0,0,0,0.1,0,0.1
		l-0.2,0.3c-0.1,0-0.1,0.1-0.1,0.1c0,0,0,0,0,0.1v0.1c0,0.3,0.1,0.6,0.1,0.9c0,0.2-0.1,0.4-0.2,0.6L-49,382c0,0,0,0.1,0.1,0.1
		c0,0.3-0.1,0.5-0.1,0.8c0,0.3,0,0.6,0,0.8l0,0c0,0,0,0.2-0.1,0.3c0,0.2,0,0.3,0,0.5c0,0.1,0.1,0.3,0.1,0.3c0,0.1,0,0.2,0,0.3v0.2
		c0,0.3,0,0.6,0,0.8s0.1,0.5,0.1,0.8c0,0-0.1,0.1-0.1,0.1s0,0.1,0.1,0.1c0.1,0.2,0.1,0.4,0.2,0.6c0,0.3-0.1,0.6-0.1,0.9v0.1
		c0,0,0,0,0,0.1c0,0,0.1,0.1,0.1,0.1c0.1,0,0.1,0.2,0.2,0.3c0,0,0,0.1,0,0.1l0,0c0,0.1,0,0.1,0,0.2c0,0.1,0,0.2,0,0.3
		c-0.1,0.1-0.2,0.3-0.2,0.5c0,0.3,0.2,0.1,0.3,0.4c0,0.1,0,0.2,0,0.4c0,0.1,0,0.3,0,0.4v0.3c0,0,0,0.1,0,0.1c0,0,0,0.1,0,0.1
		c0,0.1,0.1,0.1,0.1,0.2c0,0.1,0,0.2,0,0.3c0,0.1,0,0.1,0,0.1c0,0.1,0,0.1,0,0.2c0,0,0,0.1,0.1,0.1c0,0.2,0,0.4,0.1,0.6
		c0,0.1,0,0.1,0,0.2c0.1,0.3,0.1,0.6,0.2,0.8c0.1,0.3,0.3,0.5,0.4,0.8c0.1,0.2,0.2,0.4,0.3,0.6c0,0.1-0.2,0.3-0.2,0.4
		c0,0.1,0.3,0.2,0.3,0.3c0,0.1,0,0.2,0.1,0.3s0.1,0.2,0.1,0.3s-0.1,0.3-0.1,0.4c0,0.1,0,0.3,0,0.4c0,0.1,0.3,0.2,0.3,0.3
		c0,0.1,0,0.2,0,0.3c0.1,0.3,0,0.6,0,0.9c0.1,0.1,0.1,0.2,0.2,0.2l0,0c0,0.1,0.1,0.2,0.1,0.3c0.1,0.1,0.1,0.1,0.2,0.1
		c0,0.1,0,0.1,0,0.2c0,0.1,0.1,0.2,0.1,0.3c0,0.1,0,0.3,0,0.4c0.1,0.1,0.2,0.2,0.3,0.3c0.1,0.3,0.2,0.5,0.3,0.8v0.1c0,0,0,0.1,0,0.1
		c0,0.1,0,0.2,0,0.3c0.1,0.3,0.4,0.5,0.5,0.7c0,0,0.1,0.1,0.1,0.1c0,0.1,0,0.1,0,0.2c0.1,0.1,0.1,0.2,0.2,0.3c0,0.1,0.2,0.2,0.3,0.3
		v0.1l0,0c0,0.1,0.1,0.2,0.1,0.2c0,0.1,0,0.2,0.1,0.3c0.1,0.3,0.1,0.6,0.2,0.8s0.3,0.2,0.6,0.3c0.1,0.2,0.2,0.3,0.3,0.5l0.1,0.1
		c0,0.1,0,0.1,0,0.2l0.2,0.3l0.2,0.3c0.1,0.1,0,0.3,0.1,0.4s0.2,0.2,0.2,0.3c0,0,0.1,0.1,0.2,0.1c0.1,0.1,0.2,0.2,0.3,0.3
		c0,0.1-0.1,0.2-0.1,0.3s0.1,0.1,0.2,0.1c0,0.2,0,0.4,0.1,0.6c0.1,0.2,0.3,0.3,0.5,0.5l0,0l0.1,0.1l0,0c0,0,0.1,0.1,0.1,0.1
		c0,0.1,0,0.2,0,0.3c0.1,0.3,0.4,0.5,0.6,0.8c0.1,0.3,0.3,0.5,0.4,0.7l0,0l0.1,0.1l0.1,0.1v0.1c0.1,0.1,0.2,0.2,0.3,0.3
		c0.1,0.1,0.3,0.3,0.5,0.4c0.2,0.1,0.3,0.3,0.4,0.5c0.2,0.3,0.5,0.6,0.8,0.8c0.2,0.2,0.4,0.3,0.6,0.5c0.2,0.2,0.4,0.3,0.5,0.6
		c0,0.1,0,0.2,0,0.2c0.1,0.1,0.3,0.2,0.3,0.4l0.3,0.2l0,0c0.1,0.1,0.1,0.1,0.2,0.1h0.1c0.1,0.1,0.1,0.2,0.2,0.3
		c0.2,0.1,0.3,0.2,0.5,0.4l0,0c0,0,0,0.2,0,0.2c0,0,0.2,0.1,0.3,0.2l0.1,0.1l0.3,0.3c0,0,0,0.1,0,0.1c0.1,0.1,0.4,0.3,0.7,0.5
		c0.1,0.1,0.2,0,0.3,0.1c0.5,0.3,1.1,0.6,1.7,0.8l0.2,0.1c0,0.1,0.3,0.2,0.4,0.3c0.1,0.1,0.3,0.2,0.3,0.2c0,0,0.2,0.2,0.3,0.2
		c0.1,0.2,0.3,0.3,0.4,0.4c0.2,0.2,0.5,0.1,0.7,0.2s0.4,0.5,0.6,0.6c0.2,0.1,0.4,0.2,0.6,0.3l0.1,0.1c0.1,0.1,0.2,0.2,0.3,0.2
		c0.1,0.1,0.2,0.1,0.3,0.1c0.1,0.1,0.3,0,0.3,0.1c0.1,0.1,0.2,0.1,0.3,0.1s0.1,0.2,0.3,0.3c0.1,0.1,0.1,0.1,0.2,0.1
		c0.1,0.1,0.2,0.3,0.3,0.4c0.3,0.1,0.4,0.2,0.7,0.3s0.3,0.2,0.5,0.4c0.1,0.1,0.3,0.2,0.5,0.2l0.1,0.1c0.1,0,0.2,0.2,0.3,0.3
		c0.1,0,0.1,0,0.2,0s0.2-0.1,0.2,0h0.1c0.1,0.2,0.1,0.3,0.3,0.4s0.6,0.1,0.8,0.2c0.1,0,0.2,0,0.3,0c0,0.1,0.1,0.1,0.2,0.1
		c0.1,0,0.1,0.1,0.2,0.1s0,0.1,0,0.1s0.2,0.2,0.3,0.2c0.1,0,0.2,0,0.4,0.1s0.2,0.1,0.3,0.2s0.2,0.2,0.3,0.2c0.1,0,0.2,0,0.3-0.1h0.1
		l0.2,0.1l0,0h0.1l0,0h0.1c0.1,0.1,0.1,0.2,0.2,0.2c0.1,0,0.1,0,0.2,0l0,0c0.1,0.1,0.2,0.1,0.3,0.1c0,0.1,0.1,0.2,0.1,0.2
		s0.2,0,0.4,0.1l0,0c0.1,0,0.1,0.1,0.2,0.1c0.1,0,0.3,0.1,0.4,0.1l0.3,0.1c0,0.1,0.1,0.1,0.1,0.1h0.2c0.1,0.1,0.1,0.1,0.2,0.2
		c0.1,0,0.3,0,0.4-0.1c0.3,0.1,0.6,0.1,0.9,0.2c0,0,0.1,0,0.1,0.1h0.1l0.3,0.1c0.2,0.1,0.4,0.1,0.6,0.2l0,0h0.1
		c0.1,0,0.2,0.1,0.3,0.1c0.1,0,0.1,0,0.2,0c0.1,0,0.1,0,0.2,0c0.1,0,0.2,0,0.4,0l0,0c0.3,0.1,0.5,0.3,0.7,0.3c0.1,0,0.1,0,0.2,0h0.1
		c0.1,0,0.1-0.1,0.2-0.1h0.3h0.1c0,0,0.1,0.1,0.1,0.1c0.1,0,0.1,0,0.2,0c0.1,0,0.2,0,0.3,0.1c0.1,0.1,0.2,0.1,0.4,0.1l0.3,0
		c0,0.1,0.1,0.1,0.1,0.1s0.1,0,0.1-0.1l0.3,0c0.1,0.1,0.3,0.2,0.5,0.3c0.3,0,0.6,0.1,0.8,0.1c0.1,0,0.3,0,0.4-0.1
		c0.1,0,0.3-0.1,0.4-0.1c0,0,0.1,0,0.1,0h0.1c0.1,0,0.3,0,0.4,0l0.2,0l0,0h0.1h0.1H-7c0.2,0.1,0.3,0.2,0.5,0.3l0,0
		c0.1,0,0.2,0,0.2-0.1l0,0c0.1,0,0.1-0.1,0.2-0.2l0,0h0.2c0.1,0.1,0.2,0.2,0.3,0.2s0.2-0.2,0.4-0.2h0.1c0.1,0,0.2,0.1,0.3,0.1h0.1
		c0.1,0.1,0.1,0.1,0.2,0.1c0,0,0.1,0,0.1,0c0.1,0.1,0.3,0.1,0.4,0.1h0.1c0,0,0.1,0,0.1,0h0.4c0.1,0,0.2-0.1,0.4-0.1s0.2-0.3,0.3-0.3
		h0.1c0.1,0,0.2,0.3,0.4,0.3H-2c0.1,0,0.2-0.2,0.3-0.2l0.4-0.1h0.2H-1c0.1,0,0.1,0,0.2,0c0.1,0,0.1,0,0.2,0c0.1,0,0.2,0,0.4,0
		s0.1-0.1,0.1-0.1c0.1,0.1,0.2,0.1,0.3,0.1c0.3,0,0.5-0.2,0.8-0.3c0.1,0,0.2,0,0.4,0c0,0,0.1,0.1,0.1,0.1h0.1c0.1,0,0.2,0,0.3,0
		c0.1-0.1,0.3-0.2,0.3-0.3c0.1,0,0.2,0.1,0.3,0s0.2-0.1,0.3-0.2s0.1-0.1,0.2-0.2c0.1,0.1,0.3,0.1,0.4,0.1c0.1,0,0.3,0,0.4,0
		c0.1,0,0.3,0,0.4,0c0.3-0.1,0.6-0.1,0.8-0.2c0.3-0.1,0.4-0.4,0.6-0.5c0,0,0.1,0,0.1,0H6c0.3,0,0.6,0.2,0.8,0.2
		c0.2-0.1,0.4-0.3,0.6-0.5c0.1,0,0.2,0,0.3,0c0.1,0,0.1-0.1,0.1-0.1c0.2,0,0.3,0,0.5,0l0,0l0,0l0.1-0.1c0,0,0.1-0.1,0.1-0.1l0,0
		l0.2-0.1l0,0h0.1h0.1l0.2-0.1h0.1c0.1,0,0.2,0.1,0.3,0.1c0.1,0,0.2-0.2,0.3-0.3c0.1,0,0.2-0.1,0.3-0.2c0.1,0,0.3,0,0.4,0
		s0.2-0.2,0.3-0.2c0.1,0,0.1,0,0.2,0c0.1,0,0.1,0,0.2,0c0,0,0.1-0.1,0.1-0.1c0.1,0,0.2,0,0.3,0c0.3-0.1,0.6-0.1,0.8-0.2
		c0.3-0.1,0.2-0.2,0.3-0.4h0.1c0.1,0,0.1,0,0.2,0c0.1,0,0.2,0.1,0.2,0c0.1,0,0.2-0.2,0.3-0.3l0.1-0.1c0.1,0.1,0.3,0.1,0.4,0.1
		c0.3-0.1,0.5-0.3,0.7-0.5s0.4-0.4,0.7-0.5c0.1-0.1,0.2-0.2,0.3-0.4c0.1,0,0.2,0.1,0.3,0.1c0.1,0,0.1-0.3,0.2-0.4s0.2-0.1,0.3-0.1
		s0.3,0,0.4-0.1s0.2-0.1,0.3-0.1s0.2-0.2,0.3-0.2l0.1-0.1c0.2-0.1,0.6,0,0.9-0.1s0.3-0.5,0.6-0.7s0.6-0.1,0.8-0.3s0.3-0.4,0.4-0.6
		c0.1,0,0.1,0,0.2-0.1c0,0,0.1-0.1,0.1-0.2c0-0.1,0.1-0.2,0.2-0.2c0.1,0,0.1-0.1,0.2-0.1c0.1-0.1,0.3-0.1,0.3-0.1s0.1-0.2,0.2-0.3
		l0.2-0.2c0.2-0.2,0.6-0.1,0.8-0.2c0.2-0.2,0.4-0.4,0.6-0.6c0.1-0.1,0.2-0.2,0.2-0.4c0.1,0,0.2,0.1,0.3,0s0.1-0.3,0.1-0.4
		c0.1-0.1,0.1-0.2,0.1-0.3h0.1l0.1-0.2l0,0l0.1-0.1l0.1-0.1c0.1,0,0.1,0,0.2,0c0.1-0.1,0.2-0.1,0.3-0.2c0,0,0-0.1,0.1-0.1h0.1
		c0.1-0.1,0.1-0.2,0.1-0.3c0.1,0,0.1-0.1,0.2-0.2c0,0,0.1-0.1,0.1-0.1l0.3-0.2c0.1,0,0.2,0,0.3,0s0-0.1,0-0.2l0.1-0.1l0,0
		c0,0,0.1-0.1,0.1-0.1c0-0.1,0.1-0.1,0.1-0.2c0,0,0,0,0.1,0c0-0.1,0-0.1,0-0.2l0,0c0.1,0,0.3-0.1,0.4-0.1l0.1-0.1c0,0,0,0,0.1,0
		c0.1-0.1,0.2-0.2,0.2-0.3c0.1-0.1,0.1-0.3,0.1-0.4s0.1-0.2,0.1-0.3c0,0,0,0,0-0.1c0.1-0.1,0.2-0.2,0.3-0.3c0.1-0.1,0.1-0.1,0.1-0.2
		l0,0h0.1l0,0c0.1,0,0.2,0,0.2-0.1c0.1-0.1,0.3-0.1,0.4-0.2s0-0.3,0-0.4l0.2-0.1c0.1,0,0.2,0,0.2-0.1c0,0,0-0.1,0-0.1
		c0.1-0.1,0.1-0.2,0.1-0.4c0.1,0,0.3,0,0.3-0.1s0.1-0.2,0.1-0.3s0-0.2,0-0.3c0.1-0.1,0.2-0.2,0.3-0.2c0,0,0.1,0,0.1-0.1
		c0.1-0.1,0.3-0.1,0.3-0.2c0.1-0.1,0,0,0-0.1c0.1-0.1,0.2-0.1,0.3-0.3c0.2-0.2,0.4-0.4,0.5-0.7c0.1-0.1,0.1-0.3,0.1-0.4
		c0,0,0.1,0,0.1,0c0.1-0.1,0.1-0.3,0.1-0.4c0.1-0.1,0.1-0.2,0.2-0.3s0-0.3,0-0.4l0,0c0.1-0.1,0.2-0.2,0.3-0.3l0.1-0.1
		c0.2,0,0.4-0.1,0.5-0.2c0-0.1,0-0.3,0-0.4c0.2-0.3,0.4-0.6,0.6-1c0.1,0,0.1-0.1,0.2-0.1c0.1-0.3,0.2-0.5,0.4-0.8
		c0-0.1,0.1-0.2,0.1-0.3c0,0,0.1,0,0.1-0.1c0.1-0.1,0.1-0.2,0.1-0.3c0-0.1,0-0.1,0-0.2c0.2-0.2,0.4-0.4,0.5-0.7c0-0.1,0-0.1,0-0.2
		c0-0.1,0.1-0.2,0.1-0.3c0-0.1,0-0.1,0-0.1l0.1-0.2c0-0.1,0-0.2,0-0.3c0-0.1,0.1-0.2,0.1-0.2c0.1,0,0.1,0,0.1-0.1c0,0,0-0.1,0-0.1
		c0.1-0.1,0.1-0.2,0.2-0.3c0.2-0.2,0.2-0.4,0.3-0.6c0-0.2,0.1-0.3,0.1-0.5c0.1,0,0.2-0.1,0.2-0.2c0.1-0.3,0.2-0.5,0.3-0.8
		c0-0.1,0.1-0.2,0.1-0.4c0,0,0.1-0.1,0.1-0.1c0-0.1,0.1-0.2,0.1-0.3c0-0.1-0.1-0.3-0.1-0.4c0-0.1,0.2-0.2,0.3-0.3c0-0.1,0-0.3,0-0.4
		s0.2-0.2,0.3-0.3c0-0.1-0.2-0.3-0.1-0.4c0-0.1,0.3-0.2,0.3-0.3s0-0.2,0.1-0.3c0-0.1,0-0.1,0-0.2c0.2-0.2,0.3-0.4,0.4-0.7
		c0-0.1,0.1-0.3,0.1-0.4c0.1-0.1,0.1-0.2,0.2-0.3c0-0.1,0-0.2,0-0.3v-0.2c0-0.3,0-0.6,0-0.9c0,0,0-0.1,0-0.1c0-0.1,0.1-0.2,0.1-0.2
		c0,0,0-0.1,0-0.1l0,0V393l0,0c-0.1-0.2-0.1-0.4,0-0.6c0-0.1,0.1-0.2,0.1-0.3c0.1,0,0.1-0.1,0.1-0.1c0,0,0-0.1,0-0.1
		c0.1-0.1,0.2-0.2,0.3-0.3c0-0.3,0-0.6,0.1-0.8s-0.1-0.3-0.2-0.5s0-0.2,0-0.3c0-0.1,0-0.1,0-0.2l0,0c0,0,0-0.1,0-0.1l0.2-0.3
		c0.1,0,0.1-0.1,0.1-0.1c0,0,0,0,0-0.1V389c0-0.3-0.1-0.6-0.1-0.9c0-0.2,0.1-0.4,0.2-0.6c0,0,0.1-0.1,0.1-0.1c0,0,0-0.1-0.1-0.1
		c0-0.3,0.1-0.5,0.1-0.8c0-0.3,0-0.6,0-0.8c0-0.2-0.1-0.4-0.2-0.6c0,0,0.1-0.1,0.1-0.1c0-0.1,0.1-0.2,0.1-0.4c0,0,0-0.1,0-0.1
		c0.1-0.1,0.2-0.3,0.3-0.5c0-0.2-0.1-0.3-0.2-0.5c0-0.1-0.1-0.2-0.1-0.3s0,0,0,0v-0.1c0,0,0-0.1,0-0.1c0.1-0.2,0.1-0.4,0.2-0.6
		c0-0.1-0.1-0.3-0.1-0.4c0,0,0.1-0.1,0.1-0.1c0-0.1-0.2-0.2-0.2-0.3s0.1-0.2,0.1-0.4s-0.1-0.2-0.2-0.3v-0.4l-0.1-0.5v-0.1
		c0,0,0-0.1,0.1-0.1v-0.1c0.1-0.2,0.1-0.4,0.1-0.6c0-0.1-0.2-0.2-0.3-0.3c0-0.1,0-0.2,0-0.3v-0.1l0,0c0-0.2,0-0.4,0-0.7
		c0-0.1,0-0.1,0-0.2c0,0,0-0.1,0-0.1c0-0.1-0.1-0.1-0.1-0.2c0-0.1,0-0.2-0.1-0.3c0,0,0-0.1,0-0.1c0-0.1,0-0.1,0-0.2
		c0,0,0-0.1-0.1-0.1c0-0.2-0.1-0.4-0.1-0.6c0-0.1,0-0.1,0-0.2c-0.1-0.3-0.1-0.6-0.2-0.8c-0.1-0.3-0.4-0.5-0.4-0.8
		c-0.1-0.2-0.2-0.4-0.3-0.6c0-0.1,0.2-0.3,0.2-0.4c0-0.1-0.3-0.2-0.3-0.3s0-0.2-0.1-0.3c0-0.1-0.1-0.2-0.1-0.3
		c0-0.1,0.1-0.3,0.1-0.4c0-0.1,0-0.3-0.1-0.4s-0.3-0.2-0.3-0.3c0-0.1,0-0.2,0-0.3c-0.1-0.3,0.1-0.6,0-0.9c-0.1-0.1-0.1-0.2-0.2-0.2
		l-0.1-0.3c0,0-0.1-0.1-0.2-0.1c0-0.1,0-0.1-0.1-0.2c0-0.1-0.1-0.2-0.1-0.3c0-0.1,0-0.3,0-0.4c-0.1-0.1-0.2-0.2-0.3-0.3
		c-0.1-0.3-0.2-0.5-0.3-0.8v-0.1c0,0,0-0.1,0-0.1c0-0.1,0-0.2,0-0.3c-0.1-0.3-0.4-0.5-0.5-0.7c0,0-0.1-0.1-0.1-0.1
		c0-0.1,0-0.1,0-0.2c0-0.1-0.1-0.2-0.2-0.3c0-0.1-0.2-0.2-0.3-0.3c0,0,0-0.1,0-0.1l0,0c0-0.1-0.1-0.2-0.1-0.2c0-0.1,0-0.2-0.1-0.3
		c-0.1-0.3-0.1-0.6-0.2-0.9s-0.3-0.2-0.6-0.3c-0.1-0.2-0.2-0.3-0.3-0.5l-0.1-0.1c0-0.1,0-0.1,0-0.2l-0.2-0.3l-0.2-0.3
		c-0.1-0.1-0.1-0.3-0.1-0.4s-0.1-0.2-0.2-0.3c0,0-0.1-0.1-0.1-0.1c-0.1-0.1-0.2-0.2-0.3-0.3c0-0.1,0.1-0.2,0.1-0.3
		c-0.1,0-0.1-0.1-0.2-0.1c0-0.2,0-0.4-0.1-0.6c-0.1-0.2-0.3-0.3-0.5-0.5l0,0l-0.1-0.1v-0.1c0,0-0.1-0.1-0.1-0.1c0-0.1,0-0.2-0.1-0.3
		c-0.1-0.3-0.4-0.5-0.6-0.8s-0.3-0.5-0.4-0.7l0,0l-0.1-0.1c0,0,0-0.1-0.1-0.1c0,0,0-0.1,0-0.1c-0.1-0.1-0.2-0.2-0.3-0.3
		c-0.1-0.1-0.3-0.3-0.5-0.4c-0.2-0.1-0.3-0.3-0.4-0.5c-0.2-0.3-0.5-0.6-0.8-0.8c-0.2-0.2-0.4-0.3-0.6-0.5c-0.2-0.2-0.4-0.3-0.5-0.6
		s0-0.2,0-0.2c-0.1-0.1-0.3-0.2-0.3-0.4l-0.3-0.2l0,0c-0.1-0.1-0.1-0.1-0.2-0.1l-0.1,0c-0.1-0.1-0.1-0.2-0.2-0.2
		c-0.1-0.1-0.3-0.2-0.5-0.4l0,0c0-0.1,0-0.2,0-0.2c0,0-0.2-0.1-0.3-0.2l-0.1-0.1l-0.3-0.3c-0.1-0.2-0.2-0.4-0.4-0.6
		c-0.2-0.2-0.5-0.3-0.7-0.5c-0.2-0.1-0.3-0.1-0.5-0.1l-0.1-0.1c0-0.1,0-0.1-0.1-0.2c0,0-0.1,0-0.2,0l-0.1-0.1l-0.4-0.3
		c-0.1-0.1-0.1-0.2-0.2-0.3l-0.3-0.2l0,0c0-0.1-0.1-0.2-0.2-0.3l-0.7-0.5c-0.1,0-0.1-0.1-0.2-0.1v-0.1c-0.1-0.1-0.2-0.1-0.3-0.2
		s-0.1,0-0.2,0s-0.2,0-0.2,0l-0.3-0.2c-0.1-0.1-0.1-0.3-0.2-0.4c-0.1-0.1-0.3,0.1-0.4,0.1h-0.1c-0.1-0.2-0.1-0.4-0.3-0.5
		c-0.1,0-0.2,0-0.3,0c-0.1-0.1-0.1-0.2-0.2-0.3c-0.1,0-0.1,0-0.2,0c-0.1,0-0.1,0-0.2,0c-0.1,0-0.1-0.1-0.2-0.2
		c-0.1-0.1-0.1-0.4-0.2-0.5c-0.1-0.1-0.6,0-0.9-0.2c0-0.1-0.1-0.1-0.1-0.1c-0.1-0.1-0.2-0.1-0.3-0.1c0,0-0.1,0-0.1,0l-0.1-0.1
		c-0.3-0.1-0.5-0.3-0.7-0.4c-0.2-0.1-0.3-0.1-0.5-0.1l-0.1-0.1c-0.1,0-0.3,0-0.4-0.1l0,0c0,0-0.1-0.1-0.1-0.1c0-0.1-0.1-0.2-0.1-0.3
		s-0.1-0.3-0.3-0.4c-0.3-0.1-0.6-0.1-0.8-0.2c-0.3-0.1-0.5-0.3-0.8-0.4c-0.3-0.1-0.5-0.2-0.8-0.3c-0.3-0.1-0.4,0-0.7,0.1l0,0
		c0,0-0.1,0-0.1,0H9.3c-0.3-0.1-0.4-0.4-0.7-0.5c-0.2,0-0.4,0-0.6,0c0,0-0.1-0.1-0.1-0.1c-0.1,0-0.2,0-0.3,0
		c-0.2-0.1-0.4-0.4-0.6-0.4s-0.6,0.1-0.8,0.2c0,0-0.1,0-0.1,0H6c-0.2-0.1-0.4-0.5-0.6-0.5s-0.6-0.1-0.8-0.2c-0.1,0-0.3,0-0.4,0
		c-0.1,0-0.3,0-0.4,0c-0.1,0-0.3,0-0.4,0.1C3.1,342.1,3.1,342,3,342s-0.2-0.2-0.3-0.2c-0.1,0-0.2,0-0.3,0c-0.1-0.1-0.2-0.3-0.3-0.3
		c-0.1,0-0.2,0-0.3,0l0,0c-0.1,0-0.1,0-0.1,0.1c-0.1,0-0.2,0-0.4,0c-0.3,0-0.5-0.2-0.8-0.3c-0.1,0-0.2,0-0.3,0.1
		c0-0.1-0.1-0.1-0.1-0.1h-0.4c-0.1,0-0.1,0-0.2,0c-0.1,0-0.1,0-0.2,0H-1c-0.1,0-0.1,0-0.2,0L-1,341c-0.1,0-0.2-0.2-0.3-0.2h-0.4
		c-0.1,0-0.2,0.3-0.4,0.3l0,0c-0.1,0-0.2-0.3-0.3-0.3s-0.2-0.1-0.4-0.1h-0.4c0,0-0.1,0-0.1,0c0,0-0.1,0-0.1,0c-0.1,0-0.3,0-0.4,0.1
		c0,0-0.1,0-0.1,0c-0.1,0-0.1,0.1-0.2,0.1h-0.1c-0.1,0-0.2,0-0.3,0.1h-0.1c-0.1,0-0.2-0.2-0.4-0.2s-0.2,0.1-0.3,0.2h-0.2l0,0
		c-0.1-0.1-0.1-0.2-0.2-0.2l0,0c-0.1,0-0.1-0.1-0.2-0.1L-5.9,340.5z"/>
	<path class="st0" d="M-5.9,341.6c-0.2,0-0.4,0.1-0.5,0.2h-0.1h-0.1h-0.1l0,0h-0.2c-0.1,0-0.3,0-0.4,0h-0.1h-0.2
		c-0.1,0-0.3,0-0.4-0.1c-0.1,0-0.3-0.1-0.4-0.1l-0.8,0.1c-0.2,0.1-0.3,0.2-0.5,0.3h-0.3c0,0-0.1-0.1-0.1-0.1c0,0-0.1,0.1-0.1,0.1
		h-0.3c-0.1,0-0.3,0.1-0.4,0.1c-0.1,0-0.2,0.1-0.3,0.1c-0.1,0-0.1,0-0.2,0c-0.1,0-0.1,0-0.1,0.1h-0.1h-0.3c-0.1-0.1-0.2-0.2-0.2-0.1
		c-0.1,0,0,0-0.1,0c-0.1,0-0.1-0.1-0.2-0.1c-0.3,0.1-0.5,0.3-0.7,0.3l0,0c-0.1,0-0.2,0-0.4,0c-0.1,0-0.1,0-0.2,0c-0.1,0-0.1,0-0.2,0
		c-0.1,0-0.2,0.1-0.3,0.1s-0.1,0-0.1,0l0,0c-0.2,0-0.4,0.1-0.6,0.2l-0.3,0.1c0,0-0.1,0-0.1,0s-0.1,0-0.1,0.1
		c-0.3,0.1-0.6,0.1-0.9,0.2c-0.1-0.1-0.2-0.1-0.4-0.1c-0.1,0-0.2,0.1-0.2,0.2c-0.1,0-0.1,0-0.2,0c-0.1,0-0.1,0.1-0.1,0.1l-0.3,0.1
		c-0.1,0.1-0.3,0.1-0.4,0.1c-0.1,0-0.1,0-0.2,0.1l0,0c-0.1,0-0.2,0-0.4,0.1c-0.1,0-0.1,0.1-0.1,0.2c-0.1,0-0.2,0.1-0.3,0.1l0,0
		c-0.1,0-0.1,0-0.2,0c-0.1,0-0.1,0.1-0.2,0.2h-0.2l0,0h-0.1h-0.1l-0.2,0.1h-0.1c-0.1,0-0.2-0.1-0.3-0.1s-0.2,0.2-0.3,0.3
		s-0.2,0.1-0.3,0.2c-0.1,0-0.3,0-0.4,0.1c-0.1,0.1-0.2,0.2-0.3,0.2c-0.1,0-0.1,0-0.2,0c-0.1,0-0.1,0-0.2,0c-0.1,0-0.1,0.1-0.1,0.1
		c-0.1,0-0.2,0-0.3,0c-0.3,0.1-0.6,0.1-0.8,0.2c-0.1,0.1-0.2,0.2-0.3,0.4h-0.1c-0.1,0-0.1,0-0.2,0c-0.1,0-0.1-0.1-0.2,0
		c-0.1,0-0.2,0.2-0.3,0.3l-0.1,0.1c-0.2-0.1-0.3-0.1-0.4-0.1s-0.5,0.3-0.7,0.5s-0.4,0.4-0.7,0.5c-0.1,0.1-0.2,0.2-0.3,0.4
		c-0.1,0-0.2-0.1-0.3-0.1c-0.1,0-0.1,0.3-0.2,0.4s-0.2,0.1-0.3,0.1s-0.3,0-0.3,0.1c-0.1,0.1-0.2,0.1-0.3,0.1s-0.2,0.2-0.3,0.2
		l-0.1,0.1c-0.2,0.1-0.6,0-0.8,0.1c-0.2,0.1-0.3,0.5-0.6,0.7c-0.2,0.2-0.6,0.1-0.8,0.3s-0.3,0.4-0.4,0.6c-0.1,0-0.1,0.1-0.2,0.1
		c-0.1,0-0.1,0.1-0.1,0.2l-0.2,0.2l-0.2,0.1c-0.1,0.1-0.3,0.1-0.3,0.1s-0.1,0.2-0.2,0.3c-0.1,0-0.1,0.1-0.2,0.2
		c-0.2,0.1-0.6,0.1-0.8,0.2s-0.4,0.4-0.6,0.6c-0.1,0.1-0.2,0.2-0.2,0.4c-0.1,0-0.2-0.1-0.3,0s-0.1,0.3-0.2,0.4
		c-0.1,0.1-0.1,0.2-0.2,0.3h-0.1l-0.1,0.2l0,0l-0.1,0.1l-0.1,0.1c-0.1,0-0.1,0-0.2,0.1c-0.1,0.1-0.2,0.1-0.3,0.2c0,0,0,0.1,0,0.1
		l0,0c-0.1,0.1-0.1,0.2-0.1,0.3l-0.2,0.1l-0.1,0.1c-0.1,0.1-0.2,0.1-0.3,0.2c-0.1,0-0.2,0-0.3,0s0,0.1,0,0.2l-0.1,0.1l-0.1-0.1
		c0,0.1-0.1,0.1-0.1,0.1c0,0,0,0.1,0,0.1h-0.1c0,0,0,0.1,0,0.2c0,0.1,0,0,0,0c-0.1,0-0.3,0.1-0.4,0.1v0.1l0,0l-0.3,0.3
		c-0.1,0.1-0.1,0.3-0.1,0.4s-0.1,0.2-0.2,0.3c0,0,0,0,0,0.1l-0.3,0.3c-0.1,0.1-0.1,0.1-0.1,0.2l0,0l-0.1,0.1l0,0
		c-0.1,0-0.2,0-0.2,0.1c-0.1,0.1-0.3,0.1-0.3,0.2s0,0.3,0,0.4l-0.2,0.1c-0.1,0-0.1,0-0.2,0.1c0,0,0,0.1,0,0.1
		c-0.1,0.1-0.1,0.2-0.1,0.3c-0.1,0-0.3,0-0.3,0.1c0,0.1-0.1,0.2-0.2,0.3s0,0.2,0,0.3c-0.1,0.1-0.2,0.1-0.3,0.2c0,0-0.1,0-0.1,0.1
		c-0.1,0.1-0.3,0.1-0.3,0.2c0,0,0,0.1,0,0.1c-0.1,0.1-0.2,0.1-0.3,0.3c-0.2,0.2-0.4,0.4-0.5,0.7c-0.1,0.1-0.1,0.3-0.1,0.4h-0.1
		c-0.1,0.1,0,0.3-0.1,0.4s-0.1,0.2-0.2,0.3s0,0.3,0,0.4c0,0.1,0,0,0,0c-0.1,0.1-0.2,0.2-0.3,0.3l-0.1,0.1c-0.2,0-0.4,0.1-0.5,0.2
		c-0.1,0.1-0.1,0.3,0,0.4c-0.2,0.3-0.4,0.6-0.6,1c-0.1,0-0.2,0.1-0.2,0.1c-0.1,0.3-0.2,0.5-0.3,0.8c0,0.1-0.1,0.2-0.1,0.3l-0.1,0.1
		c-0.1,0.1-0.1,0.2-0.1,0.3c0,0.1,0,0.1,0,0.2c-0.2,0.2-0.4,0.4-0.5,0.6c0,0.1,0,0.1,0,0.2c-0.1,0.1-0.1,0.2-0.1,0.3
		c0,0,0,0.1,0,0.1l-0.1,0.2c0,0.1,0,0.2,0,0.3c0,0.1-0.1,0.2-0.1,0.2c-0.1,0-0.1,0-0.2,0.1c0,0,0,0.1,0,0.1
		c-0.1,0.1-0.1,0.2-0.2,0.3c-0.2,0.2-0.2,0.3-0.3,0.6c0,0.2-0.1,0.3-0.1,0.5c-0.1,0-0.2,0.1-0.2,0.2c-0.1,0.3-0.2,0.5-0.3,0.8
		c0,0.1-0.1,0.2-0.1,0.4c0,0-0.1,0.1-0.1,0.1c0,0.1-0.1,0.2-0.1,0.3c0,0.1,0.1,0.3,0.1,0.4c0,0.1-0.2,0.2-0.3,0.3c0,0.1,0,0.3,0,0.4
		s-0.2,0.2-0.3,0.3c0,0.1,0.2,0.3,0.2,0.4s-0.3,0.2-0.3,0.3s-0.1,0.2-0.1,0.4c0,0.1,0,0.1,0,0.2c-0.2,0.2-0.3,0.4-0.4,0.7
		c0,0.1-0.1,0.3-0.1,0.4c-0.1,0.1-0.1,0.2-0.2,0.3c0,0.1,0,0.2,0,0.3v0.2c0,0.3-0.1,0.6-0.1,0.9c0,0,0,0.1,0,0.1
		c0,0.1-0.1,0.2-0.1,0.2c0,0,0,0.1,0,0.1l0,0v0.1l0,0c0.1,0.2,0.1,0.4,0,0.6c0,0.1-0.1,0.2-0.1,0.3c0,0.1-0.1,0.1-0.1,0.1
		c0,0,0,0.1,0,0.1c-0.1,0.1-0.2,0.2-0.3,0.3c0,0.3,0,0.6-0.1,0.9c0,0.2,0.1,0.4,0.2,0.5c0,0.1,0,0.2,0,0.3c0,0.1,0,0.1,0,0.2l0,0
		c0,0,0,0.1,0,0.1c-0.1,0.1-0.1,0.2-0.2,0.3s-0.1,0.1-0.1,0.1c0,0,0,0,0,0.1c0,0,0,0.1,0,0.1c0,0.3,0.1,0.6,0.1,0.9
		c-0.2,0.4-0.4,0.8-0.7,1.1c-0.1,0-0.1,0.1-0.1,0.1c0,0,0,0.1,0.1,0.1c0,0.3-0.1,0.5-0.1,0.8s0,0.6,0,0.9l0,0
		c0.4-2.4,1.8-4.5,3.7-5.9c0.6-0.4,0.6-0.3,0.6-0.6c-1-3.9,2.8-9.6,8-12.8c4-2.4,10.2-5.7,15.3-5.7c1.2,0,0.6,0.4-0.2,1.1
		c-0.5,0.5-1,1.1-1.5,1.7c-0.2,0.3-0.5,0.6,0.4,0.3c1.2-0.4,2.3-0.6,3.5-0.9c1.3-0.3,2.6-0.4,3.9-0.3c0.9,0.1,1.4,0.3,1.2,0.5
		c-0.3,0.2-0.6,0.5-0.9,0.7s-0.6,0.5-0.7,0.6c-0.1,0.1-0.2,0.3,0,0.3h0.5c2-0.1,4,0.1,5.9,0.6c2.2,0.5,4.3,1.6,6,3.2
		c0.3,0.3,0.9,0.8,1,1.2c0,0.2,0,0.4-0.5,0.5c-0.4,0.1-0.8,0.2-1.2,0.3c-0.1,0,0,0.2,0.1,0.4c1.3,1.8,3.1,3.8,3.7,7.1
		c0.6,3.8,2.1,5.3,4.5,6.1c1.7,0.6,3.7,0.8,4.6,1.3s1,1.4,0,2.6c-1,1.2-1.5,1.1-0.5,2.2c0.4,0.6,1,1,1.6,1.3c0.3,0.2,0.5,0.6,0.4,1
		c0,0.3-0.1,0.4-0.8,1c-0.8,0.6-1.6,1.2-2.4,1.7c-0.2,0.1-0.2,0.3-0.1,0.3s0.4,0,0.6,0s0.4,0,1.1-0.1c0.6-0.1,1.2,0.2,1.4,0.8
		c0.5,0.7,0.3,0.8,0.1,1.3c-0.6,1.1-0.5,2.5,0.4,3.4c1.1,1.7,2.2,4.3-2.7,6.2c-5.7,2.1-7.5,1.2-10,7.8c-2.1,5.7-3.2,8-0.3,8.8
		c3.2,0.8,6.3,1.8,9.4,3c0.8,0.3,1.5,0.8,2.1,1.4l0,0h0.1c0,0,0.1-0.1,0.1-0.1l0,0l0.2-0.1h0.1l0,0l0.2-0.1h0.1
		c0.1,0.1,0.2,0.1,0.3,0.1s0.2-0.2,0.3-0.2c0.1,0,0.2-0.2,0.3-0.2c0.1,0,0.2,0,0.4,0s0.2-0.2,0.3-0.2c0.1,0,0.1,0,0.2,0
		c0.1,0,0.1,0,0.2,0c0,0,0.1-0.1,0.1-0.1c0.1,0,0.2,0,0.3,0c0.3-0.1,0.6-0.1,0.8-0.2s0.2-0.2,0.3-0.4h0.1c0,0,0.1,0,0.2,0
		s0.2,0.1,0.2,0c0.1,0,0.2-0.2,0.3-0.3l0.1-0.1c0.1,0.1,0.3,0.1,0.4,0.1c0.3-0.1,0.5-0.4,0.7-0.5s0.4-0.4,0.7-0.5
		c0.1-0.1,0.2-0.2,0.3-0.4c0.1,0,0.2,0.1,0.3,0.1c0.1,0,0.1-0.3,0.2-0.4c0.1-0.1,0.2-0.1,0.3-0.1s0.3,0,0.4-0.1
		c0.1-0.1,0.2-0.1,0.3-0.1s0.2-0.2,0.3-0.2l0.1-0.1c0.3-0.1,0.6,0,0.9-0.1s0.3-0.5,0.6-0.7s0.6-0.1,0.8-0.3c0.2-0.2,0.3-0.4,0.4-0.6
		c0.1,0,0.1,0,0.2-0.1c0-0.1,0.1-0.1,0.1-0.2c0.1-0.1,0.1-0.2,0.2-0.3l0.2-0.1c0.1-0.1,0.3-0.1,0.3-0.1c0.1-0.1,0.1-0.2,0.2-0.3
		l0.2-0.2c0.2-0.1,0.6-0.1,0.8-0.3s0.4-0.4,0.6-0.6c0.1-0.1,0.2-0.2,0.2-0.4c0.1,0,0.2,0.1,0.3,0c0-0.1,0.1-0.3,0.2-0.4
		c0.1-0.1,0.1-0.2,0.1-0.3h0.1l0.1-0.2l0,0c0,0,0,0,0.1-0.1l0.1-0.1c0,0,0.1,0,0.1,0c0.1-0.1,0.2-0.1,0.3-0.2c0,0,0-0.1,0-0.1h0.1
		c0.1-0.1,0.1-0.2,0.1-0.3l0.2-0.1l0.1-0.1c0.1-0.1,0.2-0.1,0.3-0.2c0.1,0,0.3,0,0.3,0s0-0.1,0-0.2l0.1-0.1l0,0c0,0,0.1-0.1,0.1-0.1
		l0.1-0.2c0,0,0,0,0.1,0s0-0.1,0-0.2l0,0c0.1,0,0.3-0.1,0.4-0.1l0.1-0.1c0,0,0,0,0.1,0s0.2-0.2,0.3-0.3s0-0.3,0.1-0.4
		c0.1-0.1,0.1-0.3,0.2-0.3V415l0.3-0.3c0.1-0.1,0.1-0.1,0.1-0.2l0,0h0.1l0,0c0.1,0,0.2,0,0.2-0.1c0.1-0.1,0.3-0.1,0.3-0.2
		s0-0.3,0-0.4l0.2-0.1c0.1,0,0.1,0,0.2-0.1c0,0,0-0.1,0-0.2c0.1-0.1,0.1-0.2,0.1-0.3c0.1,0,0.3,0,0.3-0.1s0.1-0.2,0.1-0.3
		c0-0.1,0-0.2,0-0.3c0.1-0.1,0.2-0.1,0.3-0.2c0,0,0.1,0,0.1-0.1c0.1-0.1,0.3-0.1,0.3-0.2c0,0,0,0,0-0.1c0.1-0.1,0.2-0.1,0.3-0.3
		c0.2-0.2,0.4-0.4,0.5-0.7c0.1-0.1,0.1-0.3,0.1-0.4c0,0,0.1,0,0.1-0.1c0.1-0.1,0.1-0.2,0.1-0.3s0.1-0.2,0.2-0.3c0.1-0.1,0-0.3,0-0.4
		l0,0c0.1-0.1,0.2-0.2,0.3-0.3c0,0,0.1,0,0.1-0.1c0.2,0,0.4-0.1,0.5-0.2c0-0.1,0-0.3,0-0.4c0.2-0.3,0.4-0.6,0.6-1
		c0.1,0,0.2-0.1,0.2-0.2c0.1-0.2,0.2-0.5,0.4-0.8c0-0.1,0.1-0.2,0.1-0.3c0,0,0.1-0.1,0.1-0.1c0.1-0.1,0.1-0.2,0.1-0.3
		c0.1-0.1,0-0.1,0-0.2c0.2-0.2,0.4-0.4,0.5-0.6c0-0.1,0-0.1,0-0.2l0.1-0.3c0,0,0-0.1,0-0.1l0.1-0.2c0-0.1,0-0.2,0-0.3
		c0-0.1,0.1-0.1,0.1-0.2c0.1-0.1,0.1,0,0.1-0.1c0,0,0-0.1,0-0.1c0.1-0.1,0.1-0.2,0.2-0.3c0.2-0.2,0.2-0.3,0.2-0.6s0.1-0.3,0.1-0.5
		c0.1-0.1,0.2-0.1,0.2-0.2c0.1-0.3,0.2-0.5,0.3-0.8c0-0.1,0.1-0.2,0.1-0.3c0,0,0.1-0.1,0.1-0.2c0-0.1,0.1-0.2,0.1-0.3
		c0-0.1-0.1-0.3-0.1-0.4c0-0.1,0.2-0.2,0.3-0.3s0-0.3,0-0.4c0-0.1,0.2-0.2,0.3-0.3s-0.2-0.3-0.1-0.4s0.3-0.2,0.3-0.3s0-0.2,0.1-0.4
		c0-0.1,0-0.1,0-0.2c0.2-0.2,0.3-0.4,0.4-0.7c0-0.1,0.1-0.3,0.1-0.4c0.1-0.1,0.1-0.2,0.2-0.3c0-0.1,0-0.2,0-0.3v-0.2
		c0-0.3,0-0.6,0-0.9c0,0,0-0.1,0-0.1c0-0.1,0.1-0.1,0.1-0.2V394l0,0c0,0,0,0,0-0.1l0,0c-0.1-0.2-0.1-0.4,0-0.6l0.1-0.3
		c0.1,0,0.1-0.1,0.1-0.1c0,0,0-0.1,0-0.1c0.1-0.1,0.2-0.2,0.3-0.4c0-0.3,0-0.6,0.1-0.8c0-0.2-0.1-0.4-0.2-0.5c0-0.1,0-0.2,0-0.3
		c0-0.1,0-0.1,0-0.2l0,0c0,0,0-0.1,0-0.1s0.1-0.2,0.2-0.3c0.1-0.1,0.1-0.1,0.1-0.1c0,0,0,0,0-0.1c0,0,0-0.1,0-0.1
		c0-0.3-0.1-0.6-0.1-0.9c0-0.2,0.1-0.4,0.2-0.6c0,0,0.1-0.1,0.1-0.1c0,0,0-0.1-0.1-0.1c0-0.3,0.1-0.5,0.1-0.8c0-0.3,0-0.6,0-0.8
		c0-0.2-0.1-0.4-0.2-0.6c0,0,0-0.1,0-0.1c0-0.1,0.1-0.2,0.1-0.4c0-0.1,0-0.1-0.1-0.1c0.1-0.2,0.2-0.3,0.3-0.5c0-0.2-0.1-0.3-0.2-0.4
		c0-0.1-0.1-0.2-0.1-0.3l0,0V384c0,0,0-0.1,0-0.1c0.1-0.2,0.1-0.4,0.2-0.6c0-0.1-0.1-0.3-0.1-0.4c0,0,0.1-0.1,0.1-0.1
		c0-0.1-0.2-0.2-0.2-0.3s0.1-0.3,0.1-0.4s-0.1-0.2-0.2-0.3c0-0.1,0-0.3,0-0.4c0-0.2-0.1-0.3-0.1-0.5c0,0,0-0.1,0-0.1l0,0
		c0,0,0-0.1,0-0.1c0,0,0-0.1,0-0.1c0.1-0.2,0.1-0.4,0.1-0.6c0-0.1-0.2-0.2-0.3-0.3v-0.3c0,0,0,0,0-0.1l0,0c0-0.2,0-0.5,0-0.7
		c0,0,0-0.1-0.1-0.1c0,0,0-0.1,0-0.1c0-0.1-0.1-0.1-0.1-0.2c0-0.1,0-0.2-0.1-0.3c0,0,0-0.1,0-0.1c0-0.1,0-0.1,0-0.2c0,0,0,0-0.1-0.1
		l-0.1-0.6c0-0.1,0-0.1,0-0.2c-0.1-0.3-0.1-0.6-0.2-0.8s-0.4-0.5-0.4-0.8c-0.1-0.2-0.2-0.4-0.3-0.6c0-0.1,0.2-0.3,0.2-0.4
		c0-0.1-0.3-0.2-0.3-0.3c0-0.1,0-0.2-0.1-0.4c-0.1-0.1-0.1-0.2-0.1-0.3c0-0.1,0.1-0.3,0.1-0.4s0-0.2-0.1-0.4
		c-0.1-0.1-0.3-0.2-0.3-0.3c0-0.1,0-0.2,0-0.3c-0.1-0.3,0.1-0.6,0-0.9c0-0.1-0.1-0.2-0.2-0.2l0,0c0-0.1-0.1-0.2-0.1-0.3
		s-0.1-0.1-0.2-0.1L36,370c0-0.1-0.1-0.2-0.1-0.3c0-0.1,0-0.3,0-0.4c-0.1-0.1-0.2-0.2-0.3-0.3c-0.1-0.3-0.2-0.5-0.3-0.8v-0.1
		c0,0,0-0.1,0-0.1c0-0.1,0-0.2,0-0.3c-0.1-0.3-0.4-0.5-0.5-0.7c0,0-0.1-0.1-0.1-0.1c0-0.1,0-0.1,0-0.2c-0.1-0.1-0.1-0.2-0.2-0.3
		s-0.2-0.2-0.3-0.3c0,0,0-0.1,0-0.1l0,0c0-0.1,0-0.2-0.1-0.2c0-0.1,0-0.2-0.1-0.3c-0.1-0.3-0.1-0.6-0.2-0.9s-0.3-0.2-0.6-0.3
		c-0.1-0.2-0.2-0.3-0.3-0.5l-0.1-0.1c0-0.1,0-0.1,0-0.2l-0.2-0.3c-0.1-0.1-0.1-0.2-0.2-0.3c-0.1-0.1,0-0.3-0.1-0.4s-0.2-0.2-0.2-0.3
		c0,0-0.1-0.1-0.1-0.1c-0.1-0.1-0.2-0.2-0.3-0.3c0-0.1,0.1-0.2,0-0.3s-0.1,0-0.2,0c0-0.2,0-0.4-0.1-0.6c-0.2-0.2-0.3-0.3-0.5-0.5
		l0,0c0,0-0.1-0.1-0.1-0.1H31l-0.1-0.1c0-0.1,0-0.2-0.1-0.3c-0.1-0.3-0.4-0.5-0.6-0.8c-0.1-0.3-0.3-0.5-0.4-0.7l0,0l-0.1-0.1
		l-0.1-0.1v-0.1c-0.1-0.1-0.2-0.2-0.3-0.3c-0.1-0.1-0.3-0.3-0.5-0.4c-0.2-0.1-0.3-0.3-0.4-0.5c-0.2-0.3-0.5-0.6-0.8-0.8
		c-0.2-0.2-0.4-0.3-0.6-0.5c-0.2-0.2-0.4-0.3-0.4-0.6s0-0.2-0.1-0.3c-0.1-0.1-0.3-0.2-0.3-0.3l-0.3-0.2l0,0c-0.1,0-0.1-0.1-0.2-0.1
		l-0.1-0.1c-0.1-0.1-0.1-0.2-0.2-0.2s-0.3-0.2-0.5-0.4l0,0c0-0.1,0-0.2,0-0.2c0,0-0.2-0.1-0.3-0.2l-0.1-0.1l-0.3-0.3
		c-0.1-0.2-0.2-0.4-0.4-0.6c-0.2-0.2-0.5-0.3-0.7-0.5c-0.2-0.1-0.3-0.1-0.5-0.1l-0.1-0.1c0-0.1,0-0.1-0.1-0.2c-0.1,0-0.1,0-0.2,0
		l-0.1-0.1l-0.4-0.3c-0.1-0.1-0.1-0.2-0.2-0.3l-0.3-0.2l0,0c0-0.1-0.1-0.2-0.2-0.3l-0.7-0.5c-0.1,0-0.1-0.1-0.2-0.1l0,0
		c0,0-0.2-0.1-0.3-0.2c-0.1,0-0.1,0-0.2,0c-0.1,0-0.1,0-0.2,0c-0.1-0.1-0.2-0.1-0.3-0.2s-0.1-0.3-0.2-0.4s-0.3,0.1-0.4,0.1h-0.1
		c-0.1-0.2-0.1-0.4-0.3-0.5c-0.1-0.1-0.2-0.1-0.3-0.1c-0.1-0.1-0.1-0.2-0.2-0.2c-0.1,0-0.1,0-0.2,0c-0.1,0-0.1,0-0.2,0
		c-0.1-0.1-0.1-0.2-0.2-0.2s-0.1-0.4-0.2-0.5c-0.1-0.1-0.6,0-0.9-0.2c0-0.1-0.1-0.1-0.1-0.2c-0.1-0.1-0.2-0.1-0.3-0.1
		c0,0-0.1,0-0.1,0l-0.2-0.1c-0.2-0.1-0.5-0.3-0.7-0.5c-0.2-0.1-0.3-0.1-0.5-0.1l-0.1-0.1c-0.1,0-0.3,0-0.4-0.1l0,0l-0.1-0.1
		c0-0.1-0.1-0.2-0.1-0.3c0-0.1-0.1-0.3-0.3-0.4c-0.3-0.1-0.6-0.1-0.8-0.2c-0.3-0.1-0.5-0.3-0.8-0.4c-0.3-0.1-0.5-0.3-0.8-0.3
		c-0.2,0-0.4,0-0.7,0.1h-0.1c0,0-0.1,0-0.1,0H10c-0.3-0.1-0.4-0.4-0.7-0.5c-0.2,0-0.4,0-0.6,0c0,0-0.1-0.1-0.1-0.1
		c-0.1,0-0.2,0-0.3,0c-0.2-0.1-0.4-0.4-0.6-0.5c-0.2-0.1-0.6,0.2-0.8,0.2H6.8c0,0-0.1,0-0.1,0c-0.2-0.1-0.4-0.5-0.6-0.5
		s-0.6-0.1-0.8-0.2c-0.1,0-0.3,0-0.4,0c-0.1,0-0.3,0-0.4,0c-0.1,0-0.3,0-0.4,0.1c-0.1-0.1-0.1-0.2-0.2-0.2s-0.2-0.2-0.3-0.2
		c-0.1,0-0.2,0-0.3,0c-0.1-0.1-0.2-0.2-0.3-0.3c-0.1,0-0.2,0-0.3,0l0,0c-0.1,0-0.1,0-0.1,0.1c-0.1,0-0.2,0-0.4,0
		c-0.3,0-0.5-0.2-0.8-0.3c-0.1,0-0.2,0-0.3,0.1c0-0.1-0.1-0.1-0.1-0.1s-0.2,0-0.4,0c-0.1,0-0.1,0-0.2,0c-0.1,0-0.1,0-0.2,0
		c-0.1,0-0.1,0-0.2,0c-0.1,0-0.1,0-0.2,0l-0.4,0c-0.1,0-0.2-0.2-0.3-0.2h-0.4c-0.1,0-0.2,0.3-0.4,0.3l0,0c-0.1,0-0.2-0.3-0.3-0.4
		c-0.1,0-0.2-0.1-0.4-0.1H-3c-0.1,0-0.1,0-0.2,0c0,0-0.1,0-0.1,0.1h-0.1c-0.1,0-0.3,0-0.4,0.1c0,0-0.1,0-0.1,0
		c-0.1,0-0.1,0.1-0.2,0.1h-0.2c-0.1,0-0.2,0-0.3,0.1h-0.1c-0.1,0-0.2-0.2-0.4-0.2s-0.2,0.1-0.3,0.2h-0.2l0,0
		c-0.1-0.1-0.1-0.2-0.2-0.2l0,0c-0.1-0.1-0.1-0.1-0.2-0.1L-5.9,341.6z M19.4,374.2c-0.2-2.3-0.5-4.5-1-6.8c0-0.1-0.2-0.2-0.3-0.3
		c-2.6-0.3-4.9-0.3-5.6-0.3c0,0-0.1,0-0.1-0.1c0,0,0,0,0-0.1c1.7-1,3.3-2.1,4.8-3.3c0.1-0.1,0.1-0.2,0.1-0.3
		c-0.6-2.1-1.4-4.1-2.5-5.9c0,0,0-0.1,0-0.1c0,0,0.1,0,0.1,0c1.8,1,3.6,2.1,5.2,3.4c0.1,0.1,0.3,0.1,0.4,0c0.9-0.9,1.7-1.8,2.4-2.9
		c0,0,0.1-0.1,0.1,0c0,0,0,0,0,0c0.3,1.9,0.4,3.7,0.3,5.6c0,0.1,0,0.2,0.1,0.3c1.7,1.7,3.2,3.6,4.4,5.6c0,0,0,0.1,0,0.1
		c0,0-0.1,0-0.1,0c-1.7-0.6-3.4-1.1-5.2-1.4c-0.1,0-0.2,0-0.3,0.1c-0.7,2.2-1.6,4.2-2.7,6.2c0,0-0.1,0-0.1,0
		C19.4,374.2,19.4,374.2,19.4,374.2 M-6.9,379.1c-0.6,0.9-1.1,2-1.3,3.1c-0.1,0.5-0.2,1-0.2,1.5c0,0.2,0.1,0.2,0.2,0
		c0.1-0.2,0.2-0.5,0.4-0.8c0.4-0.9,0.9-1.7,1.5-2.5c0.7-1.2,1.7-2.1,2.9-2.7c0.4-0.3,1-0.3,1.3,0.1c0.3,0.3,0.3,0,0.3-0.1
		c0-0.3,0-0.6,0-0.9c0-0.5-0.4-0.9-0.9-0.9c0,0-0.1,0-0.1,0c-0.3,0.1-0.7,0.2-1,0.4C-5,377-6,377.9-6.9,379.1 M-2,379.5
		c-0.2,0.1-0.3,0.3-0.5,0.4c-0.2,0.1-0.5,0.3-0.7,0.4c-0.8,0.4-1.3,1.2-1.5,2c-0.2,0.7-0.4,1.4-0.6,2.1c0,0.2,0.2,0.1,0.4,0.1
		c0.5-0.1,1-0.2,1.5-0.3c0.5-0.1,0.9-0.3,1.4-0.6c0.4-0.2,0.7-0.4,1-0.7c0.1,0,0.1-0.1,0-0.2c0,0,0,0,0,0c-0.1,0-0.2-0.1-0.3-0.1
		c-0.1,0-0.2-0.1-0.2-0.2c0-0.3-0.1-0.6-0.2-0.9c-0.1-0.3-0.3-0.5-0.5-0.7c0,0,0-0.1,0-0.1c0.2-0.3,0.3-0.6,0.4-1
		c0.1-0.2,0.1-0.3,0-0.3c-0.1,0,0-0.1-0.1,0 M-48.5,393c0,0,0,0.1,0,0.1c0,0,0,0.1,0,0.1c0,0.1,0.1,0.1,0.1,0.2l0.1,0.3
		c0,0,0,0.1,0,0.1c0,0.1,0,0.1,0,0.2c0,0,0,0.1,0.1,0.1c0,0.2,0.1,0.4,0.1,0.6c0,0.1,0,0.1,0,0.2c0.1,0.3,0.1,0.6,0.2,0.8
		c0.1,0.3,0.3,0.5,0.4,0.8c0.1,0.2,0.2,0.4,0.3,0.6c0,0.1-0.2,0.3-0.2,0.4s0.3,0.2,0.3,0.3c0,0.1,0,0.2,0.1,0.3
		c0,0.1,0.1,0.2,0.1,0.3c0,0.1-0.1,0.3-0.1,0.4c0,0.1,0,0.3,0,0.4c0,0.1,0.3,0.1,0.3,0.3c0,0.1,0,0.2,0,0.3c0.1,0.3-0.1,0.6,0,0.9
		c0,0.1,0.1,0.2,0.2,0.2l0,0l0.1,0.3c0,0,0.1,0.1,0.2,0.1c0,0.1,0,0.1,0.1,0.2l0.1,0.3c0,0.1,0,0.3,0,0.4c0.1,0.1,0.2,0.2,0.3,0.3
		c0.1,0.3,0.2,0.5,0.3,0.8v0.1c0,0,0,0.1,0,0.1c0,0.1,0,0.2,0,0.3c0.1,0.3,0.4,0.5,0.5,0.7c0,0,0.1,0.1,0.1,0.1c0,0.1,0,0.1,0,0.2
		c0,0.1,0.1,0.2,0.2,0.3c0.1,0.1,0.2,0.2,0.3,0.3c0,0,0,0.1,0,0.1l0,0c0,0.1,0,0.2,0.1,0.2c0,0.1,0,0.2,0.1,0.3
		c0.1,0.3,0.1,0.6,0.2,0.9s0.3,0.2,0.6,0.3s0.2,0.3,0.3,0.5v0.1c0,0.1,0,0.1,0,0.2l0.2,0.3l0.2,0.3c0.1,0.1,0,0.3,0.1,0.4
		c0.1,0.1,0.2,0.2,0.2,0.3s0.1,0,0.2,0.1c0.1,0.1,0.2,0.2,0.3,0.3c0,0.1-0.1,0.2,0,0.3c0.1,0.1,0.1,0,0.2,0c0,0.2,0,0.4,0.1,0.7
		c0.2,0.2,0.3,0.3,0.5,0.5l0,0l0,0l0.1,0.1l0.1,0.1c0,0,0,0.1,0.1,0.1s0,0.2,0.1,0.3c0.1,0.3,0.4,0.5,0.6,0.8s0.3,0.5,0.4,0.7l0,0
		l0.1,0.1l0.1,0.1l0.1,0.1c0.1,0.1,0.2,0.1,0.3,0.3c0.2,0.1,0.3,0.2,0.5,0.4c0.2,0.1,0.3,0.3,0.4,0.5c0.2,0.3,0.5,0.6,0.8,0.8
		c0.2,0.2,0.4,0.4,0.6,0.6c0.2,0.2,0.4,0.3,0.5,0.6c0,0.1,0,0.2,0,0.2c0.1,0.1,0.3,0.2,0.3,0.3l0.3,0.2l0,0c0.1,0.1,0.1,0.1,0.2,0.1
		h0.1c0.1,0.1,0.1,0.2,0.2,0.2c0.2,0.1,0.3,0.2,0.5,0.4l0,0c0,0.1,0,0.1,0,0.2c0.1,0.1,0.2,0.1,0.3,0.2c0,0,0.1,0.1,0.1,0.1l0.3,0.3
		c0,0,0,0.1,0,0.1c0.1,0.1,0.4,0.3,0.7,0.5c0.1,0.1,0.2,0,0.3,0.1c0.5,0.3,1.1,0.6,1.7,0.8c0.6,0.4,1.5-2.7,2.2-4.7
		c0.6-1.6,0.9-1.9-1.6-4c-0.6-0.5-0.4,1.2-0.5,1.6c-0.1,0.5-0.3,0.3-0.6,0.1c-2.6-1.8-12-9.2-15.4-17.4c-0.5-1.1-0.9-2.2-1.2-3.3
		c0,0.2,0,0.3,0,0.5"/>
</g>
</svg>
