<?xml version="1.0" encoding="utf-8"?>
<!-- Generator: Adobe Illustrator 23.1.0, SVG Export Plug-In . SVG Version: 6.00 Build 0)  -->
<svg version="1.1" id="Calque_1" xmlns="http://www.w3.org/2000/svg" xmlns:xlink="http://www.w3.org/1999/xlink" x="0px" y="0px"
	 viewBox="0 0 300 200" style="enable-background:new 0 0 300 200;" xml:space="preserve">
<style type="text/css">
	.st0{fill:#39BFF0;}
</style>
<title>logo_lvmh</title>
<g id="LVMH">
	<path class="st0" d="M70,117.3c2.1-0.2,3.4-0.6,4-1.1s0.9-1.8,0.9-3.9V87.1c0-2-0.3-3.3-0.9-3.9s-2-1-4-1.1V81h15.9v1.1
		c-2.1,0.1-3.5,0.4-4.2,1s-1,1.8-1,3.7v27.1c0,0.5,0.1,1,0.3,1.5c0.3,0.4,0.8,0.7,1.4,0.7c0.4,0,0.9,0.1,1.3,0.1s1.3,0,2.6,0
		c5,0,8.4-0.4,10.2-1.2s3.5-2.9,5.1-6.3h1.4l-2.8,9.8H70V117.3z"/>
	<path class="st0" d="M112,81v1c-1,0-1.9,0.1-2.9,0.3c-0.8,0.2-1.4,1-1.3,1.8c0,0.7,0.2,1.4,0.5,2c0.3,0.8,0.9,2.2,1.8,4.2l8.8,19.6
		l8-21.3c0.3-0.9,0.6-1.7,0.8-2.4c0.2-0.5,0.3-1,0.3-1.6c0.1-1-0.5-1.9-1.4-2.2c-0.9-0.3-1.8-0.4-2.7-0.4v-1h11.5v1
		c-1,0.1-1.9,0.4-2.6,1c-1.2,1.2-2,2.7-2.6,4.3L117.6,119h-0.9l-13.9-31c-1.2-2.6-2.1-4.3-2.8-4.9c-0.9-0.7-1.9-1.1-3-1.1v-1H112z"
		/>
	<path class="st0" d="M137.4,117.3c2.3-0.2,3.8-0.8,4.5-1.6c0.7-0.8,1-2.7,1-5.7V87.1c0-2-0.3-3.3-1-4s-2.1-1-4.4-1.1V81h11.1
		l12.9,28.1l12.6-28h11.2v1.1c-2.1,0.1-3.4,0.5-4,1.1c-0.6,0.6-0.9,1.9-0.9,3.9v25c0,2,0.3,3.4,0.9,4s2,1,4,1.1v1.1h-15.8v-1.1
		c2.3-0.2,3.7-0.6,4.3-1.2s0.8-2.1,0.8-4.5V86.2l-14.4,32.1h-0.8l-14.2-30.8V110c0,3.1,0.4,5.1,1.3,6c0.6,0.6,1.9,1,3.9,1.2v1.1
		h-13.2V117.3z"/>
	<path class="st0" d="M191.5,117.3c2.2-0.2,3.6-0.6,4.1-1.2s0.8-2.1,0.8-4.5V87.1c0-2-0.3-3.3-0.9-3.9s-2-1-4-1.1V81h15.6v1.1
		c-2.1,0.1-3.4,0.5-4,1.1s-0.9,1.9-0.9,3.9v11h17.1v-11c0-2-0.3-3.3-0.9-3.9c-0.6-0.6-2-1-4-1.1V81H230v1.1c-2.1,0.1-3.4,0.5-4,1.1
		s-0.9,1.9-0.9,3.9v25.1c0,2,0.3,3.3,0.9,3.9s2,0.9,4,1.1v1.1h-15.6v-1.1c2.2-0.2,3.6-0.6,4.1-1.2s0.8-2.1,0.8-4.5v-11h-17.1v11.6
		c0,2,0.3,3.3,0.9,3.9s2,1,4,1.1v1.1h-15.6V117.3z"/>
</g>
</svg>
