<?xml version="1.0"?>
<svg xmlns="http://www.w3.org/2000/svg" viewBox="0 0 2375.02 207.18">
  <title>Fichier 21</title>
  <g id="Calque_2" data-name="Calque 2">
    <g id="Calque_1-2" data-name="Calque 1">
      <path d="M0,38.32v-.2C0,18.52,15.47,2.46,36.74,2.46S73.29,18.32,73.29,37.93v.19c0,19.61-15.46,35.66-36.74,35.66S0,57.92,0,38.32Zm57.43,0v-.2c0-11.82-8.67-21.67-20.88-21.67S15.86,26.11,15.86,37.93v.19C15.86,50,24.53,59.8,36.74,59.8S57.43,50.14,57.43,38.32Z" style="fill:#fff"/>
      <path d="M82.75,26.7a7.49,7.49,0,0,1,15,0v.69c3.64-4.93,8.67-8.57,16.45-8.57,12.31,0,24,9.65,24,27.28v.2c0,17.63-11.52,27.29-24,27.29-8,0-12.91-3.65-16.45-7.88V81.47a7.49,7.49,0,0,1-15,0Zm40.49,19.6v-.2c0-8.76-5.91-14.58-12.9-14.58S97.53,37.34,97.53,46.1v.2c0,8.77,5.81,14.58,12.81,14.58S123.24,55.17,123.24,46.3Z" style="fill:#fff"/>
      <path d="M149.25,57.63v-25h-.49a6.41,6.41,0,0,1,0-12.81h.49V13.2a7.49,7.49,0,1,1,15,0v6.6h6.6a6.41,6.41,0,0,1,0,12.81h-6.6V55.17c0,3.44,1.47,5.12,4.82,5.12.49,0,1.48-.1,1.78-.1A6.25,6.25,0,0,1,177,66.4,6.08,6.08,0,0,1,173.19,72a22,22,0,0,1-8.57,1.48C155.46,73.49,149.25,69.84,149.25,57.63Z" style="fill:#fff"/>
      <path d="M185,7.19c0-4.33,3.65-7,8.38-7s8.37,2.66,8.37,7v.2c0,4.33-3.64,7.09-8.37,7.09S185,11.72,185,7.39Zm.89,19.51a7.49,7.49,0,1,1,15,0v39a7.49,7.49,0,0,1-15,0Z" style="fill:#fff"/>
      <path d="M212.5,26.7a7.49,7.49,0,1,1,15,0v.59c3.45-4.44,8-8.47,15.57-8.47,6.89,0,12.11,3.05,14.87,8.37,4.63-5.42,10.15-8.37,17.34-8.37,11.13,0,17.83,6.69,17.83,19.4V65.71a7.49,7.49,0,0,1-15,0V43.15c0-7.09-3.16-10.74-8.77-10.74s-9.06,3.65-9.06,10.74V65.71a7.49,7.49,0,0,1-15,0V43.15c0-7.09-3.15-10.74-8.76-10.74s-9.07,3.65-9.07,10.74V65.71a7.49,7.49,0,0,1-15,0Z" style="fill:#fff"/>
      <path d="M303.43,7.19c0-4.33,3.64-7,8.37-7s8.38,2.66,8.38,7v.2c0,4.33-3.65,7.09-8.38,7.09s-8.37-2.76-8.37-7.09Zm.89,19.51a7.49,7.49,0,1,1,15,0v39a7.49,7.49,0,0,1-15,0Z" style="fill:#fff"/>
      <path d="M328.55,66.59V66.3c0-2.86,1-4.73,3.35-7.29l24.53-27.09H335.54a6.05,6.05,0,0,1-6.1-6,6.14,6.14,0,0,1,6.1-6.11h32.81c4.23,0,7.29,2.46,7.29,6v.3c0,2.85-1,4.72-3.35,7.29L347.66,60.49h21.87a6.13,6.13,0,0,1,6.11,6.1,6.06,6.06,0,0,1-6.11,6H335.84C331.6,72.6,328.55,70.14,328.55,66.59Z" style="fill:#fff"/>
      <path d="M407.46,73.78c-15.86,0-27.58-11.13-27.58-27.28v-.2c0-15.07,10.74-27.48,26.1-27.48,17.64,0,25.42,14.48,25.42,25.41a6.83,6.83,0,0,1-7,7.19H394.75c1.48,6.8,6.21,10.35,12.91,10.35a17.29,17.29,0,0,0,10.64-3.55A5.57,5.57,0,0,1,421.94,57,5.72,5.72,0,0,1,427.75,63a5.84,5.84,0,0,1-2,4.43A27.36,27.36,0,0,1,407.46,73.78Zm9.65-31.72c-.88-6.69-4.82-11.23-11.13-11.23s-10.24,4.44-11.42,11.23Z" style="fill:#fff"/>
      <path d="M470.22,87.28c-2.17-.79-4.73-2.56-4.73-6.21A6,6,0,0,1,471.4,75a7,7,0,0,1,2.46.39A9.91,9.91,0,0,0,477,76c2.66,0,3.94-.49,5.32-3.15l.5-1.18-18-41.77A10.78,10.78,0,0,1,464,26.4a7.1,7.1,0,0,1,7.39-7.19c3.74,0,5.91,2.07,7.19,5.61L490,55.56l11-30.64c1.18-3.15,3.35-5.71,7.19-5.71a7,7,0,0,1,7.09,6.9,11.16,11.16,0,0,1-.69,3.54L496.22,73.88c-4.43,10.74-8.86,14.78-17.83,14.78A22.41,22.41,0,0,1,470.22,87.28Z" style="fill:#fff"/>
      <path d="M518.39,46.5v-.2c0-15.17,12.22-27.48,28.67-27.48s28.47,12.11,28.47,27.28v.2c0,15.17-12.22,27.48-28.67,27.48S518.39,61.67,518.39,46.5Zm42.36,0v-.2c0-7.78-5.61-14.58-13.89-14.58-8.57,0-13.69,6.6-13.69,14.38v.2c0,7.78,5.61,14.58,13.89,14.58C555.63,60.88,560.75,54.28,560.75,46.5Z" style="fill:#fff"/>
      <path d="M631.88,65.71a7.49,7.49,0,0,1-15,0v-.59c-3.45,4.43-7.88,8.47-15.47,8.47-11.33,0-17.93-7.49-17.93-19.61V26.7a7.49,7.49,0,1,1,15,0V49.26c0,7.09,3.35,10.73,9.07,10.73s9.36-3.64,9.36-10.73V26.7a7.49,7.49,0,1,1,15,0Z" style="fill:#fff"/>
      <path d="M642.82,26.7a7.49,7.49,0,1,1,15,0v2.36c2.17-5.12,5.71-9.85,10.15-9.85,4.63,0,7.29,3.05,7.29,7.29a6.88,6.88,0,0,1-5.62,7c-7.58,1.78-11.82,7.59-11.82,18.23v14a7.49,7.49,0,0,1-15,0Z" style="fill:#fff"/>
      <path d="M733.65,73.78c-15.86,0-27.59-11.13-27.59-27.28v-.2c0-15.07,10.74-27.48,26.11-27.48,17.63,0,25.42,14.48,25.42,25.41a6.83,6.83,0,0,1-7,7.19H720.94c1.48,6.8,6.21,10.35,12.9,10.35a17.25,17.25,0,0,0,10.64-3.55A5.59,5.59,0,0,1,748.13,57,5.72,5.72,0,0,1,753.94,63a5.87,5.87,0,0,1-2,4.43A27.36,27.36,0,0,1,733.65,73.78Zm9.65-31.72c-.88-6.69-4.83-11.23-11.13-11.23s-10.25,4.44-11.43,11.23Z" style="fill:#fff"/>
      <path d="M764.39,61.77l13.49-16L765.57,31.62a8.59,8.59,0,0,1-2.46-5.71A6.67,6.67,0,0,1,770,19c3,0,5,1.38,7,3.84l9.75,13,10-13c1.77-2.16,3.84-3.84,6.5-3.84,3.94,0,7,2.76,7,6.5a8,8,0,0,1-2.07,5.13l-12.8,15,13.2,15.17A8.64,8.64,0,0,1,811,66.5a6.67,6.67,0,0,1-6.89,6.89c-3,0-5-1.38-7-3.84l-10.64-14-10.64,14c-1.77,2.17-3.84,3.84-6.5,3.84-3.94,0-7-2.76-7-6.5A7.47,7.47,0,0,1,764.39,61.77Z" style="fill:#fff"/>
      <path d="M842.71,73.78c-15.87,0-27.59-11.13-27.59-27.28v-.2c0-15.07,10.74-27.48,26.11-27.48,17.63,0,25.41,14.48,25.41,25.41a6.82,6.82,0,0,1-7,7.19H830c1.47,6.8,6.2,10.35,12.9,10.35a17.25,17.25,0,0,0,10.64-3.55A5.58,5.58,0,0,1,857.19,57,5.72,5.72,0,0,1,863,63a5.87,5.87,0,0,1-2,4.43A27.36,27.36,0,0,1,842.71,73.78Zm9.65-31.72c-.89-6.69-4.83-11.23-11.13-11.23S831,35.27,829.8,42.06Z" style="fill:#fff"/>
      <path d="M873.05,46.5v-.2c0-15.07,11.53-27.48,27.68-27.48,8,0,13.6,2.16,18,5.91a6.63,6.63,0,0,1,2.36,5.12,6.73,6.73,0,0,1-6.79,6.7A7.07,7.07,0,0,1,910,35.07a14.27,14.27,0,0,0-9.36-3.35c-7.48,0-12.8,6.6-12.8,14.38v.2c0,8.08,5.22,14.58,13.39,14.58a15.14,15.14,0,0,0,9.85-3.65,7,7,0,0,1,4-1.37A6.35,6.35,0,0,1,919.25,67c-4.43,4-10,6.79-18.72,6.79A27,27,0,0,1,873.05,46.5Z" style="fill:#fff"/>
      <path d="M977.38,65.71a7.49,7.49,0,0,1-15,0v-.59c-3.44,4.43-7.88,8.47-15.46,8.47C935.61,73.59,929,66.1,929,54V26.7a7.49,7.49,0,1,1,15,0V49.26C944,56.35,947.33,60,953,60s9.36-3.64,9.36-10.73V26.7a7.49,7.49,0,0,1,15,0Z" style="fill:#fff"/>
      <path d="M990.78,57.63v-25h-.5a6.41,6.41,0,0,1,0-12.81h.5V13.2a7.49,7.49,0,1,1,15,0v6.6h6.6a6.41,6.41,0,0,1,0,12.81h-6.6V55.17c0,3.44,1.48,5.12,4.83,5.12.49,0,1.47-.1,1.77-.1a6.25,6.25,0,0,1,6.21,6.21,6.09,6.09,0,0,1-3.85,5.61,21.92,21.92,0,0,1-8.57,1.48C997,73.49,990.78,69.84,990.78,57.63Z" style="fill:#fff"/>
      <path d="M1026.54,7.19c0-4.33,3.64-7,8.37-7s8.37,2.66,8.37,7v.2c0,4.33-3.64,7.09-8.37,7.09s-8.37-2.76-8.37-7.09Zm.88,19.51a7.49,7.49,0,0,1,15,0v39a7.49,7.49,0,0,1-15,0Z" style="fill:#fff"/>
      <path d="M1076.68,73.69h-.79c-4,0-6.8-2.57-8.47-6.51l-16.16-37.33a10.08,10.08,0,0,1-.78-3.65,7.35,7.35,0,0,1,7.29-7c4,0,6.2,2.27,7.29,5.32l11.32,30.64,11.53-30.84c1-2.56,3-5.12,7-5.12a7.09,7.09,0,0,1,7.2,7.09,10.68,10.68,0,0,1-.79,3.55l-16.16,37.33C1083.48,71,1080.72,73.69,1076.68,73.69Z" style="fill:#fff"/>
      <path d="M1132.74,73.78c-15.86,0-27.58-11.13-27.58-27.28v-.2c0-15.07,10.73-27.48,26.1-27.48,17.63,0,25.42,14.48,25.42,25.41a6.83,6.83,0,0,1-7,7.19H1120c1.48,6.8,6.21,10.35,12.9,10.35a17.25,17.25,0,0,0,10.64-3.55,5.59,5.59,0,0,1,3.65-1.18A5.72,5.72,0,0,1,1153,63a5.87,5.87,0,0,1-2,4.43A27.36,27.36,0,0,1,1132.74,73.78Zm9.65-31.72c-.89-6.69-4.83-11.23-11.13-11.23s-10.25,4.44-11.43,11.23Z" style="fill:#fff"/>
      <path d="M1195.2,57.63v-25h-.49a6.41,6.41,0,1,1,0-12.81h.49V13.2a7.49,7.49,0,1,1,15,0v6.6h6.6a6.41,6.41,0,0,1,0,12.81h-6.6V55.17c0,3.44,1.48,5.12,4.83,5.12.49,0,1.48-.1,1.77-.1A6.25,6.25,0,0,1,1223,66.4a6.1,6.1,0,0,1-3.84,5.61,22,22,0,0,1-8.57,1.48C1201.4,73.49,1195.2,69.84,1195.2,57.63Z" style="fill:#fff"/>
      <path d="M1254.7,73.78c-15.86,0-27.58-11.13-27.58-27.28v-.2c0-15.07,10.73-27.48,26.1-27.48,17.64,0,25.42,14.48,25.42,25.41a6.83,6.83,0,0,1-7,7.19H1242c1.48,6.8,6.21,10.35,12.91,10.35a17.29,17.29,0,0,0,10.64-3.55,5.55,5.55,0,0,1,3.64-1.18A5.72,5.72,0,0,1,1275,63a5.84,5.84,0,0,1-2,4.43A27.36,27.36,0,0,1,1254.7,73.78Zm9.65-31.72c-.88-6.69-4.82-11.23-11.13-11.23s-10.24,4.44-11.43,11.23Z" style="fill:#fff"/>
      <path d="M1284.45,57.43v-.2c0-11.52,8.77-16.84,21.28-16.84a37.59,37.59,0,0,1,12.91,2.17v-.89c0-6.21-3.85-9.65-11.33-9.65A34.62,34.62,0,0,0,1297,33.49a6.18,6.18,0,0,1-2.16.4,6.1,6.1,0,0,1-6.21-6.11,6.2,6.2,0,0,1,4-5.81,45.83,45.83,0,0,1,16.85-2.76c8.17,0,14.08,2.17,17.83,5.91,3.94,3.94,5.71,9.75,5.71,16.85V66a7.19,7.19,0,0,1-7.29,7.19c-4.34,0-7.19-3-7.19-6.2v-.1c-3.65,4-8.67,6.7-16,6.7C1292.63,73.59,1284.45,67.87,1284.45,57.43ZM1318.83,54V51.32a23.24,23.24,0,0,0-9.55-2c-6.4,0-10.35,2.57-10.35,7.29v.2c0,4,3.35,6.4,8.18,6.4C1314.11,63.24,1318.83,59.4,1318.83,54Z" style="fill:#fff"/>
      <path d="M1343.46,26.7a7.49,7.49,0,0,1,15,0v.59c3.45-4.44,8-8.47,15.56-8.47,6.9,0,12.12,3.05,14.88,8.37,4.63-5.42,10.14-8.37,17.34-8.37,11.13,0,17.83,6.69,17.83,19.4V65.71a7.49,7.49,0,0,1-15,0V43.15c0-7.09-3.15-10.74-8.76-10.74s-9.07,3.65-9.07,10.74V65.71a7.49,7.49,0,0,1-15,0V43.15c0-7.09-3.15-10.74-8.77-10.74s-9.06,3.65-9.06,10.74V65.71a7.49,7.49,0,0,1-15,0Z" style="fill:#fff"/>
      <path d="M1471.44,66.89l-12.91-37.24a12.74,12.74,0,0,1-.69-3.64,6.91,6.91,0,0,1,7.19-6.8c3.75,0,6.21,2.36,7.29,5.81l8.08,26.8,8.28-26.7c1.08-3.55,3.84-6,7.68-6h.89c3.84,0,6.6,2.46,7.68,6l8.37,26.8,8.28-27c1-3.15,3.25-5.71,7.19-5.71a6.81,6.81,0,0,1,7,6.9,13.06,13.06,0,0,1-.49,3.05L1522,66.89c-1.57,4.63-4.63,6.7-8.27,6.7h-.49c-3.65,0-6.7-2.07-8.08-6.41l-8.38-26.59-8.47,26.59c-1.38,4.34-4.43,6.41-8.08,6.41h-.49C1476.07,73.59,1473,71.52,1471.44,66.89Z" style="fill:#fff"/>
      <path d="M1542.67,7.19c0-4.33,3.64-7,8.37-7s8.37,2.66,8.37,7v.2c0,4.33-3.64,7.09-8.37,7.09s-8.37-2.76-8.37-7.09Zm.88,19.51a7.49,7.49,0,1,1,15,0v39a7.49,7.49,0,0,1-15,0Z" style="fill:#fff"/>
      <path d="M1572.61,57.63v-25h-.49a6.41,6.41,0,0,1,0-12.81h.49V13.2a7.49,7.49,0,1,1,15,0v6.6h6.6a6.41,6.41,0,0,1,0,12.81h-6.6V55.17c0,3.44,1.48,5.12,4.83,5.12.49,0,1.47-.1,1.77-.1a6.24,6.24,0,0,1,6.2,6.21,6.08,6.08,0,0,1-3.84,5.61,22,22,0,0,1-8.57,1.48C1578.82,73.49,1572.61,69.84,1572.61,57.63Z" style="fill:#fff"/>
      <path d="M1608.57,7.59a7.49,7.49,0,1,1,15,0v19.7c3.44-4.44,7.88-8.47,15.46-8.47,11.33,0,17.93,7.48,17.93,19.6V65.71a7.49,7.49,0,0,1-15,0V43.15c0-7.09-3.35-10.74-9.07-10.74s-9.35,3.65-9.35,10.74V65.71a7.49,7.49,0,0,1-15,0Z" style="fill:#fff"/>
      <path d="M1691.42,57.43v-.2c0-11.52,8.77-16.84,21.28-16.84a37.59,37.59,0,0,1,12.91,2.17v-.89c0-6.21-3.85-9.65-11.33-9.65a34.62,34.62,0,0,0-10.35,1.47,6.18,6.18,0,0,1-2.16.4,6.1,6.1,0,0,1-6.21-6.11,6.2,6.2,0,0,1,4-5.81,45.83,45.83,0,0,1,16.85-2.76c8.17,0,14.08,2.17,17.83,5.91,3.94,3.94,5.71,9.75,5.71,16.85V66a7.19,7.19,0,0,1-7.29,7.19c-4.34,0-7.19-3-7.19-6.2v-.1c-3.65,4-8.67,6.7-16,6.7C1699.6,73.59,1691.42,67.87,1691.42,57.43ZM1725.8,54V51.32a23.24,23.24,0,0,0-9.55-2c-6.41,0-10.35,2.57-10.35,7.29v.2c0,4,3.35,6.4,8.18,6.4C1721.08,63.24,1725.8,59.4,1725.8,54Z" style="fill:#fff"/>
      <path d="M1825.5,65.71a7.49,7.49,0,0,1-15,0v-.59c-3.45,4.43-7.88,8.47-15.47,8.47-11.33,0-17.93-7.49-17.93-19.61V26.7a7.49,7.49,0,0,1,15,0V49.26c0,7.09,3.35,10.73,9.06,10.73s9.36-3.64,9.36-10.73V26.7a7.49,7.49,0,1,1,15,0Z" style="fill:#fff"/>
      <path d="M1835.06,67.58a6,6,0,0,1-2.86-5.12,5.93,5.93,0,0,1,8.87-5.13c5,3.16,10,4.73,14.28,4.73s6.31-1.57,6.31-3.94v-.2c0-3.25-5.13-4.33-10.94-6.1C1843.33,49.65,1835,46.2,1835,36v-.2C1835,25,1843.63,19,1854.27,19a37.11,37.11,0,0,1,16.35,4,6.11,6.11,0,0,1,3.55,5.62,5.89,5.89,0,0,1-6,5.91,5.52,5.52,0,0,1-2.76-.69c-4.24-2.07-8.27-3.35-11.43-3.35-3.64,0-5.51,1.57-5.51,3.64v.2c0,3,5,4.33,10.73,6.31,7.39,2.46,16,6,16,15.66v.2c0,11.72-8.76,17-20.19,17A36.78,36.78,0,0,1,1835.06,67.58Z" style="fill:#fff"/>
      <path d="M1908.45,73.78c-15.86,0-27.58-11.13-27.58-27.28v-.2c0-15.07,10.74-27.48,26.1-27.48,17.64,0,25.42,14.48,25.42,25.41a6.82,6.82,0,0,1-7,7.19h-29.65c1.47,6.8,6.2,10.35,12.9,10.35a17.25,17.25,0,0,0,10.64-3.55,5.57,5.57,0,0,1,3.64-1.18,5.73,5.73,0,0,1,5.82,5.91,5.87,5.87,0,0,1-2,4.43A27.37,27.37,0,0,1,1908.45,73.78Zm9.66-31.72c-.89-6.69-4.83-11.23-11.14-11.23s-10.24,4.44-11.42,11.23Z" style="fill:#fff"/>
      <path d="M1941.36,26.7a7.49,7.49,0,1,1,15,0v2.36c2.17-5.12,5.72-9.85,10.15-9.85,4.63,0,7.29,3.05,7.29,7.29a6.88,6.88,0,0,1-5.62,7c-7.58,1.78-11.82,7.59-11.82,18.23v14a7.49,7.49,0,0,1-15,0Z" style="fill:#fff"/>
      <path d="M1977.71,42.06a7.23,7.23,0,0,1,7.19-7.19H2002a7.2,7.2,0,0,1,0,14.39H1984.9A7.24,7.24,0,0,1,1977.71,42.06Z" style="fill:#fff"/>
      <path d="M2020.37,32.61h-.59a6.1,6.1,0,0,1-6.21-6.11,6.18,6.18,0,0,1,6.21-6.21h.59V16.94c0-5.81,1.48-10,4.23-12.8S2031.4,0,2036.72,0a37.37,37.37,0,0,1,6.11.39,6.09,6.09,0,0,1,5.12,6,6.23,6.23,0,0,1-6.11,6.21h-1.28c-3.44,0-5.42,1.77-5.42,5.71v2.07h6.51a6.11,6.11,0,1,1,0,12.22h-6.31v33.1a7.49,7.49,0,0,1-15,0Z" style="fill:#fff"/>
      <path d="M2053,26.7a7.49,7.49,0,1,1,15,0v2.36c2.17-5.12,5.71-9.85,10.15-9.85,4.63,0,7.29,3.05,7.29,7.29a6.88,6.88,0,0,1-5.62,7c-7.58,1.78-11.82,7.59-11.82,18.23v14a7.49,7.49,0,0,1-15,0Z" style="fill:#fff"/>
      <path d="M2091.5,7.19c0-4.33,3.64-7,8.37-7s8.37,2.66,8.37,7v.2c0,4.33-3.64,7.09-8.37,7.09s-8.37-2.76-8.37-7.09Zm.88,19.51a7.49,7.49,0,0,1,15,0v39a7.49,7.49,0,0,1-15,0Z" style="fill:#fff"/>
      <path d="M2144,73.78c-15.86,0-27.58-11.13-27.58-27.28v-.2c0-15.07,10.74-27.48,26.11-27.48,17.63,0,25.41,14.48,25.41,25.41a6.82,6.82,0,0,1-7,7.19H2131.3c1.47,6.8,6.2,10.35,12.9,10.35a17.25,17.25,0,0,0,10.64-3.55,5.58,5.58,0,0,1,3.65-1.18A5.73,5.73,0,0,1,2164.3,63a5.87,5.87,0,0,1-2,4.43A27.37,27.37,0,0,1,2144,73.78Zm9.66-31.72c-.89-6.69-4.83-11.23-11.13-11.23s-10.25,4.44-11.43,11.23Z" style="fill:#fff"/>
      <path d="M2176.91,26.7a7.49,7.49,0,1,1,15,0v.59c3.45-4.44,7.88-8.47,15.47-8.47,11.33,0,17.93,7.48,17.93,19.6V65.71a7.49,7.49,0,0,1-15,0V43.15c0-7.09-3.34-10.74-9.06-10.74s-9.36,3.65-9.36,10.74V65.71a7.49,7.49,0,0,1-15,0Z" style="fill:#fff"/>
      <path d="M2288.92,65.71a7.49,7.49,0,0,1-15,0V65c-3.65,4.92-8.67,8.57-16.45,8.57-12.32,0-24-9.66-24-27.29v-.2c0-17.63,11.52-27.28,24-27.28,8,0,12.9,3.64,16.45,7.88V7.59a7.49,7.49,0,1,1,15,0ZM2248.43,46.1v.2c0,8.77,5.91,14.58,12.91,14.58s12.8-5.81,12.8-14.58v-.2c0-8.76-5.81-14.58-12.8-14.58S2248.43,37.24,2248.43,46.1Z" style="fill:#fff"/>
      <path d="M2300.55,7.59a7.49,7.49,0,1,1,15,0V65.71a7.49,7.49,0,0,1-15,0Z" style="fill:#fff"/>
      <path d="M2329.9,87.28c-2.16-.79-4.72-2.56-4.72-6.21a6,6,0,0,1,5.91-6.1,7,7,0,0,1,2.46.39,9.91,9.91,0,0,0,3.15.59c2.66,0,3.94-.49,5.32-3.15l.49-1.18-18-41.77a10.78,10.78,0,0,1-.79-3.45,7.1,7.1,0,0,1,7.39-7.19c3.74,0,5.91,2.07,7.19,5.61l11.43,30.74,11-30.64c1.18-3.15,3.35-5.71,7.19-5.71a7,7,0,0,1,7.09,6.9,11.16,11.16,0,0,1-.69,3.54l-18.42,44.23c-4.43,10.74-8.87,14.78-17.83,14.78A22.5,22.5,0,0,1,2329.9,87.28Z" style="fill:#fff"/>
      <path d="M101,125.81a7.49,7.49,0,1,1,15,0v19.8c3.64-4.93,8.67-8.57,16.45-8.57,12.31,0,24,9.65,24,27.28v.2c0,17.64-11.53,27.29-24,27.29-8,0-12.9-3.65-16.45-7.88v.1a7.49,7.49,0,0,1-15-.1Zm40.48,38.71v-.2c0-8.76-5.91-14.57-12.9-14.57s-12.81,5.81-12.81,14.57v.2c0,8.77,5.81,14.58,12.81,14.58S141.51,173.39,141.51,164.52Z" style="fill:#fff"/>
      <path d="M162.5,164.72v-.2c0-15.17,12.21-27.48,28.67-27.48s28.47,12.11,28.47,27.28v.2c0,15.17-12.22,27.49-28.67,27.49S162.5,179.89,162.5,164.72Zm42.36,0v-.2c0-7.78-5.62-14.58-13.89-14.58-8.57,0-13.69,6.6-13.69,14.38v.2c0,7.78,5.61,14.58,13.89,14.58C199.74,179.1,204.86,172.5,204.86,164.72Z" style="fill:#fff"/>
      <path d="M224.86,175.65v-.19c0-11.53,8.77-16.85,21.28-16.85a37.49,37.49,0,0,1,12.9,2.17v-.89c0-6.2-3.84-9.65-11.33-9.65a34.25,34.25,0,0,0-10.34,1.48,6.48,6.48,0,0,1-2.17.39A6.1,6.1,0,0,1,229,146a6.2,6.2,0,0,1,4-5.81,46,46,0,0,1,16.84-2.76c8.18,0,14.09,2.17,17.83,5.91,3.94,3.94,5.72,9.75,5.72,16.85v24a7.2,7.2,0,0,1-7.29,7.2c-4.34,0-7.19-3.06-7.19-6.21v-.1c-3.65,4-8.67,6.7-16,6.7C233,191.81,224.86,186.1,224.86,175.65Zm34.38-3.44v-2.66a23.09,23.09,0,0,0-9.56-2c-6.4,0-10.34,2.56-10.34,7.29v.19c0,4,3.35,6.41,8.18,6.41C254.51,181.47,259.24,177.62,259.24,172.21Z" style="fill:#fff"/>
      <path d="M283.87,144.92a7.49,7.49,0,1,1,15,0v2.36c2.17-5.12,5.72-9.85,10.15-9.85,4.63,0,7.29,3,7.29,7.29a6.89,6.89,0,0,1-5.61,7c-7.59,1.77-11.83,7.58-11.83,18.22v14a7.49,7.49,0,1,1-15,0Z" style="fill:#fff"/>
      <path d="M374.7,183.93a7.49,7.49,0,1,1-15,0v-.69c-3.65,4.92-8.67,8.57-16.45,8.57-12.32,0-24-9.65-24-27.29v-.2c0-17.63,11.53-27.28,24-27.28,8,0,12.9,3.64,16.45,7.88V125.81a7.49,7.49,0,1,1,15,0Zm-40.49-19.61v.2c0,8.77,5.91,14.58,12.91,14.58s12.8-5.81,12.8-14.58v-.2c0-8.76-5.81-14.57-12.8-14.57S334.21,155.46,334.21,164.32Z" style="fill:#fff"/>
      <path d="M385.64,144.92a7.49,7.49,0,1,1,15,0v2.36c2.17-5.12,5.72-9.85,10.15-9.85,4.63,0,7.29,3,7.29,7.29a6.89,6.89,0,0,1-5.62,7c-7.58,1.77-11.82,7.58-11.82,18.22v14a7.49,7.49,0,1,1-15,0Z" style="fill:#fff"/>
      <path d="M420.32,164.72v-.2c0-15.17,12.21-27.48,28.66-27.48s28.47,12.11,28.47,27.28v.2c0,15.17-12.21,27.49-28.66,27.49S420.32,179.89,420.32,164.72Zm42.36,0v-.2c0-7.78-5.62-14.58-13.89-14.58-8.57,0-13.7,6.6-13.7,14.38v.2c0,7.78,5.62,14.58,13.89,14.58C457.55,179.1,462.68,172.5,462.68,164.72Z" style="fill:#fff"/>
      <path d="M483.27,164.72v-.2c0-15.17,12.22-27.48,28.67-27.48s28.47,12.11,28.47,27.28v.2c0,15.17-12.22,27.49-28.67,27.49S483.27,179.89,483.27,164.72Zm42.36,0v-.2c0-7.78-5.62-14.58-13.89-14.58-8.57,0-13.69,6.6-13.69,14.38v.2c0,7.78,5.61,14.58,13.89,14.58C520.51,179.1,525.63,172.5,525.63,164.72Z" style="fill:#fff"/>
      <path d="M548.78,144.92a7.49,7.49,0,0,1,15,0v.59c3.44-4.43,8-8.47,15.56-8.47,6.9,0,12.12,3.05,14.88,8.37,4.63-5.42,10.14-8.37,17.33-8.37,11.14,0,17.83,6.7,17.83,19.4v27.49a7.49,7.49,0,1,1-15,0V161.37c0-7.09-3.15-10.74-8.77-10.74s-9.06,3.65-9.06,10.74v22.56a7.49,7.49,0,1,1-15,0V161.37c0-7.09-3.16-10.74-8.77-10.74s-9.06,3.65-9.06,10.74v22.56a7.49,7.49,0,0,1-15,0Z" style="fill:#fff"/>
      <path d="M667,144.92a7.49,7.49,0,0,1,15,0v.59c3.44-4.43,8-8.47,15.56-8.47,6.9,0,12.12,3.05,14.88,8.37,4.63-5.42,10.14-8.37,17.33-8.37,11.14,0,17.83,6.7,17.83,19.4v27.49a7.49,7.49,0,1,1-15,0V161.37c0-7.09-3.15-10.74-8.77-10.74s-9.06,3.65-9.06,10.74v22.56a7.49,7.49,0,1,1-15,0V161.37c0-7.09-3.16-10.74-8.77-10.74S682,154.28,682,161.37v22.56a7.49,7.49,0,0,1-15,0Z" style="fill:#fff"/>
      <path d="M755,175.65v-.19c0-11.53,8.77-16.85,21.28-16.85a37.49,37.49,0,0,1,12.9,2.17v-.89c0-6.2-3.84-9.65-11.33-9.65a34.25,34.25,0,0,0-10.34,1.48,6.48,6.48,0,0,1-2.17.39,6.09,6.09,0,0,1-6.2-6.11,6.21,6.21,0,0,1,4-5.81A46.08,46.08,0,0,1,780,137.43c8.18,0,14.09,2.17,17.83,5.91,3.94,3.94,5.71,9.75,5.71,16.85v24a7.2,7.2,0,0,1-7.29,7.2c-4.33,0-7.19-3.06-7.19-6.21v-.1c-3.64,4-8.67,6.7-16,6.7C763.15,191.81,755,186.1,755,175.65Zm34.38-3.44v-2.66a23.09,23.09,0,0,0-9.56-2c-6.4,0-10.34,2.56-10.34,7.29v.19c0,4,3.35,6.41,8.18,6.41C784.63,181.47,789.36,177.62,789.36,172.21Z" style="fill:#fff"/>
      <path d="M814,144.92a7.49,7.49,0,1,1,15,0v.59c3.45-4.43,7.88-8.47,15.47-8.47,11.33,0,17.93,7.48,17.93,19.6v27.29a7.49,7.49,0,0,1-15,0V161.37c0-7.09-3.34-10.74-9.06-10.74S829,154.28,829,161.37v22.56a7.49,7.49,0,1,1-15,0Z" style="fill:#fff"/>
      <path d="M869.75,175.65v-.19c0-11.53,8.77-16.85,21.28-16.85a37.49,37.49,0,0,1,12.9,2.17v-.89c0-6.2-3.84-9.65-11.33-9.65a34.25,34.25,0,0,0-10.34,1.48,6.48,6.48,0,0,1-2.17.39,6.1,6.1,0,0,1-6.2-6.11,6.2,6.2,0,0,1,4-5.81,46,46,0,0,1,16.84-2.76c8.18,0,14.09,2.17,17.83,5.91,3.94,3.94,5.72,9.75,5.72,16.85v24a7.2,7.2,0,0,1-7.29,7.2c-4.34,0-7.2-3.06-7.2-6.21v-.1c-3.64,4-8.66,6.7-16,6.7C877.93,191.81,869.75,186.1,869.75,175.65Zm34.38-3.44v-2.66a23.09,23.09,0,0,0-9.56-2c-6.4,0-10.34,2.56-10.34,7.29v.19c0,4,3.35,6.41,8.18,6.41C899.4,181.47,904.13,177.62,904.13,172.21Z" style="fill:#fff"/>
      <path d="M933.1,203.14A6.11,6.11,0,0,1,935,191.22a6.19,6.19,0,0,1,2.46.49A34.1,34.1,0,0,0,952,194.86c10.24,0,15.07-4.92,15.07-14.38v-2.56c-4.43,5.32-9.26,8.57-17.24,8.57-12.31,0-23.44-9-23.44-24.63v-.19c0-15.77,11.33-24.63,23.44-24.63,8.18,0,13,3.44,17,7.88v-.1a7.49,7.49,0,0,1,15,.1v34c0,9.46-2.27,16.36-6.7,20.79-4.93,4.93-12.51,7.09-22.76,7.09A50.63,50.63,0,0,1,933.1,203.14Zm34-41.28v-.19c0-7.2-5.61-12.22-12.9-12.22s-12.81,5-12.81,12.22v.19c0,7.29,5.52,12.22,12.81,12.22S967.08,169.05,967.08,161.86Z" style="fill:#fff"/>
      <path d="M1017.82,192c-15.86,0-27.58-11.14-27.58-27.29v-.2c0-15.07,10.73-27.48,26.1-27.48,17.63,0,25.42,14.48,25.42,25.41a6.83,6.83,0,0,1-7,7.19h-29.65c1.48,6.8,6.21,10.35,12.91,10.35a17.24,17.24,0,0,0,10.63-3.55,5.59,5.59,0,0,1,3.65-1.18,5.72,5.72,0,0,1,5.81,5.91,5.87,5.87,0,0,1-2,4.43A27.36,27.36,0,0,1,1017.82,192Zm9.65-31.72c-.88-6.7-4.82-11.23-11.13-11.23s-10.24,4.43-11.43,11.23Z" style="fill:#fff"/>
      <path d="M1050.72,144.92a7.49,7.49,0,1,1,15,0v.59c3.45-4.43,8-8.47,15.56-8.47,6.9,0,12.12,3.05,14.88,8.37,4.63-5.42,10.14-8.37,17.34-8.37,11.13,0,17.83,6.7,17.83,19.4v27.49a7.49,7.49,0,0,1-15,0V161.37c0-7.09-3.15-10.74-8.77-10.74s-9.06,3.65-9.06,10.74v22.56a7.49,7.49,0,1,1-15,0V161.37c0-7.09-3.15-10.74-8.77-10.74s-9.06,3.65-9.06,10.74v22.56a7.49,7.49,0,1,1-15,0Z" style="fill:#fff"/>
      <path d="M1166.88,192c-15.87,0-27.59-11.14-27.59-27.29v-.2c0-15.07,10.74-27.48,26.11-27.48,17.63,0,25.41,14.48,25.41,25.41a6.82,6.82,0,0,1-7,7.19h-29.65c1.47,6.8,6.2,10.35,12.9,10.35a17.25,17.25,0,0,0,10.64-3.55,5.58,5.58,0,0,1,3.65-1.18,5.72,5.72,0,0,1,5.81,5.91,5.87,5.87,0,0,1-2,4.43A27.36,27.36,0,0,1,1166.88,192Zm9.65-31.72c-.89-6.7-4.83-11.23-11.13-11.23s-10.25,4.43-11.43,11.23Z" style="fill:#fff"/>
      <path d="M1199.78,144.92a7.49,7.49,0,1,1,15,0v.59c3.45-4.43,7.88-8.47,15.47-8.47,11.33,0,17.93,7.48,17.93,19.6v27.29a7.49,7.49,0,1,1-15,0V161.37c0-7.09-3.35-10.74-9.07-10.74s-9.36,3.65-9.36,10.74v22.56a7.49,7.49,0,1,1-15,0Z" style="fill:#fff"/>
      <path d="M1261.16,175.85v-25h-.5a6.41,6.41,0,0,1,0-12.81h.5v-6.6a7.49,7.49,0,0,1,15,0V138h6.6a6.41,6.41,0,0,1,0,12.81h-6.6v22.56c0,3.45,1.48,5.12,4.83,5.12.49,0,1.47-.1,1.77-.1a6.25,6.25,0,0,1,6.21,6.21,6.09,6.09,0,0,1-3.85,5.61,22,22,0,0,1-8.57,1.48C1267.36,191.71,1261.16,188.07,1261.16,175.85Z" style="fill:#fff"/>
      <path d="M1324.21,144.92a7.49,7.49,0,1,1,15,0v.69c3.64-4.93,8.67-8.57,16.45-8.57,12.31,0,24,9.65,24,27.28v.2c0,17.64-11.53,27.29-24,27.29-8,0-12.91-3.65-16.45-7.88v15.76a7.49,7.49,0,1,1-15,0Zm40.48,19.6v-.2c0-8.76-5.91-14.57-12.9-14.57S1339,155.56,1339,164.32v.2c0,8.77,5.81,14.58,12.81,14.58S1364.69,173.39,1364.69,164.52Z" style="fill:#fff"/>
      <path d="M1385.68,164.72v-.2c0-15.17,12.21-27.48,28.67-27.48s28.47,12.11,28.47,27.28v.2c0,15.17-12.22,27.49-28.67,27.49S1385.68,179.89,1385.68,164.72Zm42.36,0v-.2c0-7.78-5.62-14.58-13.89-14.58-8.57,0-13.69,6.6-13.69,14.38v.2c0,7.78,5.61,14.58,13.89,14.58C1422.92,179.1,1428,172.5,1428,164.72Z" style="fill:#fff"/>
      <path d="M1451.19,144.92a7.49,7.49,0,0,1,15,0v2.36c2.16-5.12,5.71-9.85,10.14-9.85,4.63,0,7.29,3,7.29,7.29a6.89,6.89,0,0,1-5.61,7c-7.59,1.77-11.82,7.58-11.82,18.22v14a7.49,7.49,0,0,1-15,0Z" style="fill:#fff"/>
      <path d="M1492.37,175.85v-25h-.49a6.41,6.41,0,0,1,0-12.81h.49v-6.6a7.49,7.49,0,0,1,15,0V138h6.6a6.41,6.41,0,0,1,0,12.81h-6.6v22.56c0,3.45,1.47,5.12,4.82,5.12.5,0,1.48-.1,1.78-.1a6.25,6.25,0,0,1,6.2,6.21,6.08,6.08,0,0,1-3.84,5.61,22,22,0,0,1-8.57,1.48C1498.58,191.71,1492.37,188.07,1492.37,175.85Z" style="fill:#fff"/>
      <path d="M1525.18,175.65v-.19c0-11.53,8.77-16.85,21.28-16.85a37.49,37.49,0,0,1,12.9,2.17v-.89c0-6.2-3.84-9.65-11.33-9.65a34.25,34.25,0,0,0-10.34,1.48,6.48,6.48,0,0,1-2.17.39,6.09,6.09,0,0,1-6.2-6.11,6.21,6.21,0,0,1,4-5.81,46.08,46.08,0,0,1,16.85-2.76c8.18,0,14.09,2.17,17.83,5.91,3.94,3.94,5.71,9.75,5.71,16.85v24a7.2,7.2,0,0,1-7.29,7.2c-4.33,0-7.19-3.06-7.19-6.21v-.1c-3.64,4-8.67,6.7-16,6.7C1533.35,191.81,1525.18,186.1,1525.18,175.65Zm34.38-3.44v-2.66a23.09,23.09,0,0,0-9.56-2c-6.4,0-10.34,2.56-10.34,7.29v.19c0,4,3.35,6.41,8.18,6.41C1554.83,181.47,1559.56,177.62,1559.56,172.21Z" style="fill:#fff"/>
      <path d="M1584.88,125.81a7.49,7.49,0,1,1,15,0v58.12a7.49,7.49,0,1,1-15,0Z" style="fill:#fff"/>
      <path d="M1641.33,205.5c-2.17-.79-4.73-2.56-4.73-6.2a6,6,0,0,1,5.91-6.11,7.24,7.24,0,0,1,2.46.39,9.64,9.64,0,0,0,3.15.59c2.66,0,3.94-.49,5.32-3.15l.5-1.18-18-41.77a10.78,10.78,0,0,1-.79-3.45,7.1,7.1,0,0,1,7.39-7.19c3.74,0,5.91,2.07,7.19,5.62l11.43,30.73,11-30.64c1.18-3.15,3.35-5.71,7.19-5.71a7,7,0,0,1,7.1,6.9,11.14,11.14,0,0,1-.7,3.54l-18.42,44.23c-4.43,10.74-8.86,14.78-17.83,14.78A22.41,22.41,0,0,1,1641.33,205.5Z" style="fill:#fff"/>
      <path d="M1689.5,164.72v-.2c0-15.17,12.22-27.48,28.67-27.48s28.47,12.11,28.47,27.28v.2c0,15.17-12.22,27.49-28.67,27.49S1689.5,179.89,1689.5,164.72Zm42.36,0v-.2c0-7.78-5.61-14.58-13.89-14.58-8.57,0-13.69,6.6-13.69,14.38v.2c0,7.78,5.62,14.58,13.89,14.58C1726.74,179.1,1731.86,172.5,1731.86,164.72Z" style="fill:#fff"/>
      <path d="M1803,183.93a7.49,7.49,0,1,1-15,0v-.59c-3.45,4.43-7.88,8.47-15.47,8.47-11.33,0-17.93-7.49-17.93-19.6V144.92a7.49,7.49,0,0,1,15,0v22.56c0,7.09,3.35,10.73,9.06,10.73s9.36-3.64,9.36-10.73V144.92a7.49,7.49,0,1,1,15,0Z" style="fill:#fff"/>
      <path d="M1838.46,164.72v-.2c0-15.07,11.52-27.48,27.68-27.48,8,0,13.59,2.16,18,5.91a6.65,6.65,0,0,1,2.36,5.12,6.73,6.73,0,0,1-6.8,6.7,7,7,0,0,1-4.33-1.48,14.27,14.27,0,0,0-9.36-3.35c-7.49,0-12.81,6.6-12.81,14.38v.2c0,8.08,5.23,14.58,13.4,14.58a15.18,15.18,0,0,0,9.85-3.64,7,7,0,0,1,4-1.38,6.35,6.35,0,0,1,4.14,11.13c-4.43,4-10.05,6.8-18.72,6.8A27,27,0,0,1,1838.46,164.72Z" style="fill:#fff"/>
      <path d="M1891.66,175.65v-.19c0-11.53,8.76-16.85,21.28-16.85a37.49,37.49,0,0,1,12.9,2.17v-.89c0-6.2-3.84-9.65-11.33-9.65a34.25,34.25,0,0,0-10.34,1.48,6.48,6.48,0,0,1-2.17.39,6.1,6.1,0,0,1-6.21-6.11,6.21,6.21,0,0,1,4-5.81,46,46,0,0,1,16.85-2.76c8.18,0,14.09,2.17,17.83,5.91,3.94,3.94,5.71,9.75,5.71,16.85v24a7.2,7.2,0,0,1-7.29,7.2c-4.33,0-7.19-3.06-7.19-6.21v-.1c-3.64,4-8.67,6.7-16,6.7C1899.83,191.81,1891.66,186.1,1891.66,175.65Zm34.38-3.44v-2.66a23.09,23.09,0,0,0-9.56-2c-6.4,0-10.34,2.56-10.34,7.29v.19c0,4,3.35,6.41,8.18,6.41C1921.31,181.47,1926,177.62,1926,172.21Z" style="fill:#fff"/>
      <path d="M1950.67,144.92a7.49,7.49,0,1,1,15,0v.59c3.45-4.43,7.88-8.47,15.47-8.47,11.33,0,17.93,7.48,17.93,19.6v27.29a7.49,7.49,0,0,1-15,0V161.37c0-7.09-3.35-10.74-9.06-10.74s-9.36,3.65-9.36,10.74v22.56a7.49,7.49,0,1,1-15,0Z" style="fill:#fff"/>
      <path d="M2039.13,175.85v-25h-.49a6.41,6.41,0,0,1,0-12.81h.49v-6.6a7.49,7.49,0,0,1,15,0V138h6.6a6.41,6.41,0,0,1,0,12.81h-6.6v22.56c0,3.45,1.48,5.12,4.83,5.12.49,0,1.47-.1,1.77-.1a6.25,6.25,0,0,1,6.21,6.21,6.09,6.09,0,0,1-3.85,5.61,22,22,0,0,1-8.57,1.48C2045.34,191.71,2039.13,188.07,2039.13,175.85Z" style="fill:none;stroke:#00c6ff;stroke-miterlimit:10;stroke-width:3px"/>
      <path d="M2075.09,144.92a7.49,7.49,0,0,1,15,0v2.36c2.17-5.12,5.71-9.85,10.14-9.85,4.63,0,7.29,3,7.29,7.29a6.89,6.89,0,0,1-5.61,7c-7.59,1.77-11.82,7.58-11.82,18.22v14a7.49,7.49,0,0,1-15,0Z" style="fill:none;stroke:#00c6ff;stroke-miterlimit:10;stroke-width:3px"/>
      <path d="M2161.79,183.93a7.49,7.49,0,1,1-15,0v-.59c-3.45,4.43-7.88,8.47-15.46,8.47-11.33,0-17.93-7.49-17.93-19.6V144.92a7.49,7.49,0,1,1,15,0v22.56c0,7.09,3.35,10.73,9.06,10.73s9.36-3.64,9.36-10.73V144.92a7.49,7.49,0,1,1,15,0Z" style="fill:none;stroke:#00c6ff;stroke-miterlimit:10;stroke-width:3px"/>
      <path d="M2171.34,185.8a6,6,0,0,1-2.85-5.12,5.8,5.8,0,0,1,5.91-5.91,5.73,5.73,0,0,1,2.95.78c5,3.16,10.05,4.73,14.29,4.73s6.3-1.57,6.3-3.94v-.19c0-3.25-5.12-4.34-10.93-6.11-7.39-2.17-15.76-5.62-15.76-15.86V154c0-10.74,8.67-16.75,19.3-16.75a37.18,37.18,0,0,1,16.36,4,6.12,6.12,0,0,1,3.54,5.62,5.89,5.89,0,0,1-6,5.91,5.46,5.46,0,0,1-2.75-.69c-4.24-2.07-8.28-3.35-11.43-3.35-3.65,0-5.52,1.58-5.52,3.64v.2c0,3,5,4.34,10.74,6.31,7.39,2.46,16,6,16,15.66v.2c0,11.72-8.77,17-20.2,17A36.8,36.8,0,0,1,2171.34,185.8Z" style="fill:none;stroke:#00c6ff;stroke-miterlimit:10;stroke-width:3px"/>
      <path d="M2221.19,175.85v-25h-.49a6.41,6.41,0,0,1,0-12.81h.49v-6.6a7.49,7.49,0,0,1,15,0V138h6.6a6.41,6.41,0,0,1,0,12.81h-6.6v22.56c0,3.45,1.48,5.12,4.83,5.12.49,0,1.47-.1,1.77-.1a6.24,6.24,0,0,1,6.2,6.21,6.08,6.08,0,0,1-3.84,5.61,22,22,0,0,1-8.57,1.48C2227.4,191.71,2221.19,188.07,2221.19,175.85Z" style="fill:none;stroke:#00c6ff;stroke-miterlimit:10;stroke-width:3px"/>
      <path d="M2264.54,174.47a8.29,8.29,0,0,1,8.57,8.37v.2a8.57,8.57,0,0,1-17.14,0v-.2A8.3,8.3,0,0,1,2264.54,174.47Z" style="fill:none;stroke:#00c6ff;stroke-miterlimit:10;stroke-width:3px"/>
    </g>
  </g>
</svg>
