<?xml version="1.0"?>
<svg xmlns="http://www.w3.org/2000/svg" viewBox="0 0 300 200">
  <defs>
    <style>.cls-1{fill:#39bff0;}</style>
  </defs>
  <title>logo_lvmh</title>
  <g id="LVMH">
    <path class="cls-1" d="M70,117.25c2.07-.22,3.41-.59,4-1.11s.92-1.82.92-3.92V87.11c0-2-.3-3.28-.91-3.89s-2-1-4-1.13V81H85.91v1.06c-2.07.11-3.46.45-4.17,1s-1,1.79-1,3.66v27.06a2.87,2.87,0,0,0,.31,1.47,1.77,1.77,0,0,0,1.39.68c.43,0,.87.09,1.34.11s1.34,0,2.63,0c5,0,8.4-.42,10.16-1.24s3.47-2.94,5.12-6.35h1.44l-2.76,9.79H70Z"/>
    <path class="cls-1" d="M112,81v1a11.2,11.2,0,0,0-2.87.28,1.76,1.76,0,0,0-1.35,1.81,6,6,0,0,0,.48,2c.32.83.92,2.23,1.8,4.18l8.8,19.61,8-21.25c.35-.93.62-1.73.8-2.37a5.91,5.91,0,0,0,.28-1.59,2.2,2.2,0,0,0-1.41-2.23,8.57,8.57,0,0,0-2.74-.39V81h11.51v1a5.15,5.15,0,0,0-2.63,1,10.8,10.8,0,0,0-2.55,4.29L117.64,119h-.86l-13.9-31c-1.17-2.62-2.12-4.25-2.83-4.89A5,5,0,0,0,97,82V81Z"/>
    <path class="cls-1" d="M137.4,117.25q3.49-.36,4.48-1.58t1-5.68V87.14c0-2-.32-3.35-1-4s-2.1-1-4.38-1.08V81h11.12l12.94,28.05,12.63-28h11.2v1.06q-3.14.21-4,1.14c-.6.61-.9,1.91-.9,3.91v25c0,2,.3,3.37.9,4s2,1,4,1.14v1.06H169.62v-1.06c2.28-.19,3.7-.59,4.26-1.23s.84-2.13.84-4.52V86.23l-14.43,32.08h-.77L145.34,87.55V110q0,4.62,1.34,6c.59.6,1.89,1,3.92,1.24v1.06H137.4Z"/>
    <path class="cls-1" d="M191.54,117.25c2.2-.24,3.58-.64,4.13-1.22s.82-2.06.82-4.48V87.11c0-2-.31-3.3-.92-3.9s-2-1-4-1.12V81h15.64v1.06c-2.06.14-3.4.52-4,1.12s-.92,1.9-.92,3.9v11h17.08v-11q0-3-.9-3.9c-.61-.6-2-1-4-1.12V81H230v1.06c-2.07.14-3.42.52-4,1.12s-.92,1.9-.92,3.9v25.11c0,2,.31,3.33.92,3.9s2,.94,4,1.13v1.06H214.37v-1.06c2.21-.22,3.59-.62,4.13-1.2s.81-2.08.81-4.5v-11H202.23v11.63c0,2,.31,3.33.92,3.91s2,1,4,1.12v1.06H191.54Z"/>
  </g>
</svg>
