<?xml version="1.0"?>
<svg xmlns="http://www.w3.org/2000/svg" viewBox="0 0 300 200">
  <defs>
    <style>.cls-1{fill:#39bff0;}.cls-2{fill:#fff;}</style>
  </defs>
  <title>logo_danone</title>
  <g id="Danone">
    <path class="cls-1" d="M148.24,140.41h-3.33V148a26.21,26.21,0,0,0-3.48-4.28,25.4,25.4,0,0,0-3.7-3.27h-2.81V155.9h3.37V145.29a22.7,22.7,0,0,1,7,10.61h3Zm30.7,0h-3.36V148a27.87,27.87,0,0,0-3.48-4.28,26.48,26.48,0,0,0-3.69-3.27h-2.82V155.9H169V145.29a22.32,22.32,0,0,1,6.95,10.61h3Zm8.19,13.06a4.25,4.25,0,0,1-4-4.06H194a9.94,9.94,0,0,0,.17-1.81,8.72,8.72,0,0,0-1.59-5.3,6.32,6.32,0,0,0-5.43-2.37,6.88,6.88,0,0,0-5,2,10,10,0,0,0-.16,12.69,6.85,6.85,0,0,0,5.36,1.88,8,8,0,0,0,6.48-3.55l-3.21-.74a4.34,4.34,0,0,1-3.49,1.26m-3.86-7.1a4.15,4.15,0,0,1,3.95-3.54,3.93,3.93,0,0,1,2.58,1,4,4,0,0,1,1.18,2.61v.35h-7.81Zm-18.5,1.77a7.85,7.85,0,1,1-7.84-8.27,8.1,8.1,0,0,1,7.84,8.27m-7.84-5.22a5.26,5.26,0,1,0,4.73,5.22,5,5,0,0,0-4.73-5.22m-46.25-3a27.92,27.92,0,0,0-4.6.36c.18.62.27,2.09.27,7.85s-.12,7.42-.18,7.92a19.35,19.35,0,0,0,4,.39c3.45,0,9.64-1.51,9.79-8.55.09-7.19-6.31-8-9.25-8m0,13.54a6.06,6.06,0,0,1-1-.05v-10.5c.38,0,.82,0,1.27,0,1.68,0,5.75.67,5.75,5.27s-4,5.35-6,5.33m17.81-13.06h-3.25c-3.58,3.86-5.38,9.84-5.87,15.49h3.38c.11-1.15.25-2.28.44-3.39h7.16c.2,1.11.34,2.24.45,3.39h3.51c-.49-5.65-2.24-11.63-5.82-15.49m-4.61,9.23a24.07,24.07,0,0,1,2.88-6.46,23.22,23.22,0,0,1,2.9,6.46Z"/>
    <path class="cls-2" d="M149.13,43.48a1.21,1.21,0,0,0-.51.25h-.21l-.07,0h0l-.21,0a.92.92,0,0,0-.41,0h-.09a.38.38,0,0,0-.15,0,1.54,1.54,0,0,1-.42-.07,1.72,1.72,0,0,0-.44-.06l-.84.09a1.14,1.14,0,0,0-.48.28l-.33,0c-.06-.06-.11-.1-.15-.1s-.09.07-.13.13l-.34,0a1.61,1.61,0,0,0-.39.12.89.89,0,0,1-.33.08.39.39,0,0,0-.2-.05.31.31,0,0,0-.14.09h-.06l-.29,0c-.08-.07-.17-.16-.23-.15l-.06,0a.36.36,0,0,0-.22,0,5.4,5.4,0,0,0-.74.33h0c-.11,0-.24,0-.35,0a.41.41,0,0,1-.19,0,.58.58,0,0,0-.18,0c-.12,0-.23.1-.34.12l-.08,0h0a3.2,3.2,0,0,0-.55.17c-.1,0-.2,0-.3.06a.1.1,0,0,0-.09,0,.16.16,0,0,0-.08.06,6.28,6.28,0,0,0-.86.19.56.56,0,0,0-.35-.09.51.51,0,0,0-.23.19.71.71,0,0,0-.21,0,.31.31,0,0,0-.15.15l-.25.08a2.46,2.46,0,0,1-.41.13.42.42,0,0,0-.18.08h0c-.11,0-.24,0-.35,0s-.09.1-.12.17A1.48,1.48,0,0,0,136,46h0a.36.36,0,0,0-.17,0c-.07,0-.12.15-.18.23l-.16.06h0l-.09,0s0,0,0,0l-.19.06-.07,0c-.09,0-.19-.1-.26-.07s-.17.2-.29.24-.19.15-.3.19-.25,0-.36.05-.19.17-.3.21a.25.25,0,0,1-.19,0,.46.46,0,0,0-.2,0,.45.45,0,0,0-.12.12.63.63,0,0,0-.31,0c-.26.11-.56.13-.81.24a.71.71,0,0,0-.28.38l-.06,0c-.06,0-.14,0-.22,0s-.17-.07-.22,0-.16.21-.26.26l-.14.08a.57.57,0,0,0-.42-.07c-.25.12-.46.34-.71.47s-.44.38-.69.52a.81.81,0,0,0-.28.36c-.11,0-.23-.11-.29-.07s-.09.32-.19.38-.23.08-.33.14-.26,0-.36.09-.23.08-.33.14-.17.18-.27.24l-.13.1c-.24.1-.63,0-.85.13s-.34.52-.57.67-.58.15-.81.31-.28.41-.43.6a.6.6,0,0,0-.2.08.33.33,0,0,0-.08.21l-.16.24a1.48,1.48,0,0,0-.21.13c-.1.08-.25.07-.35.14s-.11.24-.2.31l-.17.17c-.22.15-.63.07-.84.24s-.39.42-.6.6a.9.9,0,0,0-.23.38c-.11,0-.22-.08-.27,0s-.07.28-.15.35-.1.21-.16.3h-.1l-.13.16v0a.27.27,0,0,0-.08.07l-.14.1a.3.3,0,0,0-.16.05c-.09.08-.22.12-.3.2a.22.22,0,0,0,0,.08l-.06,0a.55.55,0,0,0-.13.32l-.18.15a.44.44,0,0,0-.08.11,2.83,2.83,0,0,0-.28.2c-.11,0-.24,0-.3,0s0,.13,0,.23a1.71,1.71,0,0,0-.11.14l-.06-.06a.33.33,0,0,1-.13.13s0,.09,0,.14l0,0a.35.35,0,0,0,0,.21.43.43,0,0,0,0,0,.62.62,0,0,0-.38.14l0,.07s0,0-.06,0-.17.16-.25.25,0,.27-.13.36-.08.25-.15.33a.25.25,0,0,0,0,.07c-.09.1-.19.2-.27.3a.77.77,0,0,0-.14.21h0l-.07,0,0,0c-.09,0-.18,0-.22.08s-.28.08-.35.18,0,.3,0,.41l-.22.11c-.08,0-.16,0-.19.06a.19.19,0,0,0,0,.15,1.26,1.26,0,0,0-.13.34c-.12,0-.26,0-.31.06s-.07.24-.14.34,0,.17,0,.26l-.27.24a.26.26,0,0,0-.1.07c-.07.1-.25.11-.32.21a.06.06,0,0,0,0,.07.93.93,0,0,0-.3.25c-.17.23-.38.43-.53.66a.93.93,0,0,0-.11.42.13.13,0,0,0-.07,0c-.07.1-.06.25-.12.35s-.1.22-.16.32,0,.3,0,.4l0,0a2.12,2.12,0,0,1-.26.26l-.1.08c-.21,0-.43.08-.51.21a.5.5,0,0,0,0,.36c-.2.31-.4.65-.58,1a.46.46,0,0,0-.2.15c-.14.25-.22.53-.35.78a.77.77,0,0,0-.08.27.24.24,0,0,0-.09.08c0,.11-.08.23-.13.33a.25.25,0,0,0,0,.18,2.28,2.28,0,0,0-.47.66.8.8,0,0,0,0,.18l-.13.27a.17.17,0,0,0,0,.14l-.09.22a.63.63,0,0,0,0,.31l-.14.22c-.07,0-.13,0-.15.1a.11.11,0,0,0,0,.11,3.36,3.36,0,0,1-.24.29c-.21.23-.18.29-.24.57a3.47,3.47,0,0,1-.13.46.52.52,0,0,0-.2.22c-.1.26-.2.53-.29.8a1.36,1.36,0,0,0-.07.35.46.46,0,0,0-.07.14c0,.12-.11.22-.14.33s.14.3.1.41-.23.17-.27.29,0,.26,0,.37-.23.17-.26.29.17.3.14.41-.29.16-.32.28,0,.23-.08.34a.71.71,0,0,0,0,.2,2.37,2.37,0,0,0-.35.67c0,.14-.07.27-.1.41a1,1,0,0,0-.16.34.43.43,0,0,0,0,.29l0,.17a4.37,4.37,0,0,0-.05.88.37.37,0,0,1,0,.12,1.13,1.13,0,0,0-.08.24.61.61,0,0,0,0,.14h0s0,0,0,.06h0a1,1,0,0,1,0,.58,1.66,1.66,0,0,0-.1.29c-.06,0-.11.06-.12.1a.19.19,0,0,0,0,.1.69.69,0,0,0-.27.34c0,.28,0,.57-.06.85s.11.33.22.51,0,.23,0,.34a.35.35,0,0,0,0,.17h0a.53.53,0,0,1,0,.13l-.2.25c-.06,0-.12.08-.12.13a.13.13,0,0,0,0,.06l0,.1c0,.28.12.58.1.86a4.85,4.85,0,0,1-.16.63S106,85,106,85s0,.08.06.12c0,.27-.12.54-.13.81s0,.56,0,.84v0s0,.24-.05.34a3.86,3.86,0,0,0,0,.5c0,.06.12.25.08.33a.72.72,0,0,0,0,.25v.2c0,.28,0,.56,0,.84s.11.54.13.81c0,0-.07.08-.06.11s0,.08.09.12a4.85,4.85,0,0,1,.16.63c0,.28-.12.58-.1.86l0,.09a.2.2,0,0,0,0,.07s.06.09.12.12.14.17.2.26a.53.53,0,0,1,0,.13h0a.33.33,0,0,0,0,.17c0,.11,0,.23,0,.34a.91.91,0,0,0-.22.51c0,.28.23.15.28.43a1.86,1.86,0,0,1,0,.35c0,.14,0,.26,0,.39v.25a1,1,0,0,0,0,.14.26.26,0,0,0,0,.15.39.39,0,0,0,.12.2c0,.1,0,.21,0,.33s0,.06,0,.09a.47.47,0,0,0,0,.16.24.24,0,0,0,.06.09c0,.2,0,.4.08.61a.34.34,0,0,0,0,.19c.06.28.11.56.17.83s.35.5.42.77a2.62,2.62,0,0,0,.29.58c0,.11-.19.28-.15.39s.28.17.31.28,0,.23.07.35.1.21.13.32-.13.29-.1.4,0,.25,0,.36.26.16.31.26a.74.74,0,0,0,0,.3c.09.27,0,.62,0,.88a.58.58,0,0,0,.23.24h0c0,.11.07.22.12.33s.1.08.19.11a1.21,1.21,0,0,0,0,.18c0,.09.07.17.11.26a.79.79,0,0,0,0,.43.81.81,0,0,0,.33.3c.1.26.22.51.34.76l0,.12a.17.17,0,0,0,0,.13.44.44,0,0,0,0,.26c.11.26.36.45.48.71a.41.41,0,0,0,.1.13.34.34,0,0,0,0,.18,3.14,3.14,0,0,0,.18.31c0,.11.21.16.26.27l0,.09h0a1.12,1.12,0,0,0,.09.22.73.73,0,0,0,.07.29c.12.25.07.6.2.85s.33.19.56.25a4,4,0,0,1,.25.51l.06.11a.27.27,0,0,0,0,.2l.17.31.19.3c.06.1,0,.25.11.35s.15.18.21.28a.19.19,0,0,0,.15.06,1.24,1.24,0,0,0,.27.29c0,.1-.09.21-.06.27s.09.05.17.05a1.51,1.51,0,0,0,.1.65,3.78,3.78,0,0,0,.49.49h0l.09.11,0,0a.75.75,0,0,1,.07.12c0,.08,0,.18,0,.26.12.29.43.49.57.78a6.44,6.44,0,0,0,.4.73v0l.14.13.06.07,0,.1a2.33,2.33,0,0,1,.32.25,2.86,2.86,0,0,0,.48.36,1.92,1.92,0,0,1,.39.5,4.14,4.14,0,0,0,.79.83,4.68,4.68,0,0,1,.63.55c.16.19.39.32.46.57a2.35,2.35,0,0,0,0,.24.71.71,0,0,1,.33.35l.34.17h0a.86.86,0,0,0,.2.13l.07,0a2.43,2.43,0,0,0,.2.25,5.48,5.48,0,0,1,.49.35s0,0,0,0,0,.17,0,.2.23.1.32.18l.11.08.28.25a.56.56,0,0,0,0,.08c.13.08.43.33.73.51.11.07.2,0,.31.11a16.26,16.26,0,0,0,1.65.82l.15.1c0,.08.3.18.36.26s.3.17.35.21.18.19.26.21a1.51,1.51,0,0,0,.42.38c.23.17.5.08.73.24s.38.46.61.61a3.52,3.52,0,0,0,.63.27l.14.1c.1.06.16.18.26.24a3.45,3.45,0,0,0,.34.14c.1.06.25,0,.35.1s.22.08.33.14.15.2.25.25.12.11.23.07a.94.94,0,0,0,.28.36c.25.13.45.17.7.3s.28.24.53.36c.1.06.32.21.48.15l.14.07c.1.05.16.22.26.27s.14,0,.22,0,.16-.07.22,0l.06,0c.08.16.15.32.28.38s.55.13.81.24a.63.63,0,0,0,.31,0,.43.43,0,0,0,.16.14c.05,0,.08.09.16.07s0,.07,0,.09.18.17.3.21.24,0,.35.06.2.14.31.19.17.2.28.24.17,0,.26-.07l.08,0,.18.07,0,0,.08,0h0l.15,0c.06.09.11.21.18.23a.25.25,0,0,0,.18,0h0a1,1,0,0,0,.34.13c0,.08.06.16.12.18s.24,0,.35.05h0a.42.42,0,0,0,.18.08,2.46,2.46,0,0,1,.41.13l.25.09c0,.06.08.13.14.14l.21,0a.47.47,0,0,0,.23.18.5.5,0,0,0,.36-.08,7.53,7.53,0,0,0,.85.2.24.24,0,0,0,.09.06l.09,0,.29.06a3.54,3.54,0,0,0,.55.18h0l.08,0c.12,0,.22.1.34.12a.37.37,0,0,0,.18,0,.41.41,0,0,1,.19,0c.11,0,.24,0,.35,0h0c.26.07.48.29.74.34a.37.37,0,0,0,.22,0l.06,0c.07,0,.15-.08.23-.15l.29,0h.06a.37.37,0,0,0,.14.09.53.53,0,0,0,.2,0,1,1,0,0,1,.34.08,1.41,1.41,0,0,0,.38.12l.34.05c0,.07.08.12.13.13s.09,0,.15-.09l.33.05a1.14,1.14,0,0,0,.48.28c.28,0,.56.07.84.09a1.07,1.07,0,0,0,.43-.06,1.65,1.65,0,0,1,.43-.06.38.38,0,0,0,.15,0h.09a1.11,1.11,0,0,0,.41,0l.21-.05h0l.08,0h.06l.15,0a1.34,1.34,0,0,0,.51.25h0a.44.44,0,0,0,.23-.09h0c.08,0,.15-.13.22-.24h0l.22,0c.09.09.17.24.25.24s.24-.19.36-.19h.08a.94.94,0,0,0,.28.06l.15,0c.07.06.13.12.2.12a.18.18,0,0,0,.09,0,1.15,1.15,0,0,0,.41.08l.12,0a.14.14,0,0,0,.09.05h.36c.11,0,.23-.06.35-.07s.2-.3.31-.35h.05c.11,0,.24.3.35.3l.35,0c.12,0,.22-.23.34-.24l.35-.05.18,0,.18,0a.55.55,0,0,1,.18,0,.38.38,0,0,0,.18,0c.12,0,.24,0,.35,0s.1-.06.14-.12a.64.64,0,0,0,.32.07c.28,0,.53-.23.81-.27a.86.86,0,0,1,.35,0,.24.24,0,0,0,.15.09l.05,0a.93.93,0,0,0,.33,0,.68.68,0,0,0,.33-.29c.11,0,.23.07.33,0s.21-.15.33-.18.13-.1.2-.16a.85.85,0,0,0,.43.07,1.27,1.27,0,0,1,.43,0,1.1,1.1,0,0,0,.44,0c.28-.06.56-.1.83-.17s.42-.41.64-.53a.24.24,0,0,0,.12,0l.08,0c.26,0,.58.24.81.18s.4-.32.61-.45a.54.54,0,0,0,.25,0,.28.28,0,0,0,.14-.1,1.72,1.72,0,0,0,.51,0l0,0h0l.1-.05a.24.24,0,0,1,.14-.1l0,0,.16-.05h0l.08,0,.05,0,.18-.07.08,0c.09,0,.19.1.26.08s.17-.21.28-.25.2-.14.31-.19.25,0,.36-.05.19-.17.29-.21a.35.35,0,0,1,.2,0,.32.32,0,0,0,.19,0,.45.45,0,0,0,.13-.11.8.8,0,0,0,.31,0c.25-.11.56-.13.81-.24s.2-.22.28-.38l.06,0a.33.33,0,0,1,.22,0c.08,0,.16.07.22.05s.16-.22.26-.27l.14-.07a.61.61,0,0,0,.42.06c.25-.12.46-.34.71-.47s.44-.38.68-.51a.87.87,0,0,0,.29-.36c.11,0,.23.1.29.06s.09-.32.19-.38.23-.08.33-.14.25,0,.35-.09.24-.08.34-.14.16-.18.26-.24l.14-.1c.24-.1.63,0,.85-.13s.33-.52.57-.67.58-.15.81-.31.28-.41.42-.6a.66.66,0,0,0,.21-.08s.06-.13.08-.21.1-.16.16-.24a1.48,1.48,0,0,0,.21-.13c.1-.07.25-.07.34-.14s.12-.24.21-.31l.17-.17c.22-.15.63-.07.84-.24s.39-.42.6-.6a.9.9,0,0,0,.23-.38c.11,0,.22.08.27,0s.06-.27.15-.35.09-.21.15-.3h.11l.13-.16v0l.08-.06.14-.11a.38.38,0,0,0,.16,0c.08-.08.22-.11.3-.19a.26.26,0,0,0,.05-.09l.06,0a.59.59,0,0,0,.13-.31,1.29,1.29,0,0,0,.17-.16.81.81,0,0,0,.09-.1l.28-.21c.11,0,.24,0,.3,0s0-.13,0-.23l.12-.13,0,0a.26.26,0,0,1,.13-.06.6.6,0,0,0,.06-.19.11.11,0,0,0,.06,0,.35.35,0,0,0,0-.21.11.11,0,0,1,0,0,.62.62,0,0,0,.38-.14l.05-.07a.11.11,0,0,0,.06,0,2.83,2.83,0,0,0,.24-.25c.08-.09.06-.27.14-.36s.07-.24.15-.33a.16.16,0,0,0,0-.07c.09-.1.18-.19.27-.3a.77.77,0,0,0,.14-.21h0l.08,0s0,0,0,0a.34.34,0,0,0,.22-.08c.08-.09.28-.08.35-.17s0-.31,0-.42l.22-.11c.08,0,.16,0,.19-.06a.16.16,0,0,0,0-.14,1.48,1.48,0,0,0,.13-.35c.12,0,.26,0,.31-.06s.07-.24.14-.33,0-.18,0-.27a2.2,2.2,0,0,0,.28-.24.26.26,0,0,0,.1-.07c.07-.09.25-.11.32-.21s0,0,0-.07a.93.93,0,0,0,.3-.25c.16-.23.37-.43.53-.66a.79.79,0,0,0,.1-.42.16.16,0,0,0,.08,0c.07-.1.06-.25.12-.35s.1-.22.16-.32,0-.29,0-.4a.08.08,0,0,0,0,0,3.44,3.44,0,0,1,.27-.27l.1-.08c.21,0,.43-.08.51-.2a.53.53,0,0,0,0-.37c.2-.31.4-.65.58-1a.46.46,0,0,0,.2-.15c.13-.25.22-.53.35-.77a1.29,1.29,0,0,0,.08-.28.15.15,0,0,0,.08-.08c.06-.11.09-.23.14-.33a.25.25,0,0,0,0-.18,2.28,2.28,0,0,0,.47-.66.85.85,0,0,0,0-.17c0-.1.09-.18.13-.28s0-.09,0-.14l.09-.22a.6.6,0,0,0,0-.3,1.76,1.76,0,0,1,.14-.23c.07,0,.13,0,.15-.1a.14.14,0,0,0,0-.11,3.25,3.25,0,0,1,.23-.29.85.85,0,0,0,.25-.57,3.47,3.47,0,0,1,.13-.46.47.47,0,0,0,.2-.22c.1-.26.2-.53.29-.79a1.53,1.53,0,0,0,.07-.36.37.37,0,0,0,.07-.14c0-.11.11-.22.14-.33s-.14-.3-.1-.41.23-.17.27-.28,0-.26,0-.38.24-.17.27-.29-.18-.3-.14-.41.28-.16.32-.28,0-.23.08-.34a.49.49,0,0,0,0-.2,2.39,2.39,0,0,0,.36-.67c0-.14.07-.27.1-.41a1.17,1.17,0,0,0,.16-.34.5.5,0,0,0,0-.29l0-.17a4.37,4.37,0,0,0,0-.88.5.5,0,0,1,0-.12,1.13,1.13,0,0,0,.08-.24.61.61,0,0,0,0-.14h0v-.06h0a1,1,0,0,1,0-.58,1.42,1.42,0,0,0,.1-.29c.06,0,.11-.06.11-.1a.13.13,0,0,0,0-.1.66.66,0,0,0,.26-.34c0-.28,0-.57.07-.85s-.11-.33-.22-.51,0-.23,0-.34a.44.44,0,0,0,0-.16h0a.62.62,0,0,1,0-.13l.2-.25c.06,0,.11-.08.12-.13a.13.13,0,0,0,0-.06l0-.1c0-.28-.12-.57-.1-.85a4.61,4.61,0,0,1,.16-.64s.09-.07.09-.11a.17.17,0,0,0-.06-.12c0-.27.12-.53.13-.8s0-.57,0-.85a1.58,1.58,0,0,0-.22-.59.25.25,0,0,0,.06-.13c0-.12.06-.23.06-.35a.14.14,0,0,0,0-.1,1.13,1.13,0,0,0,.25-.52,1,1,0,0,0-.18-.45c0-.12-.09-.23-.09-.35s0,0,0,0v-.08a.53.53,0,0,1,0-.12,2.5,2.5,0,0,0,.16-.64,1.4,1.4,0,0,0-.11-.4.28.28,0,0,0,.06-.14c0-.11-.18-.22-.19-.34s.11-.24.1-.36-.13-.2-.18-.29l0-.44-.09-.46v-.1a.21.21,0,0,0,.05-.12l0-.11a1.75,1.75,0,0,0,.12-.62c0-.13-.17-.24-.34-.34,0-.09,0-.18,0-.27v-.06h0c0-.22,0-.45,0-.67,0-.05,0-.1,0-.15a.26.26,0,0,0,0-.15.43.43,0,0,0-.12-.2,2.88,2.88,0,0,1-.05-.33s0-.06,0-.09a.32.32,0,0,0,0-.16.24.24,0,0,0-.06-.09c0-.2-.05-.4-.08-.6a.38.38,0,0,0,0-.2c-.06-.28-.11-.56-.17-.83s-.35-.5-.42-.77a3.21,3.21,0,0,0-.3-.58c0-.11.19-.28.16-.39s-.28-.16-.31-.28,0-.23-.07-.34a3.27,3.27,0,0,0-.14-.33c0-.12.14-.29.11-.4s0-.25-.05-.36-.26-.16-.31-.26a.75.75,0,0,0,0-.3c-.09-.26.05-.61,0-.88a.65.65,0,0,0-.23-.24l-.12-.33s-.1-.08-.19-.11a1.21,1.21,0,0,0-.05-.18c0-.08-.07-.17-.11-.25a.83.83,0,0,0,0-.44.81.81,0,0,0-.33-.3c-.11-.26-.22-.51-.34-.76l0-.12a.24.24,0,0,0,0-.13.54.54,0,0,0,0-.26c-.11-.26-.36-.45-.48-.71a.57.57,0,0,0-.1-.13.36.36,0,0,0,0-.18c0-.11-.13-.2-.18-.31s-.21-.16-.26-.27a.2.2,0,0,1,0-.08v0a1.12,1.12,0,0,0-.09-.22.73.73,0,0,0-.07-.29c-.13-.25-.07-.6-.2-.85s-.34-.19-.56-.25a4,4,0,0,1-.25-.51l-.06-.11a.34.34,0,0,0,0-.2l-.17-.31-.19-.3c-.06-.1-.05-.25-.11-.35s-.15-.18-.22-.28a.16.16,0,0,0-.15-.06,1.18,1.18,0,0,0-.26-.29c0-.1.09-.21.06-.27a.31.31,0,0,0-.17-.05,1.68,1.68,0,0,0-.1-.65,3.78,3.78,0,0,0-.49-.49h0l-.09-.1,0-.06a.49.49,0,0,1-.07-.11c0-.09,0-.19-.05-.27-.12-.29-.44-.49-.57-.78s-.27-.49-.4-.73v0l-.14-.12a.42.42,0,0,1-.06-.08.47.47,0,0,1,0-.1,2.33,2.33,0,0,1-.32-.25,2.86,2.86,0,0,0-.48-.36,2.05,2.05,0,0,1-.39-.49,4.19,4.19,0,0,0-.79-.84,3.27,3.27,0,0,1-.63-.55c-.16-.19-.39-.32-.46-.57s0-.17,0-.24a.67.67,0,0,1-.33-.35l-.34-.17h0a.92.92,0,0,0-.21-.13l-.06-.05a1.64,1.64,0,0,0-.21-.24c-.15-.13-.33-.22-.48-.36l0,0c0-.09,0-.17,0-.2s-.24-.1-.32-.18l-.11-.08-.28-.25a2.69,2.69,0,0,0-.39-.6c-.21-.18-.46-.33-.67-.51a.94.94,0,0,0-.49-.1l-.14-.1a.34.34,0,0,0-.09-.19s-.1,0-.17,0l-.08-.07-.38-.27c-.09-.08-.12-.23-.21-.3l-.28-.22h0a.56.56,0,0,0-.17-.28l-.68-.5a.48.48,0,0,0-.21-.07l0-.05c-.1-.07-.21-.12-.31-.18s-.13,0-.21,0-.16,0-.21,0l-.3-.17c-.1-.07-.07-.33-.17-.4s-.26.07-.39.09l-.05,0c-.07-.2-.13-.43-.27-.52a.56.56,0,0,0-.32,0c-.06-.08-.1-.2-.18-.25a.31.31,0,0,0-.21,0,.31.31,0,0,1-.21,0c-.08,0-.15-.14-.23-.2s-.11-.43-.24-.5-.62,0-.86-.17a.47.47,0,0,0-.12-.15c-.11-.06-.22-.09-.33-.15a.34.34,0,0,0-.15,0l-.15-.08c-.25-.13-.47-.32-.72-.44a1.29,1.29,0,0,0-.49-.08l-.11-.08c-.11,0-.26,0-.37-.06h0a1,1,0,0,1-.08-.11c0-.09-.06-.22-.12-.26s-.14-.3-.25-.35c-.26-.11-.57-.12-.83-.23s-.49-.29-.75-.4-.51-.24-.77-.35-.44,0-.67.07a.05.05,0,0,0,0,0s-.09,0-.15,0l-.06,0c-.27-.09-.44-.44-.71-.53a2.28,2.28,0,0,0-.59,0,.33.33,0,0,0-.13-.11,1.15,1.15,0,0,0-.26,0c-.21-.13-.38-.38-.61-.44s-.55.15-.81.17a.1.1,0,0,0-.08,0h-.11c-.23-.13-.4-.47-.64-.54s-.56-.11-.83-.17a1.1,1.1,0,0,0-.44,0,1.25,1.25,0,0,1-.43,0,.83.83,0,0,0-.43.07c-.07-.06-.13-.15-.21-.16s-.21-.16-.32-.18a1.75,1.75,0,0,0-.33,0c-.11-.13-.21-.26-.34-.28a.71.71,0,0,0-.32,0l0,0c-.05,0-.1,0-.15.08a.86.86,0,0,1-.35,0c-.28,0-.53-.23-.81-.27a.75.75,0,0,0-.32.06.26.26,0,0,0-.14-.12l-.35,0a.38.38,0,0,0-.18,0,.58.58,0,0,1-.18,0l-.18,0a.55.55,0,0,1-.18,0L154,44c-.12,0-.22-.23-.34-.24l-.35,0c-.11,0-.24.27-.36.3h0c-.11,0-.2-.34-.31-.34s-.23-.07-.35-.08h-.36a.14.14,0,0,0-.09,0,.27.27,0,0,0-.12,0,1.49,1.49,0,0,0-.41.08.18.18,0,0,0-.09,0c-.07,0-.13.06-.2.12l-.15,0a.57.57,0,0,0-.28.06h-.08c-.12,0-.24-.19-.35-.19s-.17.15-.26.23l-.22,0h0c-.07-.1-.14-.24-.21-.23h0a.45.45,0,0,0-.22-.09Z"/>
    <path class="cls-1" d="M149.11,44.59a1.17,1.17,0,0,0-.52.24l-.15,0h-.06l-.07,0h0l-.22,0a1.07,1.07,0,0,0-.4,0h-.09l-.16,0a1.22,1.22,0,0,1-.42-.06,1.34,1.34,0,0,0-.44-.06l-.84.09a1.2,1.2,0,0,0-.48.28l-.33,0a.24.24,0,0,0-.15-.09s-.09.06-.13.13l-.33,0a1.28,1.28,0,0,0-.39.13,1.69,1.69,0,0,1-.34.08.39.39,0,0,0-.2,0,.34.34,0,0,0-.14.08h-.06l-.29,0c-.08-.07-.16-.16-.23-.15s0,0-.06,0a.34.34,0,0,0-.21-.05c-.26.05-.49.26-.74.33h0c-.11,0-.23,0-.35,0a.55.55,0,0,1-.18,0,.43.43,0,0,0-.19,0c-.12,0-.22.09-.34.12s-.05,0-.08,0h0a5.05,5.05,0,0,0-.55.18l-.29.06s-.07,0-.09,0-.06,0-.09.05a8.26,8.26,0,0,0-.86.2.49.49,0,0,0-.35-.09.45.45,0,0,0-.23.19.75.75,0,0,0-.21,0c-.06,0-.1.08-.15.14l-.25.09a1.69,1.69,0,0,1-.4.12.61.61,0,0,0-.18.08h0c-.12,0-.24,0-.36.06a.29.29,0,0,0-.12.17,1.09,1.09,0,0,0-.34.13h0a.22.22,0,0,0-.17,0c-.08,0-.13.15-.18.23l-.16,0h0l-.08,0-.05,0-.18.06-.08,0c-.09,0-.19-.1-.26-.08s-.17.21-.28.25-.2.14-.31.18-.25,0-.36.06-.18.17-.29.21a.35.35,0,0,1-.2,0,.32.32,0,0,0-.19,0,.25.25,0,0,0-.12.11.78.78,0,0,0-.31,0c-.26.11-.56.13-.82.24a.82.82,0,0,0-.28.38l-.06,0a.34.34,0,0,1-.22,0,.31.31,0,0,0-.21-.05c-.11.05-.16.22-.27.27l-.13.07c-.17-.07-.32-.12-.43-.06s-.46.34-.71.47-.44.38-.68.51a.87.87,0,0,0-.29.36c-.1,0-.23-.1-.29-.07s-.09.33-.19.39-.23.08-.33.13-.25,0-.35.1-.23.08-.33.14-.17.18-.27.24l-.14.1c-.24.1-.63,0-.85.12s-.33.52-.56.68-.59.15-.82.31-.27.41-.42.59a1,1,0,0,0-.21.09c-.05,0-.06.12-.08.21l-.16.24-.21.13c-.09.07-.25.06-.34.14s-.11.24-.2.31a.91.91,0,0,0-.17.17c-.23.15-.64.07-.85.24s-.38.42-.6.6a1.06,1.06,0,0,0-.23.37c-.11,0-.22-.07-.26,0s-.07.28-.16.36-.09.21-.15.3h-.11l-.13.16v0l-.08.06-.14.11a.28.28,0,0,0-.16.05c-.08.08-.21.11-.3.19a.19.19,0,0,0,0,.09.1.1,0,0,0,0,0,.53.53,0,0,0-.14.31l-.17.15-.09.11a2.92,2.92,0,0,0-.28.21c-.11,0-.24,0-.29,0s0,.13,0,.23l-.12.13-.06-.06a.19.19,0,0,1-.13.13c0,.05,0,.1,0,.15l-.05,0s0,.12,0,.2,0,0,0,0a.73.73,0,0,0-.38.15l0,.07,0,0-.25.26c-.08.09-.06.27-.13.36s-.08.24-.16.33a.16.16,0,0,0,0,.07l-.27.29a1.28,1.28,0,0,0-.14.21h0l-.07.05,0,0a.44.44,0,0,0-.22.09c-.08.09-.27.08-.35.17s0,.31,0,.42l-.22.1a.3.3,0,0,0-.2.07.2.2,0,0,0,0,.14,1.71,1.71,0,0,0-.13.34c-.11,0-.26,0-.3.07s-.08.24-.15.33,0,.17,0,.27a1.61,1.61,0,0,0-.28.24.26.26,0,0,0-.1.07c-.07.09-.25.11-.32.2a.19.19,0,0,0,0,.08.82.82,0,0,0-.3.25c-.16.23-.37.43-.53.66a.9.9,0,0,0-.1.42l-.08,0c-.06.1,0,.25-.12.35s-.09.22-.16.32,0,.29,0,.39,0,0,0,0a1.68,1.68,0,0,1-.27.26l-.09.09c-.22,0-.44.08-.51.2a.47.47,0,0,0,0,.37c-.2.31-.4.65-.58,1a.39.39,0,0,0-.2.15c-.13.25-.22.52-.35.77a1.2,1.2,0,0,0-.08.27l-.08.09c-.06.11-.08.22-.14.33a.25.25,0,0,0,0,.18,2.38,2.38,0,0,0-.47.65.57.57,0,0,0,0,.18c-.05.09-.09.18-.13.27a.2.2,0,0,0,0,.15l-.09.22a.58.58,0,0,0,0,.3,1.76,1.76,0,0,1-.14.23.24.24,0,0,0-.15.09.26.26,0,0,0,0,.12,3.25,3.25,0,0,1-.23.29c-.21.23-.18.29-.25.57a4,4,0,0,1-.13.46.47.47,0,0,0-.2.22c-.1.26-.19.53-.29.79a1.91,1.91,0,0,0-.07.36.61.61,0,0,0-.07.14c0,.11-.1.22-.14.33s.14.3.1.41-.23.17-.27.28,0,.26,0,.38-.23.17-.27.28.18.3.15.42-.29.16-.32.27-.05.24-.08.35a.35.35,0,0,0,0,.2,2.47,2.47,0,0,0-.36.66c0,.14-.07.28-.1.42a1.17,1.17,0,0,0-.16.34.5.5,0,0,0,0,.29l0,.17a4.37,4.37,0,0,0-.05.88.25.25,0,0,1,0,.12,1.17,1.17,0,0,0-.09.24.33.33,0,0,0,0,.14h0v.06h0a1,1,0,0,1,0,.58c0,.09-.08.19-.1.28s-.1.07-.11.11a.13.13,0,0,0,0,.1.63.63,0,0,0-.26.34c0,.28,0,.57-.06.85a.89.89,0,0,0,.22.51c0,.11,0,.22,0,.34a.44.44,0,0,0,0,.16h0a.25.25,0,0,1,0,.12c-.06.09-.13.17-.2.26s-.11.08-.12.12,0,0,0,.07a.3.3,0,0,0,0,.1c0,.28.11.57.09.85A3.5,3.5,0,0,1,106,86c-.06,0-.1.07-.1.11s0,.07.06.11c0,.27-.11.54-.12.81s0,.57,0,.85h0a9,9,0,0,1,3.74-5.87c.56-.39.63-.33.55-.64-1-3.89,2.76-9.63,8-12.75,4-2.36,10.22-5.71,15.26-5.72,1.18,0,.56.38-.19,1.11a14.18,14.18,0,0,0-1.46,1.74c-.19.28-.5.59.35.32a33.79,33.79,0,0,1,3.54-.87,14.45,14.45,0,0,1,3.94-.26c.94.07,1.45.26,1.2.5s-.6.46-.86.68-.56.52-.68.64-.18.25,0,.26l.47,0a19.86,19.86,0,0,1,5.93.59,13.22,13.22,0,0,1,6,3.22c.29.26.89.75,1,1.16,0,.22,0,.36-.53.51a8.31,8.31,0,0,1-1.23.25c-.11,0,0,.24.1.36,1.31,1.81,3.12,3.8,3.67,7.1.64,3.77,2.09,5.29,4.52,6.15,1.71.6,3.74.75,4.56,1.32s1,1.42,0,2.6-1.47,1.07-.54,2.24a4.34,4.34,0,0,0,1.6,1.34,1,1,0,0,1,.38,1c0,.28-.08.39-.75,1A18.92,18.92,0,0,1,162,97.57c-.23.12-.2.26-.12.28s.43,0,.61,0,.36,0,1.07-.06a1.46,1.46,0,0,1,1.44.75c.5.73.31.81.11,1.3a3,3,0,0,0,.37,3.43c1.1,1.73,2.16,4.35-2.68,6.17-5.66,2.14-7.54,1.18-10,7.81-2.13,5.68-3.23,8-.27,8.76a63.62,63.62,0,0,1,9.4,3,7.34,7.34,0,0,1,2.13,1.37h0l.1,0a.24.24,0,0,1,.14-.1l0,0,.16-.05h.1l0,0,.19-.06.08,0c.09.05.18.11.25.08s.18-.2.29-.24.19-.15.31-.19.24,0,.35,0,.19-.17.3-.22a.33.33,0,0,1,.19,0,.46.46,0,0,0,.2,0s.08-.07.12-.12a.63.63,0,0,0,.31,0c.26-.1.56-.12.82-.24s.2-.21.27-.37l.07,0s.13,0,.21,0,.17.08.22.05.16-.21.27-.26l.13-.08a.59.59,0,0,0,.43.07c.25-.13.46-.35.7-.48s.44-.37.69-.51a.81.81,0,0,0,.28-.36c.11,0,.23.11.3.07s.08-.33.19-.38.22-.08.33-.14.25,0,.35-.1.23-.07.33-.13.17-.18.27-.24l.13-.1c.25-.1.63,0,.85-.13s.34-.52.57-.68.58-.14.81-.31.28-.4.43-.59a.76.76,0,0,0,.21-.08.33.33,0,0,0,.07-.21c.06-.08.11-.17.16-.25l.22-.13c.09-.07.25-.06.34-.13s.11-.24.2-.31l.17-.17c.23-.15.64-.07.84-.25s.39-.41.6-.59a1,1,0,0,0,.23-.38c.12,0,.23.08.27,0s.07-.28.16-.36.09-.21.15-.29h.1l.14-.16v0a.46.46,0,0,0,.07-.07l.15-.11a.22.22,0,0,0,.15,0c.09-.08.22-.12.31-.2a.2.2,0,0,0,0-.08l.06,0a.63.63,0,0,0,.14-.32l.17-.15.09-.11a1.89,1.89,0,0,0,.27-.2c.11,0,.25,0,.3,0s0-.13,0-.23l.12-.14,0,0a.31.31,0,0,1,.14-.07l.06-.18s0,0,.05,0,0-.11,0-.2a.09.09,0,0,0,0,0,.6.6,0,0,0,.38-.14l.06-.08s0,0,.05,0,.17-.17.25-.25,0-.27.13-.36.08-.25.16-.34l0-.06.27-.3a1.1,1.1,0,0,0,.14-.21h0l.07,0,0,0a.48.48,0,0,0,.23-.08c.07-.09.27-.09.34-.18s0-.3,0-.41l.22-.11a.36.36,0,0,0,.2-.06.34.34,0,0,0,0-.15,2.68,2.68,0,0,0,.13-.34c.11,0,.25,0,.3-.06s.07-.24.14-.34a.46.46,0,0,0,0-.27,1.55,1.55,0,0,0,.27-.24.2.2,0,0,0,.11-.06c.07-.1.25-.11.31-.21a.06.06,0,0,0,0-.07,1.1,1.1,0,0,0,.31-.25c.16-.23.37-.43.53-.67a.89.89,0,0,0,.1-.41.11.11,0,0,0,.07-.06c.07-.09.06-.24.12-.34s.1-.22.16-.32,0-.3,0-.4l0,0a3.19,3.19,0,0,1,.26-.26.39.39,0,0,0,.1-.08c.21,0,.43-.08.51-.21a.53.53,0,0,0,0-.37c.2-.31.4-.64.58-1a.37.37,0,0,0,.2-.16c.14-.24.22-.52.35-.77a.61.61,0,0,0,.08-.27.2.2,0,0,0,.09-.09c.05-.1.08-.22.13-.33s0-.11,0-.18a2.45,2.45,0,0,0,.47-.65,1,1,0,0,0,0-.18l.13-.27a.2.2,0,0,0,0-.15l.09-.21a.54.54,0,0,0,0-.31c0-.07.09-.15.14-.23s.14,0,.15-.09a.14.14,0,0,0,0-.11,2.09,2.09,0,0,1,.23-.29c.21-.23.18-.29.24-.57s.08-.31.13-.46a.62.62,0,0,0,.21-.22c.1-.26.19-.53.29-.8a1.35,1.35,0,0,0,.06-.35.71.71,0,0,0,.08-.15c0-.11.1-.21.14-.32s-.14-.3-.11-.41.24-.18.27-.29,0-.26,0-.37.23-.18.26-.29-.17-.3-.14-.41.29-.17.32-.28,0-.23.08-.35a.33.33,0,0,0,0-.19,2.25,2.25,0,0,0,.35-.67c0-.14.08-.28.11-.41a1.17,1.17,0,0,0,.16-.34.66.66,0,0,0,0-.3l0-.17a4.23,4.23,0,0,0,0-.87.51.51,0,0,1,0-.13.92.92,0,0,0,.09-.23V97h0s0,0,0-.06v0a.92.92,0,0,1,0-.57l.1-.29c.05,0,.1-.06.11-.1a.36.36,0,0,0,0-.1.7.7,0,0,0,.26-.35c0-.27,0-.56.06-.84a.91.91,0,0,0-.22-.51c0-.11,0-.23,0-.34a.5.5,0,0,0,0-.17h0s0-.09,0-.13.14-.17.2-.26.12-.07.12-.12a.13.13,0,0,0,0-.06.22.22,0,0,0,0-.1c0-.28-.12-.58-.1-.86a4.85,4.85,0,0,1,.16-.63.27.27,0,0,0,.1-.12.2.2,0,0,0-.07-.11c0-.27.12-.54.13-.81s0-.56,0-.84a1.5,1.5,0,0,0-.21-.59.27.27,0,0,0,0-.13c0-.12.07-.24.07-.36s0-.06-.06-.09a1.19,1.19,0,0,0,.26-.53,1.09,1.09,0,0,0-.19-.45c0-.11-.09-.23-.09-.34a.08.08,0,0,0,0,0V87a.57.57,0,0,1,0-.12,2.5,2.5,0,0,0,.16-.64,1.56,1.56,0,0,0-.11-.41.19.19,0,0,0,.06-.13c0-.12-.17-.22-.18-.34s.11-.25.1-.37-.14-.19-.18-.29a3.22,3.22,0,0,1,0-.43c0-.16-.07-.31-.1-.46a.28.28,0,0,0,0-.09h0a.28.28,0,0,0,0-.12.43.43,0,0,0,0-.11,2.34,2.34,0,0,0,.12-.63c0-.12-.18-.23-.34-.33l0-.27a.06.06,0,0,0,0-.06h0c0-.23,0-.45,0-.68a1.21,1.21,0,0,0-.05-.14.28.28,0,0,0,0-.15.33.33,0,0,0-.11-.2,2.79,2.79,0,0,1-.06-.33s0-.06,0-.09a.35.35,0,0,0,0-.17s0,0-.05-.08l-.09-.61a.36.36,0,0,0,0-.2c-.06-.27-.1-.55-.17-.83s-.35-.49-.42-.76a2.62,2.62,0,0,0-.29-.58c0-.11.19-.28.16-.39s-.28-.17-.32-.28,0-.23-.06-.35a3.27,3.27,0,0,1-.14-.33c0-.11.14-.28.1-.4s0-.24-.05-.35-.26-.16-.31-.26a.6.6,0,0,0,0-.3c-.09-.27.06-.62,0-.88a.48.48,0,0,0-.23-.24h0c0-.11-.07-.23-.11-.34s-.11-.07-.19-.1L191,73c0-.09-.07-.17-.11-.26a.79.79,0,0,0,0-.43.65.65,0,0,0-.33-.3c-.1-.26-.22-.52-.34-.77l0-.11a.17.17,0,0,0,0-.13.37.37,0,0,0,0-.26c-.11-.26-.36-.46-.48-.71a.38.38,0,0,0-.09-.13,1.08,1.08,0,0,0,0-.19c-.06-.1-.13-.2-.18-.3s-.21-.16-.27-.27a.36.36,0,0,0,0-.09h0a.73.73,0,0,0-.09-.22.65.65,0,0,0-.06-.29c-.13-.25-.07-.61-.21-.85s-.33-.19-.56-.26a4.66,4.66,0,0,1-.25-.5l-.06-.11a.27.27,0,0,0,0-.2l-.17-.31a3,3,0,0,0-.19-.3c-.06-.1,0-.25-.1-.35s-.16-.19-.22-.29a.23.23,0,0,0-.15-.06,1.37,1.37,0,0,0-.26-.28c0-.11.09-.21,0-.27s-.09,0-.17,0a1.48,1.48,0,0,0-.1-.65,4.62,4.62,0,0,0-.49-.5h0a.44.44,0,0,1-.09-.11l-.05,0-.07-.12c0-.08,0-.18-.05-.26-.12-.3-.43-.49-.56-.79s-.27-.49-.41-.72v0l-.14-.13-.06-.07,0-.1a2.33,2.33,0,0,1-.32-.25,2.86,2.86,0,0,0-.48-.36,2.11,2.11,0,0,1-.39-.5,4.39,4.39,0,0,0-.78-.83,4.22,4.22,0,0,1-.64-.55c-.16-.19-.39-.32-.45-.57s0-.18-.05-.25a.65.65,0,0,1-.33-.34l-.34-.17s0,0,0,0a1,1,0,0,0-.2-.12l-.06-.06c-.09-.09-.12-.16-.21-.24s-.34-.21-.49-.35a0,0,0,0,0,0,0c0-.09,0-.17,0-.2s-.23-.1-.32-.18l-.11-.08-.27-.26a3.55,3.55,0,0,0-.39-.59c-.21-.18-.46-.33-.68-.51a.89.89,0,0,0-.49-.1l-.14-.11a.34.34,0,0,0-.09-.18.23.23,0,0,0-.17,0l-.08-.06-.38-.28c-.09-.07-.11-.23-.21-.3l-.28-.21h0a.46.46,0,0,0-.16-.27l-.69-.5a.36.36,0,0,0-.21-.08s0,0,0,0-.21-.12-.3-.19a.3.3,0,0,0-.21,0,.36.36,0,0,1-.21,0c-.1-.07-.21-.11-.31-.18s-.06-.33-.16-.39-.27.07-.39.09l-.05,0c-.08-.2-.13-.42-.28-.51a.54.54,0,0,0-.32-.06c-.06-.08-.09-.19-.17-.24a.31.31,0,0,0-.21,0,.31.31,0,0,1-.21,0c-.09-.06-.15-.15-.23-.21s-.11-.42-.24-.5-.62,0-.87-.16a.31.31,0,0,0-.12-.15c-.1-.06-.22-.1-.32-.15a.19.19,0,0,0-.15,0l-.16-.08c-.24-.13-.47-.32-.72-.45a1.24,1.24,0,0,0-.48-.07l-.12-.09c-.11,0-.25,0-.36-.06h0l-.07-.11c0-.1-.06-.22-.12-.26a.66.66,0,0,0-.26-.35c-.26-.12-.57-.12-.82-.23s-.5-.29-.76-.4-.51-.25-.77-.35a1.53,1.53,0,0,0-.66.06l-.05,0a.31.31,0,0,0-.15,0h-.06c-.26-.09-.44-.44-.71-.53a2.28,2.28,0,0,0-.59,0,.33.33,0,0,0-.13-.11.77.77,0,0,0-.26,0c-.2-.13-.38-.38-.6-.45s-.56.16-.82.17l-.08,0a.22.22,0,0,0-.11,0c-.23-.13-.4-.48-.64-.54s-.55-.11-.83-.17a1.09,1.09,0,0,0-.44,0,1.06,1.06,0,0,1-.43,0,.85.85,0,0,0-.43.07c-.07-.07-.13-.15-.2-.17s-.21-.16-.33-.18-.22.05-.33.05a.61.61,0,0,0-.33-.28.77.77,0,0,0-.33,0l0,0a.32.32,0,0,0-.15.08.72.72,0,0,1-.35,0c-.27,0-.53-.23-.81-.26a.54.54,0,0,0-.32.06c0-.06-.08-.12-.13-.12s-.24,0-.36,0a.55.55,0,0,0-.18,0,.57.57,0,0,1-.18,0,.55.55,0,0,0-.18,0,.37.37,0,0,1-.18,0l-.35-.05c-.12,0-.22-.23-.33-.24l-.36,0c-.11,0-.24.27-.35.3h0c-.1,0-.2-.34-.31-.35s-.23-.07-.35-.07H152a1,1,0,0,1-.17,0,.14.14,0,0,0-.09.05l-.13,0a1,1,0,0,0-.41.08.12.12,0,0,0-.09,0,.34.34,0,0,0-.19.12h-.16a.68.68,0,0,0-.27.07h-.09c-.12,0-.23-.19-.35-.19s-.17.15-.25.24l-.23,0v0c-.07-.1-.15-.23-.22-.23h0a.41.41,0,0,0-.22-.09Zm25.25,32.58a53.45,53.45,0,0,0-1-6.76.36.36,0,0,0-.29-.25c-2.65-.27-4.86-.3-5.65-.3a.09.09,0,0,1-.05-.16,54.59,54.59,0,0,0,4.83-3.32.29.29,0,0,0,.1-.3,28.67,28.67,0,0,0-2.48-5.93.08.08,0,0,1,.11-.12,33.19,33.19,0,0,1,5.21,3.44.28.28,0,0,0,.38,0,25.49,25.49,0,0,0,2.41-2.86.09.09,0,0,1,.16,0,25.67,25.67,0,0,1,.27,5.61.41.41,0,0,0,.1.3,28,28,0,0,1,4.36,5.6.09.09,0,0,1-.11.13,38,38,0,0,0-5.16-1.42.24.24,0,0,0-.26.15,32.22,32.22,0,0,1-2.74,6.21.1.1,0,0,1-.08,0,.09.09,0,0,1-.09-.08m-26.25,5a9.35,9.35,0,0,0-1.3,3.07,6.42,6.42,0,0,0-.19,1.55c0,.15.11.23.21,0s.2-.47.35-.76a22.58,22.58,0,0,1,1.49-2.48,7.41,7.41,0,0,1,2.88-2.73,1,1,0,0,1,1.3.1c.28.29.29,0,.3-.13a3.32,3.32,0,0,0,0-.88.89.89,0,0,0-1-.87,5.82,5.82,0,0,0-1,.36,9,9,0,0,0-3,2.72m4.84.42a5,5,0,0,1-.48.41,5.45,5.45,0,0,1-.72.38,3.08,3.08,0,0,0-1.48,2,21,21,0,0,0-.62,2.1c0,.19.18.11.36.08a12.11,12.11,0,0,0,1.51-.34,6.7,6.7,0,0,0,1.39-.57,7.4,7.4,0,0,0,1-.67.11.11,0,0,0,0-.19,3.38,3.38,0,0,0-.34-.08c-.09,0-.17-.06-.19-.17a3.19,3.19,0,0,0-.23-.9,1.79,1.79,0,0,0-.53-.7.11.11,0,0,1,0-.15,3.94,3.94,0,0,0,.43-1c.06-.22.06-.28,0-.3s0-.06-.12,0M106.5,96s0,.1,0,.15a.77.77,0,0,0,0,.15.36.36,0,0,0,.12.19l.06.34a.28.28,0,0,0,0,.09.32.32,0,0,0,0,.16.24.24,0,0,0,.06.09c0,.2.06.4.08.6a.29.29,0,0,0,0,.2c.06.28.1.56.16.83s.35.5.42.77a2.84,2.84,0,0,0,.3.57c0,.12-.19.29-.16.39s.28.17.31.29,0,.23.07.34a3.27,3.27,0,0,0,.14.33c0,.11-.14.29-.1.4s0,.25,0,.36.27.15.32.26a.61.61,0,0,0,0,.3c.09.26-.06.61,0,.88a.53.53,0,0,0,.22.23h0l.12.34s.1.08.19.1a1.06,1.06,0,0,0,.06.19l.1.25a.83.83,0,0,0,0,.44.81.81,0,0,0,.33.3c.11.26.23.51.34.76l0,.12s0,.09,0,.13a.46.46,0,0,0,0,.26c.12.25.36.45.48.71a1.13,1.13,0,0,0,.1.13.52.52,0,0,0,0,.18c0,.11.13.2.18.31s.21.16.26.26a.36.36,0,0,1,0,.09v0a.72.72,0,0,0,.08.22.73.73,0,0,0,.07.29c.13.25.07.6.2.85s.34.19.57.25.17.34.25.51l0,.11a.34.34,0,0,0,0,.2l.17.31.19.3c.06.1,0,.25.11.35s.16.18.22.28.08,0,.15.06a1.18,1.18,0,0,0,.26.29c0,.1-.09.21,0,.26s.09,0,.16,0a1.7,1.7,0,0,0,.1.66,5.81,5.81,0,0,0,.5.49h0s0,0,0,0l.09.1.05.06s0,.08.06.11,0,.19.05.27c.12.29.44.48.57.78s.27.49.4.73l0,0,.13.12.06.08.06.1a1.18,1.18,0,0,1,.31.25,5.46,5.46,0,0,0,.48.36,2.09,2.09,0,0,1,.4.49,3.85,3.85,0,0,0,.78.83,3.72,3.72,0,0,1,.63.56c.17.19.39.31.46.57,0,.1,0,.17,0,.24a.67.67,0,0,1,.33.35l.35.17h0a.92.92,0,0,0,.21.13l.06,0a1.64,1.64,0,0,0,.21.24c.15.13.33.21.48.35l0,0a.25.25,0,0,0,0,.2c.08.08.23.1.32.18a.41.41,0,0,0,.11.07l.27.26a.35.35,0,0,1,0,.08c.13.08.43.33.73.51.12.06.2,0,.31.11a13.93,13.93,0,0,0,1.66.81c.57.39,1.51-2.71,2.22-4.7.56-1.55.88-1.92-1.62-4-.6-.48-.41,1.18-.47,1.64s-.26.26-.55.06c-2.57-1.82-12-9.17-15.43-17.41a31.19,31.19,0,0,1-1.19-3.31c0,.16,0,.32,0,.47"/>
  </g>
</svg>
