<?xml version="1.0"?>
<svg xmlns="http://www.w3.org/2000/svg" viewBox="0 0 300 200">
  <defs>
    <style>.cls-1{fill:#39bff0;fill-rule:evenodd;}</style>
  </defs>
  <title>logo_atos</title>
  <g id="Atos">
    <path class="cls-1" d="M94.28,110.36c-.26.48-1.69,4.36-2.09,5.69a2.7,2.7,0,0,0-.07.35.55.55,0,0,0,.53.17h2.24l.76,0a1.87,1.87,0,0,1,.1.41c0,1.49,0,3,0,4.47a2.55,2.55,0,0,1-.08.42,3.39,3.39,0,0,1-.41.06H80.9a2.26,2.26,0,0,1-.84-.08,11.24,11.24,0,0,1,0-1.74c0-.57,0-1.13,0-1.7a12.42,12.42,0,0,1,0-1.73c.15-.18.34-.15.52-.15h2.31c.11,0,.22,0,.33,0,.52,0,.56,0,.73-.53.56-1.55,1.1-3.11,1.65-4.66Q90.45,97.69,95.29,84a2.45,2.45,0,0,0,.26-1c-.18-.17-.39-.12-.59-.12H91.64c-.22,0-.44,0-.62,0l-.08-.1a.07.07,0,0,1,0-.06c0-1.58,0-3.16,0-4.74,0-.11,0-.22,0-.37a1.82,1.82,0,0,1,.38-.11c.2,0,.4,0,.61,0h16.88l.83,0a1.32,1.32,0,0,1,.4.75q1.73,4.84,3.44,9.7l9.88,27.82c.28.78.19.8,1.08.79h2l.68,0a8.36,8.36,0,0,1,.07,1.79c0,.56,0,1.13,0,1.69v1.79a2.82,2.82,0,0,1-.41.09,5,5,0,0,1-.55,0h-15a2.72,2.72,0,0,1-.89-.07c0-.15,0-.28,0-.41-.05-1.68,0-4.25.07-4.85a2.74,2.74,0,0,1,.5-.07h2.1a1.42,1.42,0,0,0,.65-.07c.14-.2,0-.37,0-.53-.53-1.51-1.07-3-1.6-4.54-.08-.21-.14-.42-.23-.63a3.48,3.48,0,0,0-.21-.44,2.91,2.91,0,0,0-.4,0C109.25,110.24,94.89,110.29,94.28,110.36Zm2.43-6.92a1.45,1.45,0,0,0,.85.12h10.57c.2,0,.41,0,.61,0a1.16,1.16,0,0,0,.28-.1,1.42,1.42,0,0,0-.17-.76q-2.34-6.63-4.7-13.27l-1.07-3c0-.11-.07-.27-.29-.23a2.51,2.51,0,0,0-.11.23l-5.91,16.72C96.74,103.22,96.74,103.31,96.71,103.44Z"/>
    <path class="cls-1" d="M185.34,118.73c.27-.55.67-1,1-1.58s.68-1.12,1-1.69.63-1.09.94-1.65l.88-1.64a1.18,1.18,0,0,1,.69.17,44.49,44.49,0,0,0,6.21,1.89,27.11,27.11,0,0,0,7.12.74,12,12,0,0,0,4.41-1,13.09,13.09,0,0,0,1.41-.8,2.31,2.31,0,0,0,.42-.34,3.47,3.47,0,0,0,1.14-3.55,3.63,3.63,0,0,0-1-1.88,7.68,7.68,0,0,0-1.51-1.14,16.45,16.45,0,0,0-2.83-1.3c-1.29-.46-2.6-.9-3.91-1.32a51.2,51.2,0,0,1-5.75-2.2,19,19,0,0,1-3.94-2.38,10,10,0,0,1-3.79-6.59A13.65,13.65,0,0,1,188,87a11.26,11.26,0,0,1,4.35-6.21,17,17,0,0,1,5.66-2.68,27.53,27.53,0,0,1,5.34-.86,31.26,31.26,0,0,1,4.54.07c1.48.12,3,.31,4.43.55s3.11.6,4.65.91c.18,0,.35.1.55.15a4.19,4.19,0,0,1,.05.47c0,.79-.06,1.58-.09,2.37,0,.11,0,.23,0,.34l-.18,5.15c0,1.1-.09,2.21-.14,3.32a3.39,3.39,0,0,1-.06.41,4.52,4.52,0,0,1-.49,0c-2.17,0-5.71-.09-6.22-.2a1.14,1.14,0,0,1-.07-.66c0-1.51,0-3,0-4.54a1.41,1.41,0,0,0-.09-.75,5.26,5.26,0,0,0-1.63-.33,23.41,23.41,0,0,0-3.65-.14,15.68,15.68,0,0,0-4.2.67,8.32,8.32,0,0,0-1.86.81,5,5,0,0,0-1.55,1.4,3.44,3.44,0,0,0,.07,4.16,8.09,8.09,0,0,0,1.1,1.09,12,12,0,0,0,2.55,1.54,40.52,40.52,0,0,0,5.3,2,54.46,54.46,0,0,1,5.83,2.19,19,19,0,0,1,4.13,2.46,9.51,9.51,0,0,1,3.6,6.88,14.49,14.49,0,0,1-.24,4.31,11.84,11.84,0,0,1-4.85,7.27,17.91,17.91,0,0,1-5.94,2.72,25.29,25.29,0,0,1-4.07.71,37.81,37.81,0,0,1-6,0,35.84,35.84,0,0,1-8.87-1.8,29.45,29.45,0,0,1-4-1.74A1.11,1.11,0,0,1,185.34,118.73Z"/>
    <path class="cls-1" d="M186.44,101.11a19,19,0,0,0-1.6-5.93A19.54,19.54,0,0,0,174.2,85a18.23,18.23,0,0,0-5.38-1.29,28.22,28.22,0,0,0-3,0c-.88,0-.78-.09-1.31.71a19.59,19.59,0,0,0-3.24,9.44,18.88,18.88,0,0,0,.36,5.46,19.42,19.42,0,0,0,7.77,11.92,19.21,19.21,0,0,0,3.16,1.85c.19.09.44.13.54.36a.45.45,0,0,1-.06.12,2.69,2.69,0,0,1-.27.2,10.58,10.58,0,0,1-6.79,1.64,10.73,10.73,0,0,1-6.62-3.09,12.32,12.32,0,0,1-3.71-7.65,12.73,12.73,0,0,1,.59-5.48,10.4,10.4,0,0,1,1.5-3,1.85,1.85,0,0,0,.38-1.26,5,5,0,0,1,0-.67,36.3,36.3,0,0,1,.68-4.28,20.12,20.12,0,0,1,1.76-5,.22.22,0,0,0,0-.11c-1.74.32-5.05,2.3-7.06,4.24a19.29,19.29,0,0,0-5.6,9.73,19.51,19.51,0,0,0,1.86,13.91,2.64,2.64,0,0,1-.81.85,9.19,9.19,0,0,1-6.27,2.33,5.23,5.23,0,0,1-3.13-1.13,5.75,5.75,0,0,1-1.91-2.9,9.28,9.28,0,0,1-.37-2.87V92.84a5,5,0,0,1,0-.55,2.22,2.22,0,0,1,.09-.37,1.83,1.83,0,0,1,.83-.08h8.4a1.36,1.36,0,0,0,.76-.1,9.27,9.27,0,0,0,.05-1.67c0-.54,0-1.08,0-1.62s0-1.13,0-1.7a10.8,10.8,0,0,0-.05-1.7c-.19,0-.34,0-.49,0h-8.68a1.62,1.62,0,0,1-.81-.09,1.44,1.44,0,0,1-.11-.79c0-1.92,0-3.84,0-5.77a1.76,1.76,0,0,0-.07-.79,1.09,1.09,0,0,0-.73-.11h-7.66a2.59,2.59,0,0,0-.47.11V84.3c0,.66,0,.69-.69.7h-5.15a2.06,2.06,0,0,0-.71,0,.87.87,0,0,0-.14.61,43.41,43.41,0,0,0,.11,6.09,1.19,1.19,0,0,0,.72.09h5a1.33,1.33,0,0,1,.75.1,1.68,1.68,0,0,1,.09.84V104c0,2.3,0,4.61,0,6.91a14,14,0,0,0,.41,3.29,10.35,10.35,0,0,0,6.68,7.61,16.19,16.19,0,0,0,8.61.75,15.42,15.42,0,0,0,8.92-4.76c.12-.13.25-.24.37-.35a1.66,1.66,0,0,1,.16,0l.47.4a19.39,19.39,0,0,0,12.93,4.94,18.89,18.89,0,0,0,5-.62A19.63,19.63,0,0,0,186.44,101.11ZM178,106.46c0,.14-.11.28-.17.45a1.74,1.74,0,0,1-.73-.17,11.24,11.24,0,0,1-4.89-3.52,12.47,12.47,0,0,1-2.73-6.59,13,13,0,0,1,.3-4.44,3.81,3.81,0,0,1,.13-.45,1.51,1.51,0,0,1,.1-.17,1.37,1.37,0,0,1,.85.19A11.38,11.38,0,0,1,176.14,96a12.26,12.26,0,0,1,2.09,5.37A12.53,12.53,0,0,1,178,106.46Z"/>
  </g>
</svg>
