<?xml version="1.0"?>
<svg xmlns="http://www.w3.org/2000/svg" viewBox="0 0 2353.25 206.88">
  <title>Fichier 23</title>
  <g id="Calque_2" data-name="Calque 2">
    <g id="Calque_1-2" data-name="Calque 1">
      <path d="M0,11.23A7.52,7.52,0,0,1,7.58,3.65H31.52c8.77,0,15.57,2.46,20.1,7,3.84,3.84,5.91,9.26,5.91,15.76v.2c0,10.83-5.42,17.53-13.79,21L54.28,60.39c1.48,1.87,2.46,3.44,2.46,5.81a7,7,0,0,1-7.19,7,9.08,9.08,0,0,1-7.49-3.94L27.29,50.54H15.17V65.61a7.53,7.53,0,0,1-7.59,7.58A7.52,7.52,0,0,1,0,65.61ZM30.54,37.14c7.39,0,11.62-3.94,11.62-9.75v-.2c0-6.5-4.53-9.85-11.92-9.85H15.17v19.8Z" style="fill:#fff"/>
      <path d="M91.23,73.78c-15.86,0-27.59-11.13-27.59-27.28v-.2c0-15.07,10.74-27.48,26.11-27.48,17.63,0,25.41,14.48,25.41,25.41a6.82,6.82,0,0,1-7,7.19H78.52c1.48,6.8,6.2,10.35,12.9,10.35a17.25,17.25,0,0,0,10.64-3.55A5.58,5.58,0,0,1,105.71,57,5.72,5.72,0,0,1,111.52,63a5.87,5.87,0,0,1-2,4.43A27.36,27.36,0,0,1,91.23,73.78Zm9.65-31.72c-.89-6.69-4.83-11.23-11.13-11.23S79.5,35.27,78.32,42.06Z" style="fill:#fff"/>
      <path d="M177.23,81.47a7.49,7.49,0,1,1-15,0V65c-3.64,4.92-8.66,8.57-16.45,8.57-12.31,0-24-9.66-24-27.29v-.2c0-17.63,11.52-27.28,24-27.28,8,0,12.91,3.64,16.45,7.88v-.1a7.49,7.49,0,0,1,15,.1ZM136.74,46.1v.2c0,8.77,5.91,14.58,12.91,14.58s12.8-5.81,12.8-14.58v-.2c0-8.76-5.81-14.58-12.8-14.58S136.74,37.24,136.74,46.1Z" style="fill:#fff"/>
      <path d="M236.14,65.71a7.49,7.49,0,0,1-15,0v-.59c-3.45,4.43-7.88,8.47-15.47,8.47-11.33,0-17.93-7.49-17.93-19.61V26.7a7.49,7.49,0,0,1,15,0V49.26c0,7.09,3.35,10.73,9.06,10.73s9.36-3.64,9.36-10.73V26.7a7.49,7.49,0,1,1,15,0Z" style="fill:#fff"/>
      <path d="M272.1,73.78c-15.86,0-27.58-11.13-27.58-27.28v-.2c0-15.07,10.73-27.48,26.1-27.48C288.26,18.82,296,33.3,296,44.23a6.83,6.83,0,0,1-7,7.19H259.39c1.48,6.8,6.21,10.35,12.91,10.35a17.27,17.27,0,0,0,10.64-3.55A5.57,5.57,0,0,1,286.58,57,5.72,5.72,0,0,1,292.39,63a5.84,5.84,0,0,1-2,4.43A27.36,27.36,0,0,1,272.1,73.78Zm9.65-31.72c-.88-6.69-4.82-11.23-11.13-11.23s-10.24,4.44-11.42,11.23Z" style="fill:#fff"/>
      <path d="M303.63,67.58a6,6,0,0,1-2.86-5.12,5.93,5.93,0,0,1,8.87-5.13c5,3.16,10,4.73,14.28,4.73s6.3-1.57,6.3-3.94v-.2c0-3.25-5.12-4.33-10.93-6.1C311.9,49.65,303.53,46.2,303.53,36v-.2C303.53,25,312.2,19,322.84,19a37.14,37.14,0,0,1,16.35,4,6.11,6.11,0,0,1,3.55,5.62,5.89,5.89,0,0,1-6,5.91,5.47,5.47,0,0,1-2.76-.69c-4.24-2.07-8.28-3.35-11.43-3.35-3.64,0-5.52,1.57-5.52,3.64v.2c0,3,5,4.33,10.74,6.31,7.39,2.46,16,6,16,15.66v.2c0,11.72-8.77,17-20.19,17A36.75,36.75,0,0,1,303.63,67.58Z" style="fill:#fff"/>
      <path d="M353.48,57.63v-25H353a6.41,6.41,0,0,1,0-12.81h.5V13.2a7.49,7.49,0,1,1,15,0v6.6h6.6a6.41,6.41,0,0,1,0,12.81h-6.6V55.17c0,3.44,1.48,5.12,4.83,5.12.49,0,1.48-.1,1.77-.1a6.25,6.25,0,0,1,6.21,6.21A6.1,6.1,0,0,1,377.42,72a22,22,0,0,1-8.58,1.48C359.68,73.49,353.48,69.84,353.48,57.63Z" style="fill:#fff"/>
      <path d="M413.38,57.43v-.2c0-11.52,8.76-16.84,21.27-16.84a37.59,37.59,0,0,1,12.91,2.17v-.89c0-6.21-3.84-9.65-11.33-9.65a34.5,34.5,0,0,0-10.34,1.47,6.28,6.28,0,0,1-2.17.4,6.1,6.1,0,0,1-6.21-6.11,6.2,6.2,0,0,1,4-5.81,45.83,45.83,0,0,1,16.85-2.76c8.17,0,14.08,2.17,17.83,5.91,3.94,3.94,5.71,9.75,5.71,16.85V66a7.19,7.19,0,0,1-7.29,7.19c-4.33,0-7.19-3-7.19-6.2v-.1c-3.65,4-8.67,6.7-16,6.7C421.55,73.59,413.38,67.87,413.38,57.43ZM447.75,54V51.32a23.24,23.24,0,0,0-9.55-2c-6.4,0-10.34,2.57-10.34,7.29v.2c0,4,3.35,6.4,8.17,6.4C443,63.24,447.75,59.4,447.75,54Z" style="fill:#fff"/>
      <path d="M552.57,65.71a7.49,7.49,0,0,1-15,0V65c-3.64,4.92-8.67,8.57-16.45,8.57-12.31,0-24-9.66-24-27.29v-.2c0-17.63,11.53-27.28,24-27.28,8,0,12.9,3.64,16.45,7.88V7.59a7.49,7.49,0,1,1,15,0ZM512.09,46.1v.2c0,8.77,5.91,14.58,12.9,14.58S537.8,55.07,537.8,46.3v-.2c0-8.76-5.81-14.58-12.81-14.58S512.09,37.24,512.09,46.1Z" style="fill:#fff"/>
      <path d="M588.53,73.78C572.67,73.78,561,62.65,561,46.5v-.2c0-15.07,10.74-27.48,26.11-27.48,17.63,0,25.41,14.48,25.41,25.41a6.82,6.82,0,0,1-7,7.19H575.83c1.47,6.8,6.2,10.35,12.9,10.35a17.25,17.25,0,0,0,10.64-3.55A5.58,5.58,0,0,1,603,57,5.73,5.73,0,0,1,608.83,63a5.87,5.87,0,0,1-2,4.43A27.37,27.37,0,0,1,588.53,73.78Zm9.66-31.72c-.89-6.69-4.83-11.23-11.13-11.23s-10.25,4.44-11.43,11.23Z" style="fill:#fff"/>
      <path d="M621.44,26.7a7.49,7.49,0,1,1,15,0v.59c3.45-4.44,8-8.47,15.57-8.47,6.89,0,12.12,3.05,14.87,8.37,4.63-5.42,10.15-8.37,17.34-8.37,11.13,0,17.83,6.69,17.83,19.4V65.71a7.49,7.49,0,0,1-15,0V43.15c0-7.09-3.15-10.74-8.77-10.74s-9.06,3.65-9.06,10.74V65.71a7.49,7.49,0,0,1-15,0V43.15c0-7.09-3.15-10.74-8.76-10.74s-9.07,3.65-9.07,10.74V65.71a7.49,7.49,0,0,1-15,0Z" style="fill:#fff"/>
      <path d="M710,46.5v-.2c0-15.17,12.21-27.48,28.66-27.48s28.47,12.11,28.47,27.28v.2c0,15.17-12.21,27.48-28.66,27.48S710,61.67,710,46.5Zm42.36,0v-.2c0-7.78-5.62-14.58-13.89-14.58-8.57,0-13.7,6.6-13.7,14.38v.2c0,7.78,5.62,14.58,13.89,14.58C747.24,60.88,752.37,54.28,752.37,46.5Z" style="fill:#fff"/>
      <path d="M800.05,46.5v-.2c0-15.17,12.22-27.48,28.67-27.48s28.47,12.11,28.47,27.28v.2c0,15.17-12.22,27.48-28.67,27.48S800.05,61.67,800.05,46.5Zm42.36,0v-.2c0-7.78-5.62-14.58-13.89-14.58-8.57,0-13.69,6.6-13.69,14.38v.2c0,7.78,5.61,14.58,13.89,14.58C837.29,60.88,842.41,54.28,842.41,46.5Z" style="fill:#fff"/>
      <path d="M868.12,32.61h-.59a6.09,6.09,0,0,1-6.2-6.11,6.18,6.18,0,0,1,6.2-6.21h.59V16.94c0-5.81,1.48-10,4.24-12.8S879.16,0,884.48,0a37.16,37.16,0,0,1,6.1.39,6.09,6.09,0,0,1,5.13,6,6.23,6.23,0,0,1-6.11,6.21h-1.28c-3.45,0-5.42,1.77-5.42,5.71v2.07h6.5a6.11,6.11,0,1,1,0,12.22h-6.3v33.1a7.49,7.49,0,0,1-15,0Z" style="fill:#fff"/>
      <path d="M925.26,46.5v-.2c0-15.17,12.22-27.48,28.67-27.48S982.4,30.93,982.4,46.1v.2c0,15.17-12.22,27.48-28.67,27.48S925.26,61.67,925.26,46.5Zm42.36,0v-.2c0-7.78-5.61-14.58-13.89-14.58-8.57,0-13.69,6.6-13.69,14.38v.2c0,7.78,5.61,14.58,13.89,14.58C962.5,60.88,967.62,54.28,967.62,46.5Z" style="fill:#fff"/>
      <path d="M1038.75,65.71a7.49,7.49,0,0,1-15,0v-.59c-3.45,4.43-7.88,8.47-15.47,8.47C997,73.59,990.38,66.1,990.38,54V26.7a7.49,7.49,0,1,1,15,0V49.26c0,7.09,3.35,10.73,9.07,10.73s9.36-3.64,9.36-10.73V26.7a7.49,7.49,0,1,1,15,0Z" style="fill:#fff"/>
      <path d="M1049.69,26.7a7.49,7.49,0,1,1,15,0v2.36c2.17-5.12,5.72-9.85,10.15-9.85,4.63,0,7.29,3.05,7.29,7.29a6.88,6.88,0,0,1-5.62,7c-7.58,1.78-11.82,7.59-11.82,18.23v14a7.49,7.49,0,0,1-15,0Z" style="fill:#fff"/>
      <path d="M1115.5,26.7a7.49,7.49,0,1,1,15,0v2.36c2.17-5.12,5.71-9.85,10.15-9.85,4.63,0,7.29,3.05,7.29,7.29a6.89,6.89,0,0,1-5.62,7c-7.58,1.78-11.82,7.59-11.82,18.23v14a7.49,7.49,0,0,1-15,0Z" style="fill:#fff"/>
      <path d="M1177.76,73.78c-15.86,0-27.59-11.13-27.59-27.28v-.2c0-15.07,10.74-27.48,26.11-27.48,17.63,0,25.42,14.48,25.42,25.41a6.83,6.83,0,0,1-7,7.19h-29.65c1.48,6.8,6.21,10.35,12.9,10.35a17.25,17.25,0,0,0,10.64-3.55,5.59,5.59,0,0,1,3.65-1.18,5.72,5.72,0,0,1,5.81,5.91,5.87,5.87,0,0,1-2,4.43A27.36,27.36,0,0,1,1177.76,73.78Zm9.65-31.72c-.89-6.69-4.83-11.23-11.13-11.23s-10.25,4.44-11.43,11.23Z" style="fill:#fff"/>
      <path d="M1210.66,26.7a7.49,7.49,0,1,1,15,0v.59c3.44-4.44,7.88-8.47,15.46-8.47,11.33,0,17.93,7.48,17.93,19.6V65.71a7.49,7.49,0,0,1-15,0V43.15c0-7.09-3.35-10.74-9.06-10.74s-9.36,3.65-9.36,10.74V65.71a7.49,7.49,0,0,1-15,0Z" style="fill:#fff"/>
      <path d="M1267,46.5v-.2c0-15.17,12.22-27.48,28.67-27.48s28.47,12.11,28.47,27.28v.2c0,15.17-12.21,27.48-28.67,27.48S1267,61.67,1267,46.5Zm42.36,0v-.2c0-7.78-5.61-14.58-13.89-14.58-8.57,0-13.69,6.6-13.69,14.38v.2c0,7.78,5.62,14.58,13.89,14.58C1304.25,60.88,1309.37,54.28,1309.37,46.5Z" style="fill:#fff"/>
      <path d="M1341,66.89l-12.9-37.24a12.4,12.4,0,0,1-.69-3.64,6.9,6.9,0,0,1,7.19-6.8c3.74,0,6.2,2.36,7.29,5.81l8.07,26.8,8.28-26.7c1.08-3.55,3.84-6,7.68-6h.89c3.84,0,6.6,2.46,7.68,6l8.38,26.8,8.27-27c1-3.15,3.25-5.71,7.19-5.71a6.82,6.82,0,0,1,7,6.9,13,13,0,0,1-.5,3.05l-13.29,37.73c-1.58,4.63-4.63,6.7-8.28,6.7h-.49c-3.65,0-6.7-2.07-8.08-6.41l-8.37-26.59-8.47,26.59c-1.38,4.34-4.44,6.41-8.08,6.41h-.49C1345.63,73.59,1342.58,71.52,1341,66.89Z" style="fill:#fff"/>
      <path d="M1412.43,26.7a7.49,7.49,0,1,1,15,0v.59c3.45-4.44,7.88-8.47,15.47-8.47,11.32,0,17.92,7.48,17.92,19.6V65.71a7.49,7.49,0,0,1-15,0V43.15c0-7.09-3.35-10.74-9.06-10.74s-9.36,3.65-9.36,10.74V65.71a7.49,7.49,0,0,1-15,0Z" style="fill:#fff"/>
      <path d="M1496.36,73.78c-15.86,0-27.58-11.13-27.58-27.28v-.2c0-15.07,10.73-27.48,26.1-27.48,17.64,0,25.42,14.48,25.42,25.41a6.83,6.83,0,0,1-7,7.19h-29.65c1.48,6.8,6.21,10.35,12.91,10.35a17.29,17.29,0,0,0,10.64-3.55,5.55,5.55,0,0,1,3.64-1.18,5.72,5.72,0,0,1,5.81,5.91,5.84,5.84,0,0,1-2,4.43A27.36,27.36,0,0,1,1496.36,73.78ZM1506,42.06c-.88-6.69-4.82-11.23-11.13-11.23s-10.24,4.44-11.42,11.23Z" style="fill:#fff"/>
      <path d="M1582.36,65.71a7.49,7.49,0,0,1-15,0V65c-3.64,4.92-8.67,8.57-16.45,8.57-12.32,0-24-9.66-24-27.29v-.2c0-17.63,11.53-27.28,24-27.28,8,0,12.9,3.64,16.45,7.88V7.59a7.49,7.49,0,1,1,15,0ZM1541.88,46.1v.2c0,8.77,5.91,14.58,12.9,14.58s12.81-5.81,12.81-14.58v-.2c0-8.76-5.82-14.58-12.81-14.58S1541.88,37.24,1541.88,46.1Z" style="fill:#fff"/>
      <path d="M1673.49,65.71a7.49,7.49,0,0,1-15,0V65c-3.65,4.92-8.67,8.57-16.46,8.57-12.31,0-24-9.66-24-27.29v-.2c0-17.63,11.52-27.28,24-27.28,8,0,12.91,3.64,16.46,7.88V7.59a7.49,7.49,0,1,1,15,0ZM1633,46.1v.2c0,8.77,5.91,14.58,12.91,14.58s12.8-5.81,12.8-14.58v-.2c0-8.76-5.81-14.58-12.8-14.58S1633,37.24,1633,46.1Z" style="fill:#fff"/>
      <path d="M1684.23,7.19c0-4.33,3.65-7,8.37-7s8.38,2.66,8.38,7v.2c0,4.33-3.65,7.09-8.38,7.09s-8.37-2.76-8.37-7.09Zm.89,19.51a7.49,7.49,0,1,1,15,0v39a7.49,7.49,0,0,1-15,0Z" style="fill:#fff"/>
      <path d="M1716.05,84.92A6.11,6.11,0,0,1,1717.92,73a6,6,0,0,1,2.46.49A34.16,34.16,0,0,0,1735,76.64c10.25,0,15.08-4.92,15.08-14.38V59.7c-4.44,5.32-9.26,8.57-17.24,8.57-12.32,0-23.45-9-23.45-24.63v-.2c0-15.76,11.33-24.62,23.45-24.62,8.17,0,13,3.44,17,7.88v-.1a7.49,7.49,0,0,1,15,.1v34c0,9.46-2.26,16.36-6.7,20.79-4.92,4.92-12.51,7.09-22.75,7.09A50.68,50.68,0,0,1,1716.05,84.92Zm34-41.28v-.2c0-7.19-5.62-12.21-12.91-12.21s-12.8,5-12.8,12.21v.2c0,7.29,5.51,12.22,12.8,12.22S1750,50.83,1750,43.64Z" style="fill:#fff"/>
      <path d="M1775.55,7.19c0-4.33,3.65-7,8.38-7s8.37,2.66,8.37,7v.2c0,4.33-3.64,7.09-8.37,7.09s-8.38-2.76-8.38-7.09Zm.89,19.51a7.49,7.49,0,1,1,15,0v39a7.49,7.49,0,0,1-15,0Z" style="fill:#fff"/>
      <path d="M1805.5,57.63v-25H1805a6.41,6.41,0,0,1,0-12.81h.49V13.2a7.49,7.49,0,0,1,15,0v6.6h6.6a6.41,6.41,0,0,1,0,12.81h-6.6V55.17c0,3.44,1.47,5.12,4.82,5.12.49,0,1.48-.1,1.78-.1a6.24,6.24,0,0,1,6.2,6.21,6.08,6.08,0,0,1-3.84,5.61,22,22,0,0,1-8.57,1.48C1811.71,73.49,1805.5,69.84,1805.5,57.63Z" style="fill:#fff"/>
      <path d="M1838.31,57.43v-.2c0-11.52,8.77-16.84,21.28-16.84a37.49,37.49,0,0,1,12.9,2.17v-.89c0-6.21-3.84-9.65-11.33-9.65a34.6,34.6,0,0,0-10.34,1.47,6.28,6.28,0,0,1-2.17.4,6.09,6.09,0,0,1-6.2-6.11,6.2,6.2,0,0,1,4-5.81,45.87,45.87,0,0,1,16.85-2.76c8.18,0,14.09,2.17,17.83,5.91,3.94,3.94,5.71,9.75,5.71,16.85V66a7.19,7.19,0,0,1-7.29,7.19c-4.33,0-7.19-3-7.19-6.2v-.1c-3.64,4-8.67,6.7-16,6.7C1846.48,73.59,1838.31,67.87,1838.31,57.43ZM1872.69,54V51.32a23.25,23.25,0,0,0-9.56-2c-6.4,0-10.34,2.57-10.34,7.29v.2c0,4,3.35,6.4,8.18,6.4C1868,63.24,1872.69,59.4,1872.69,54Z" style="fill:#fff"/>
      <path d="M1898,7.59a7.49,7.49,0,1,1,15,0V65.71a7.49,7.49,0,0,1-15,0Z" style="fill:#fff"/>
      <path d="M1951.7,26.7a7.49,7.49,0,1,1,15,0v.69c3.65-4.93,8.67-8.57,16.45-8.57,12.32,0,24,9.65,24,27.28v.2c0,17.63-11.53,27.29-24,27.29-8,0-12.9-3.65-16.45-7.88V81.47a7.49,7.49,0,1,1-15,0Zm40.49,19.6v-.2c0-8.76-5.91-14.58-12.91-14.58s-12.8,5.82-12.8,14.58v.2c0,8.77,5.81,14.58,12.8,14.58S1992.19,55.17,1992.19,46.3Z" style="fill:#fff"/>
      <path d="M2016.42,7.59a7.49,7.49,0,0,1,15,0V65.71a7.49,7.49,0,0,1-15,0Z" style="fill:#fff"/>
      <path d="M2039.87,57.43v-.2c0-11.52,8.77-16.84,21.28-16.84a37.49,37.49,0,0,1,12.9,2.17v-.89c0-6.21-3.84-9.65-11.33-9.65a34.6,34.6,0,0,0-10.34,1.47,6.28,6.28,0,0,1-2.17.4,6.1,6.1,0,0,1-6.2-6.11,6.19,6.19,0,0,1,4-5.81,45.77,45.77,0,0,1,16.84-2.76c8.18,0,14.09,2.17,17.83,5.91,3.94,3.94,5.72,9.75,5.72,16.85V66a7.19,7.19,0,0,1-7.29,7.19c-4.34,0-7.19-3-7.19-6.2v-.1c-3.65,4-8.67,6.7-16,6.7C2048.05,73.59,2039.87,67.87,2039.87,57.43ZM2074.25,54V51.32a23.25,23.25,0,0,0-9.56-2c-6.4,0-10.34,2.57-10.34,7.29v.2c0,4,3.35,6.4,8.18,6.4C2069.52,63.24,2074.25,59.4,2074.25,54Z" style="fill:#fff"/>
      <path d="M2100.85,57.63v-25h-.49a6.41,6.41,0,0,1,0-12.81h.49V13.2a7.49,7.49,0,1,1,15,0v6.6h6.6a6.41,6.41,0,0,1,0,12.81h-6.6V55.17c0,3.44,1.47,5.12,4.82,5.12.5,0,1.48-.1,1.78-.1a6.24,6.24,0,0,1,6.2,6.21,6.08,6.08,0,0,1-3.84,5.61,22,22,0,0,1-8.57,1.48C2107.06,73.49,2100.85,69.84,2100.85,57.63Z" style="fill:#fff"/>
      <path d="M2139.37,32.61h-.59a6.09,6.09,0,0,1-6.2-6.11,6.18,6.18,0,0,1,6.2-6.21h.59V16.94c0-5.81,1.48-10,4.24-12.8S2150.41,0,2155.73,0a37.16,37.16,0,0,1,6.1.39,6.1,6.1,0,0,1,5.13,6,6.23,6.23,0,0,1-6.11,6.21h-1.28c-3.45,0-5.42,1.77-5.42,5.71v2.07h6.5a6.11,6.11,0,1,1,0,12.22h-6.3v33.1a7.49,7.49,0,0,1-15,0Z" style="fill:#fff"/>
      <path d="M2168.44,46.5v-.2c0-15.17,12.21-27.48,28.66-27.48s28.47,12.11,28.47,27.28v.2c0,15.17-12.21,27.48-28.67,27.48S2168.44,61.67,2168.44,46.5Zm42.35,0v-.2c0-7.78-5.61-14.58-13.89-14.58-8.57,0-13.69,6.6-13.69,14.38v.2c0,7.78,5.62,14.58,13.89,14.58C2205.67,60.88,2210.79,54.28,2210.79,46.5Z" style="fill:#fff"/>
      <path d="M2234,26.7a7.49,7.49,0,1,1,15,0v2.36c2.17-5.12,5.71-9.85,10.15-9.85,4.63,0,7.29,3.05,7.29,7.29a6.88,6.88,0,0,1-5.62,7c-7.58,1.78-11.82,7.59-11.82,18.23v14a7.49,7.49,0,0,1-15,0Z" style="fill:#fff"/>
      <path d="M2272.67,26.7a7.49,7.49,0,1,1,15,0v.59c3.45-4.44,8-8.47,15.56-8.47,6.9,0,12.12,3.05,14.88,8.37,4.63-5.42,10.15-8.37,17.34-8.37,11.13,0,17.83,6.69,17.83,19.4V65.71a7.49,7.49,0,0,1-15,0V43.15c0-7.09-3.15-10.74-8.76-10.74s-9.07,3.65-9.07,10.74V65.71a7.49,7.49,0,0,1-15,0V43.15c0-7.09-3.15-10.74-8.77-10.74s-9.06,3.65-9.06,10.74V65.71a7.49,7.49,0,0,1-15,0Z" style="fill:#fff"/>
      <path d="M117.53,175.65v-.19c0-11.53,8.77-16.85,21.28-16.85a37.49,37.49,0,0,1,12.9,2.17v-.89c0-6.2-3.84-9.65-11.33-9.65A34.25,34.25,0,0,0,130,151.72a6.48,6.48,0,0,1-2.17.39,6.1,6.1,0,0,1-6.2-6.11,6.2,6.2,0,0,1,4-5.81,46,46,0,0,1,16.84-2.76c8.18,0,14.09,2.17,17.83,5.91,3.94,3.94,5.72,9.75,5.72,16.85v24a7.2,7.2,0,0,1-7.29,7.2c-4.34,0-7.19-3.06-7.19-6.21v-.1c-3.65,4-8.67,6.7-16,6.7C125.71,191.81,117.53,186.1,117.53,175.65Zm34.38-3.44v-2.66a23.09,23.09,0,0,0-9.56-2c-6.4,0-10.34,2.56-10.34,7.29v.19c0,4,3.35,6.41,8.18,6.41C147.18,181.47,151.91,177.62,151.91,172.21Z" style="fill:#fff"/>
      <path d="M176.54,144.92a7.49,7.49,0,1,1,15,0v.59C195,141.08,199.4,137,207,137c11.33,0,17.93,7.48,17.93,19.6v27.29a7.49,7.49,0,1,1-15,0V161.37c0-7.09-3.35-10.74-9.07-10.74s-9.36,3.65-9.36,10.74v22.56a7.49,7.49,0,1,1-15,0Z" style="fill:#fff"/>
      <path d="M288.55,183.93a7.49,7.49,0,1,1-15,0v-.69c-3.65,4.92-8.67,8.57-16.45,8.57-12.32,0-24-9.65-24-27.29v-.2c0-17.63,11.53-27.28,24-27.28,8,0,12.9,3.64,16.45,7.88V125.81a7.49,7.49,0,1,1,15,0Zm-40.49-19.61v.2c0,8.77,5.91,14.58,12.91,14.58s12.8-5.81,12.8-14.58v-.2c0-8.76-5.81-14.57-12.8-14.57S248.06,155.46,248.06,164.32Z" style="fill:#fff"/>
      <path d="M326.09,206.88c-4.83,0-8.38-2-8.38-6.11a5.75,5.75,0,0,1,5.82-6h.09c2.17,0,3.65-1.37,3.65-4.92V144.92a7.49,7.49,0,1,1,15,0v45c0,11.62-6.1,16.94-15.95,16.94Zm.29-81.47c0-4.33,3.65-7,8.38-7s8.37,2.66,8.37,7v.2c0,4.33-3.64,7.09-8.37,7.09s-8.38-2.76-8.38-7.09Z" style="fill:#fff"/>
      <path d="M351.31,164.72v-.2c0-15.17,12.21-27.48,28.66-27.48s28.47,12.11,28.47,27.28v.2c0,15.17-12.21,27.49-28.66,27.49S351.31,179.89,351.31,164.72Zm42.36,0v-.2c0-7.78-5.62-14.58-13.89-14.58-8.57,0-13.7,6.6-13.7,14.38v.2c0,7.78,5.62,14.58,13.89,14.58C388.54,179.1,393.67,172.5,393.67,164.72Z" style="fill:#fff"/>
      <path d="M416.62,125.41c0-4.33,3.65-7,8.38-7s8.37,2.66,8.37,7v.2c0,4.33-3.65,7.09-8.37,7.09s-8.38-2.76-8.38-7.09Zm.89,19.51a7.49,7.49,0,1,1,15,0v39a7.49,7.49,0,1,1-15,0Z" style="fill:#fff"/>
      <path d="M444.11,144.92a7.49,7.49,0,1,1,15,0v.59c3.45-4.43,7.88-8.47,15.47-8.47,11.33,0,17.93,7.48,17.93,19.6v27.29a7.49,7.49,0,1,1-15,0V161.37c0-7.09-3.35-10.74-9.06-10.74s-9.36,3.65-9.36,10.74v22.56a7.49,7.49,0,1,1-15,0Z" style="fill:#fff"/>
      <path d="M532.57,175.85v-25h-.49a6.41,6.41,0,0,1,0-12.81h.49v-6.6a7.49,7.49,0,0,1,15,0V138h6.6a6.41,6.41,0,0,1,0,12.81h-6.6v22.56c0,3.45,1.48,5.12,4.83,5.12.49,0,1.47-.1,1.77-.1a6.24,6.24,0,0,1,6.2,6.21,6.08,6.08,0,0,1-3.84,5.61,22,22,0,0,1-8.57,1.48C538.78,191.71,532.57,188.07,532.57,175.85Z" style="fill:#fff"/>
      <path d="M568.53,125.81a7.49,7.49,0,1,1,15,0v19.7C587,141.08,591.39,137,599,137c11.33,0,17.93,7.48,17.93,19.6v27.29a7.49,7.49,0,1,1-15,0V161.37c0-7.09-3.35-10.74-9.07-10.74s-9.35,3.65-9.35,10.74v22.56a7.49,7.49,0,0,1-15,0Z" style="fill:#fff"/>
      <path d="M624.88,164.72v-.2c0-15.17,12.22-27.48,28.67-27.48S682,149.15,682,164.32v.2C682,179.69,669.8,192,653.35,192S624.88,179.89,624.88,164.72Zm42.36,0v-.2c0-7.78-5.61-14.58-13.89-14.58-8.57,0-13.69,6.6-13.69,14.38v.2c0,7.78,5.62,14.58,13.89,14.58C662.12,179.1,667.24,172.5,667.24,164.72Z" style="fill:#fff"/>
      <path d="M738.37,183.93a7.49,7.49,0,1,1-15,0v-.59c-3.45,4.43-7.88,8.47-15.47,8.47-11.33,0-17.93-7.49-17.93-19.6V144.92a7.49,7.49,0,1,1,15,0v22.56c0,7.09,3.35,10.73,9.06,10.73s9.36-3.64,9.36-10.73V144.92a7.49,7.49,0,1,1,15,0Z" style="fill:#fff"/>
      <path d="M747.93,185.8a6,6,0,0,1-2.86-5.12,5.93,5.93,0,0,1,8.87-5.13c5,3.16,10,4.73,14.28,4.73s6.31-1.57,6.31-3.94v-.19c0-3.25-5.12-4.34-10.94-6.11-7.38-2.17-15.76-5.62-15.76-15.86V154c0-10.74,8.67-16.75,19.31-16.75a37.11,37.11,0,0,1,16.35,4,6.11,6.11,0,0,1,3.55,5.62,5.89,5.89,0,0,1-6,5.91,5.52,5.52,0,0,1-2.76-.69c-4.23-2.07-8.27-3.35-11.43-3.35-3.64,0-5.51,1.58-5.51,3.64v.2c0,3,5,4.34,10.73,6.31,7.39,2.46,16,6,16,15.66v.2c0,11.72-8.76,17-20.19,17A36.78,36.78,0,0,1,747.93,185.8Z" style="fill:#fff"/>
      <path d="M793.15,175.65v-.19c0-11.53,8.77-16.85,21.28-16.85a37.49,37.49,0,0,1,12.9,2.17v-.89c0-6.2-3.84-9.65-11.33-9.65a34.25,34.25,0,0,0-10.34,1.48,6.48,6.48,0,0,1-2.17.39,6.09,6.09,0,0,1-6.2-6.11,6.2,6.2,0,0,1,4-5.81,46,46,0,0,1,16.84-2.76c8.18,0,14.09,2.17,17.83,5.91,3.94,3.94,5.71,9.75,5.71,16.85v24a7.2,7.2,0,0,1-7.29,7.2c-4.33,0-7.19-3.06-7.19-6.21v-.1c-3.64,4-8.66,6.7-16,6.7C801.33,191.81,793.15,186.1,793.15,175.65Zm34.38-3.44v-2.66a23.09,23.09,0,0,0-9.56-2c-6.4,0-10.34,2.56-10.34,7.29v.19c0,4,3.35,6.41,8.18,6.41C822.8,181.47,827.53,177.62,827.53,172.21Z" style="fill:#fff"/>
      <path d="M852.16,144.92a7.49,7.49,0,1,1,15,0v.59c3.45-4.43,7.88-8.47,15.47-8.47,11.33,0,17.93,7.48,17.93,19.6v27.29a7.49,7.49,0,1,1-15,0V161.37c0-7.09-3.35-10.74-9.07-10.74s-9.36,3.65-9.36,10.74v22.56a7.49,7.49,0,1,1-15,0Z" style="fill:#fff"/>
      <path d="M964.17,183.93a7.49,7.49,0,1,1-15,0v-.69c-3.65,4.92-8.67,8.57-16.45,8.57-12.32,0-24-9.65-24-27.29v-.2c0-17.63,11.52-27.28,24-27.28,8,0,12.9,3.64,16.45,7.88V125.81a7.49,7.49,0,1,1,15,0Zm-40.49-19.61v.2c0,8.77,5.91,14.58,12.91,14.58s12.8-5.81,12.8-14.58v-.2c0-8.76-5.81-14.57-12.8-14.57S923.68,155.46,923.68,164.32Z" style="fill:#fff"/>
      <path d="M973.73,185.8a6,6,0,0,1-2.86-5.12,5.93,5.93,0,0,1,8.87-5.13c5,3.16,10,4.73,14.28,4.73s6.31-1.57,6.31-3.94v-.19c0-3.25-5.13-4.34-10.94-6.11-7.39-2.17-15.76-5.62-15.76-15.86V154c0-10.74,8.67-16.75,19.31-16.75a37.11,37.11,0,0,1,16.35,4,6.11,6.11,0,0,1,3.55,5.62,5.89,5.89,0,0,1-6,5.91,5.52,5.52,0,0,1-2.76-.69c-4.24-2.07-8.27-3.35-11.43-3.35-3.64,0-5.51,1.58-5.51,3.64v.2c0,3,5,4.34,10.73,6.31,7.39,2.46,16,6,16,15.66v.2c0,11.72-8.76,17-20.19,17A36.78,36.78,0,0,1,973.73,185.8Z" style="fill:#fff"/>
      <path d="M1046.63,164.72v-.2c0-15.17,12.22-27.48,28.67-27.48s28.47,12.11,28.47,27.28v.2c0,15.17-12.22,27.49-28.67,27.49S1046.63,179.89,1046.63,164.72Zm42.36,0v-.2c0-7.78-5.61-14.58-13.89-14.58-8.57,0-13.69,6.6-13.69,14.38v.2c0,7.78,5.61,14.58,13.89,14.58C1083.87,179.1,1089,172.5,1089,164.72Z" style="fill:#fff"/>
      <path d="M1114.71,150.83h-.6a6.1,6.1,0,0,1-6.2-6.11,6.18,6.18,0,0,1,6.2-6.21h.6v-3.34c0-5.82,1.47-10,4.23-12.81s6.8-4.14,12.12-4.14a36.18,36.18,0,0,1,6.11.4,6.08,6.08,0,0,1,5.12,6,6.23,6.23,0,0,1-6.11,6.21h-1.28c-3.45,0-5.42,1.77-5.42,5.71v2.07h6.5a6.11,6.11,0,1,1,0,12.22h-6.3v33.1a7.49,7.49,0,1,1-15,0Z" style="fill:#fff"/>
      <path d="M1174.4,125.81a7.49,7.49,0,0,1,15,0v19.8c3.64-4.93,8.67-8.57,16.45-8.57,12.31,0,24,9.65,24,27.28v.2c0,17.64-11.53,27.29-24,27.29-8,0-12.91-3.65-16.45-7.88v.1a7.49,7.49,0,0,1-15-.1Zm40.49,38.71v-.2c0-8.76-5.91-14.57-12.9-14.57s-12.81,5.81-12.81,14.57v.2c0,8.77,5.81,14.58,12.81,14.58S1214.89,173.39,1214.89,164.52Z" style="fill:#fff"/>
      <path d="M1286.41,183.93a7.49,7.49,0,1,1-15,0v-.59c-3.45,4.43-7.88,8.47-15.47,8.47-11.32,0-17.92-7.49-17.92-19.6V144.92a7.49,7.49,0,1,1,15,0v22.56c0,7.09,3.35,10.73,9.06,10.73s9.36-3.64,9.36-10.73V144.92a7.49,7.49,0,1,1,15,0Z" style="fill:#fff"/>
      <path d="M1296,185.8a6,6,0,0,1-2.85-5.12,5.92,5.92,0,0,1,8.86-5.13c5,3.16,10,4.73,14.29,4.73s6.3-1.57,6.3-3.94v-.19c0-3.25-5.12-4.34-10.93-6.11-7.39-2.17-15.77-5.62-15.77-15.86V154c0-10.74,8.67-16.75,19.31-16.75a37.18,37.18,0,0,1,16.36,4,6.12,6.12,0,0,1,3.54,5.62,5.89,5.89,0,0,1-6,5.91,5.52,5.52,0,0,1-2.76-.69c-4.23-2.07-8.27-3.35-11.42-3.35-3.65,0-5.52,1.58-5.52,3.64v.2c0,3,5,4.34,10.74,6.31,7.39,2.46,16,6,16,15.66v.2c0,11.72-8.77,17-20.2,17A36.8,36.8,0,0,1,1296,185.8Z" style="fill:#fff"/>
      <path d="M1344.15,125.41c0-4.33,3.64-7,8.37-7s8.37,2.66,8.37,7v.2c0,4.33-3.64,7.09-8.37,7.09s-8.37-2.76-8.37-7.09Zm.88,19.51a7.49,7.49,0,1,1,15,0v39a7.49,7.49,0,0,1-15,0Z" style="fill:#fff"/>
      <path d="M1371.63,144.92a7.49,7.49,0,0,1,15,0v.59c3.44-4.43,7.88-8.47,15.46-8.47,11.33,0,17.93,7.48,17.93,19.6v27.29a7.49,7.49,0,1,1-15,0V161.37c0-7.09-3.35-10.74-9.07-10.74s-9.35,3.65-9.35,10.74v22.56a7.49,7.49,0,0,1-15,0Z" style="fill:#fff"/>
      <path d="M1455.57,192c-15.86,0-27.59-11.14-27.59-27.29v-.2c0-15.07,10.74-27.48,26.11-27.48,17.63,0,25.41,14.48,25.41,25.41a6.82,6.82,0,0,1-7,7.19h-29.65c1.48,6.8,6.21,10.35,12.9,10.35a17.25,17.25,0,0,0,10.64-3.55,5.59,5.59,0,0,1,3.65-1.18,5.72,5.72,0,0,1,5.81,5.91,5.87,5.87,0,0,1-2,4.43A27.36,27.36,0,0,1,1455.57,192Zm9.65-31.72c-.89-6.7-4.83-11.23-11.13-11.23s-10.25,4.43-11.43,11.23Z" style="fill:#fff"/>
      <path d="M1487.09,185.8a6,6,0,0,1-2.85-5.12,5.92,5.92,0,0,1,8.86-5.13c5,3.16,10.05,4.73,14.29,4.73s6.3-1.57,6.3-3.94v-.19c0-3.25-5.12-4.34-10.93-6.11-7.39-2.17-15.76-5.62-15.76-15.86V154c0-10.74,8.66-16.75,19.3-16.75a37.18,37.18,0,0,1,16.36,4,6.12,6.12,0,0,1,3.54,5.62,5.89,5.89,0,0,1-6,5.91,5.46,5.46,0,0,1-2.75-.69c-4.24-2.07-8.28-3.35-11.43-3.35-3.65,0-5.52,1.58-5.52,3.64v.2c0,3,5,4.34,10.74,6.31,7.39,2.46,16,6,16,15.66v.2c0,11.72-8.77,17-20.2,17A36.8,36.8,0,0,1,1487.09,185.8Z" style="fill:#fff"/>
      <path d="M1533.1,185.8a6,6,0,0,1-2.85-5.12,5.92,5.92,0,0,1,8.86-5.13c5,3.16,10.05,4.73,14.29,4.73s6.3-1.57,6.3-3.94v-.19c0-3.25-5.12-4.34-10.93-6.11-7.39-2.17-15.77-5.62-15.77-15.86V154c0-10.74,8.67-16.75,19.31-16.75a37.11,37.11,0,0,1,16.35,4,6.11,6.11,0,0,1,3.55,5.62,5.89,5.89,0,0,1-6,5.91,5.52,5.52,0,0,1-2.76-.69c-4.23-2.07-8.27-3.35-11.42-3.35-3.65,0-5.52,1.58-5.52,3.64v.2c0,3,5,4.34,10.74,6.31,7.39,2.46,16,6,16,15.66v.2c0,11.72-8.77,17-20.2,17A36.78,36.78,0,0,1,1533.1,185.8Z" style="fill:#fff"/>
      <path d="M1606.5,192c-15.86,0-27.59-11.14-27.59-27.29v-.2c0-15.07,10.74-27.48,26.11-27.48,17.63,0,25.41,14.48,25.41,25.41a6.82,6.82,0,0,1-7,7.19h-29.65c1.48,6.8,6.2,10.35,12.9,10.35a17.25,17.25,0,0,0,10.64-3.55,5.59,5.59,0,0,1,3.65-1.18,5.72,5.72,0,0,1,5.81,5.91,5.87,5.87,0,0,1-2,4.43A27.36,27.36,0,0,1,1606.5,192Zm9.65-31.72c-.89-6.7-4.83-11.23-11.13-11.23s-10.25,4.43-11.43,11.23Z" style="fill:#fff"/>
      <path d="M1638,185.8a6,6,0,0,1-2.85-5.12,5.92,5.92,0,0,1,8.86-5.13c5,3.16,10,4.73,14.29,4.73s6.3-1.57,6.3-3.94v-.19c0-3.25-5.12-4.34-10.93-6.11-7.39-2.17-15.77-5.62-15.77-15.86V154c0-10.74,8.67-16.75,19.31-16.75a37.11,37.11,0,0,1,16.35,4,6.11,6.11,0,0,1,3.55,5.62,5.89,5.89,0,0,1-6,5.91,5.52,5.52,0,0,1-2.76-.69c-4.23-2.07-8.27-3.35-11.42-3.35-3.65,0-5.52,1.58-5.52,3.64v.2c0,3,5,4.34,10.74,6.31,7.39,2.46,16,6,16,15.66v.2c0,11.72-8.77,17-20.2,17A36.8,36.8,0,0,1,1638,185.8Z" style="fill:#fff"/>
      <path d="M1723.24,185.11l-12.91-37.24a12.74,12.74,0,0,1-.69-3.64,6.91,6.91,0,0,1,7.19-6.8c3.75,0,6.21,2.37,7.29,5.81l8.08,26.8,8.28-26.7c1.08-3.54,3.84-6,7.68-6h.89c3.84,0,6.6,2.47,7.68,6l8.38,26.8,8.27-27c1-3.15,3.25-5.71,7.19-5.71a6.82,6.82,0,0,1,7,6.9,13,13,0,0,1-.5,3l-13.3,37.73c-1.57,4.63-4.63,6.7-8.27,6.7H1765c-3.65,0-6.7-2.07-8.08-6.4l-8.37-26.6-8.48,26.6c-1.38,4.33-4.43,6.4-8.07,6.4h-.5C1727.87,191.81,1724.81,189.74,1723.24,185.11Z" style="fill:#fff"/>
      <path d="M1790.82,164.72v-.2c0-15.17,12.22-27.48,28.67-27.48S1848,149.15,1848,164.32v.2c0,15.17-12.21,27.49-28.67,27.49S1790.82,179.89,1790.82,164.72Zm42.36,0v-.2c0-7.78-5.61-14.58-13.89-14.58-8.57,0-13.69,6.6-13.69,14.38v.2c0,7.78,5.62,14.58,13.89,14.58C1828.06,179.1,1833.18,172.5,1833.18,164.72Z" style="fill:#fff"/>
      <path d="M1856.34,144.92a7.49,7.49,0,1,1,15,0v2.36c2.17-5.12,5.71-9.85,10.15-9.85,4.63,0,7.29,3,7.29,7.29a6.9,6.9,0,0,1-5.62,7c-7.58,1.77-11.82,7.58-11.82,18.22v14a7.49,7.49,0,1,1-15,0Z" style="fill:#fff"/>
      <path d="M1895.74,125.81a7.49,7.49,0,1,1,15,0v58.12a7.49,7.49,0,1,1-15,0Z" style="fill:#fff"/>
      <path d="M1975.44,183.93a7.49,7.49,0,1,1-15,0v-.69c-3.65,4.92-8.67,8.57-16.46,8.57-12.31,0-24-9.65-24-27.29v-.2c0-17.63,11.52-27.28,24-27.28,8,0,12.91,3.64,16.46,7.88V125.81a7.49,7.49,0,1,1,15,0ZM1935,164.32v.2c0,8.77,5.91,14.58,12.91,14.58s12.8-5.81,12.8-14.58v-.2c0-8.76-5.81-14.57-12.8-14.57S1935,155.46,1935,164.32Z" style="fill:#fff"/>
      <path d="M1996.13,185.11l-12.91-37.24a12.76,12.76,0,0,1-.68-3.64,6.9,6.9,0,0,1,7.19-6.8c3.74,0,6.2,2.37,7.29,5.81l8.07,26.8,8.28-26.7c1.08-3.54,3.84-6,7.68-6h.89c3.84,0,6.6,2.47,7.68,6l8.38,26.8,8.27-27c1-3.15,3.25-5.71,7.19-5.71a6.82,6.82,0,0,1,7,6.9,13,13,0,0,1-.5,3l-13.29,37.73c-1.58,4.63-4.63,6.7-8.28,6.7h-.49c-3.65,0-6.7-2.07-8.08-6.4l-8.37-26.6-8.47,26.6c-1.38,4.33-4.44,6.4-8.08,6.4h-.5C2000.76,191.81,1997.71,189.74,1996.13,185.11Z" style="fill:#fff"/>
      <path d="M2067.36,125.41c0-4.33,3.64-7,8.37-7s8.38,2.66,8.38,7v.2c0,4.33-3.65,7.09-8.38,7.09s-8.37-2.76-8.37-7.09Zm.89,19.51a7.49,7.49,0,1,1,15,0v39a7.49,7.49,0,1,1-15,0Z" style="fill:#fff"/>
      <path d="M2147.94,183.93a7.49,7.49,0,1,1-15,0v-.69c-3.65,4.92-8.67,8.57-16.45,8.57-12.32,0-24-9.65-24-27.29v-.2c0-17.63,11.53-27.28,24-27.28,8,0,12.9,3.64,16.45,7.88V125.81a7.49,7.49,0,1,1,15,0Zm-40.49-19.61v.2c0,8.77,5.91,14.58,12.91,14.58s12.81-5.81,12.81-14.58v-.2c0-8.76-5.82-14.57-12.81-14.57S2107.45,155.46,2107.45,164.32Z" style="fill:#fff"/>
      <path d="M2183.9,192c-15.86,0-27.58-11.14-27.58-27.29v-.2c0-15.07,10.74-27.48,26.1-27.48,17.64,0,25.42,14.48,25.42,25.41a6.83,6.83,0,0,1-7,7.19h-29.65c1.48,6.8,6.21,10.35,12.91,10.35a17.27,17.27,0,0,0,10.64-3.55,5.57,5.57,0,0,1,3.64-1.18,5.72,5.72,0,0,1,5.81,5.91,5.84,5.84,0,0,1-2,4.43A27.36,27.36,0,0,1,2183.9,192Zm9.65-31.72c-.88-6.7-4.82-11.23-11.13-11.23s-10.24,4.43-11.42,11.23Z" style="fill:#fff"/>
      <path d="M2223.21,174.47a8.29,8.29,0,0,1,8.57,8.37v.2a8.57,8.57,0,0,1-17.14,0v-.2A8.3,8.3,0,0,1,2223.21,174.47Z" style="fill:#fff"/>
    </g>
  </g>
</svg>
