<?xml version="1.0" encoding="utf-8"?>
<!-- Generator: Adobe Illustrator 28.1.0, SVG Export Plug-In . SVG Version: 6.00 Build 0)  -->
<svg version="1.1" id="Calque_1" xmlns="http://www.w3.org/2000/svg" xmlns:xlink="http://www.w3.org/1999/xlink" x="0px" y="0px"
	 viewBox="0 0 80 80" style="enable-background:new 0 0 80 80;" xml:space="preserve">
<style type="text/css">
	.st0{display:none;opacity:0.5;fill:#0F172A;}
	.st1{fill:#828282;}
</style>

            <path d="M195,95.3c-0.2-0.4-0.5-0.6-0.9-0.7c-0.7-0.1-1.2,0.4-1.5,0.7c-0.2,0.2-0.5,0.5-0.8,0.9
	c-0.3,0.4-0.7,0.8-1.2,1.3c-1.1,1.2-2.6,2.5-3.8,3.4c-1.2,0.9-2.2,1.4-2.2,1.4c-0.2,0.1-0.3,0.2-0.5,0.3c-0.2,0.2-0.5,0.3-0.7,0.4
	l-1.1,0.6l0,0c-0.1,0-0.2,0.1-0.3,0.1l-0.5,0.2c-0.1,0.1-0.3,0.1-0.4,0.2c-0.2,0.1-0.4,0.2-0.5,0.2l-1,0.4c-0.4,0.2-0.9,0.3-1.3,0.4
	c-0.2,0.1-0.5,0.1-0.7,0.2c-0.4,0.1-0.9,0.2-1.3,0.3c-0.3,0.1-0.5,0.1-0.8,0.2c-0.4,0.1-0.9,0.2-1.3,0.3c-0.3,0-0.5,0.1-0.8,0.1
	c-2.8,0.4-5.7,0.6-8.6,0.4c-1.9-0.1-3.8-0.3-5.8-0.7c0-0.1,0-0.2,0-0.3c0.8-5.9,0.6-11.9-0.5-17.7c-1.1-5.6-3-11.1-5.7-16.1
	c-2.7-5-6.1-9.5-10.2-13.4c-4-3.9-8.7-7.2-13.7-9.8c-5.2-2.6-10.7-4.4-16.4-5.3c-2.9-0.4-5.7-0.7-8.6-0.7c-5.8,0-11.7,0.9-17.2,2.7
	c-5.7,1.9-11.1,4.7-16,8c-4.6,3.1-8.8,7-12.3,11.3c-3.5,4.4-6.4,9.3-8.5,14.6c-2.1,5.4-3.4,11.2-3.7,17.1c0,0.5,0,1-0.1,1.5
	c-0.7-0.4-1.4-0.9-2.1-1.3c-3.6-2.2-7.3-3.8-10.9-4.8c-4.3-1.1-8.4-1.3-12.2-0.5C13.7,93.4,7,99,3.2,106.5l1.7,1
	c4.5-6.6,11.3-11,18.4-11.6c1.5-0.2,3.3-0.3,5-0.1l0.8,0.1c0.3,0,0.6,0.1,1.1,0.2l1.9,0.4c3.1,0.9,6.4,2.3,9.6,4.3
	c1.5,0.9,3,1.9,4.6,2.8c0.2,3.6,0.8,7.1,1.7,10.6c1.5,5.5,3.8,10.8,6.9,15.5c3,4.7,6.8,9,11.1,12.6c4.3,3.6,9.2,6.6,14.4,8.8
	c5.4,2.2,11.1,3.6,16.9,4.1c5.9,0.5,11.8,0,17.6-1.4c5.8-1.4,11.2-3.9,16.3-6.9c4.9-2.9,9.4-6.4,13.3-10.5c3.8-4.1,7-8.8,9.5-13.9
	c1.7-3.6,3-7.3,3.9-11.1c1.5,0.3,3.1,0.5,4.6,0.6c3.3,0.3,6.5,0.3,9.6,0c3.3-0.4,6.4-1.1,9.4-2.1l1.2-0.4l1.7-0.8
	c0.1,0,0.2-0.1,0.3-0.2l1.2-0.6c0.2-0.1,0.3-0.2,0.5-0.3l0.7-0.5l1.2-1c0.8-0.7,1.7-1.6,2.5-2.4c1.7-1.9,2.5-3,2.7-3.8l0,0
	C194.4,98.7,195.4,96.4,195,95.3z M155.5,114c-1.4,5.4-3.7,10.5-6.6,15.3c-2.9,4.7-6.6,8.9-10.7,12.5c-2.1,1.8-4.4,3.5-6.8,5
	c-0.2,0.2-0.5,0.3-0.7,0.5c0,0-0.1,0-0.1,0.1c-0.6,0.3-1.3,0.7-1.9,1c-1.3,0.6-2.6,1.2-3.9,1.7c-5.3,2.1-10.9,3.4-16.6,3.8
	c-5.8,0.4-11.6,0-17.2-1.4c-5.4-1.3-10.7-3.5-15.5-6.3c-4.7-2.8-9-6.4-12.7-10.5c-3.7-4.1-6.8-8.8-9.1-13.8
	c-2.4-5.1-4-10.6-4.7-16.3c0-0.2,0-0.4-0.1-0.6c1,0.5,2,1,3,1.5c6.6,3,22.8,8.8,31.7-3.5l0.3-0.4c0.1-0.2,0.3-0.4,0.5-0.6
	c0.1,0.9,0,1.9,0,2.8c0,0.7-0.1,1.5,0,2.2c0,2.5,0.1,5.7,0.9,8.9c0.6,2.6,1.9,4.8,3.6,5.9c0.9,0.5,1.8,0.8,2.8,0.8
	c0.4,0,0.8,0,1.2-0.1c4.7-0.9,6.4-7.9,7.2-11.7l0-0.2c0.4-2,0.7-3.8,0.9-5.6c2.1,0.2,4.2,0,6.1-0.4c0,2.7,0,5.4,0,8.1l0,1.1
	c0,0.2,0,0.6,0,0.8l0.1,0.6c0.1,1,0.2,1.8,0.4,2.6c0.1,0.5,0.3,0.9,0.5,1.4c0.2,0.4,0.4,1,0.9,1.7l0.1,0.1c0.1,0.1,0.2,0.3,0.4,0.4
	c0.2,0.2,0.3,0.3,0.6,0.5c0.2,0.1,0.4,0.2,0.6,0.4c0.2,0.1,0.4,0.2,0.7,0.2c0.3,0.1,0.6,0.1,0.9,0.1c0.2,0,0.3,0,0.4,0
	c0.3,0,0.5-0.1,0.8-0.2c0.2-0.1,0.5-0.2,0.6-0.2c0.2-0.1,0.3-0.2,0.4-0.2c0.1-0.1,0.2-0.1,0.3-0.2l0.8-0.6c0.2-0.2,0.4-0.4,0.6-0.6
	l0.1-0.1c0.1-0.1,0.3-0.3,0.3-0.4c0.5-0.6,1-1.3,1.6-2.1c0.9-1.3,1.6-2.6,2.4-4.1c1-1.8,1.9-3.5,2.8-5.3c0.5-0.9,1-1.9,1.4-2.8
	c0.6-1.1,1.3-2.5,2.1-3.5c0.4-0.5,0.7-0.8,1.1-1.1c0.3-0.2,0.6-0.3,0.9-0.4c0.7-0.1,1.7,0.1,3.1,0.7c1.2,0.5,2.4,1,3.6,1.6l0.4,0.2
	c2.7,1.2,5.5,2.5,8.4,3.7c4.1,1.6,8,2.8,11.8,3.6C156,112,155.8,113,155.5,114z M157,105.7c-2.9-0.6-6-1.6-9.2-2.8
	c-2.4-0.9-5.1-2.1-8.3-3.5l-1.2-0.5c-1-0.5-2-0.9-3.1-1.4c-0.7-0.3-1.5-0.6-2.3-0.9c-0.7-0.3-1.7-0.6-2.9-0.7
	c-0.8-0.1-2.1-0.1-3.4,0.4c-1,0.4-1.9,1-2.8,1.9c-1.4,1.4-2.3,3.1-3.1,4.3c-0.8,1.4-1.5,2.8-2.1,4.1c-0.7,1.4-1.4,2.7-2.1,4.1
	c-0.8,1.6-1.6,2.8-2.2,3.9c-0.3,0.6-0.7,1.1-1.1,1.7c-0.2,0.2-0.3,0.4-0.5,0.6c-0.1-0.4-0.2-0.9-0.3-1.4c0-0.3-0.1-0.7-0.1-1l0-1
	c0-6.1,0-12.3-0.1-18.4l-0.1-18.4l0-5.4l0-0.2c-0.1-0.4-0.3-0.7-0.3-0.7c-0.9-1.1-1.9-1.3-2.5-1.3c-1.2,0.1-1.9,1-2.2,1.4
	c-0.2,0.3-0.3,0.5-0.3,0.8l0.1,23.5c0,2.5,0,5.1,0,7.6c-1.1,0.1-2.1,0.1-3.1,0c-0.9-0.1-1.9-0.1-2.8-0.4c0.2-3.2,0-6.2-0.5-9.1
	c-0.4-2-1.1-4.3-2.9-5.7c-1.3-1.1-3.5-1.3-4.9,0.1c-1.7,1.7-1.8,4-1.7,5.8c0.5,4.3,2.4,8,5.3,10.2c-0.2,2-0.5,4.2-0.9,6.4
	c-1.6,7.3-3.2,8.2-3.7,8.3c-0.3,0.1-0.8,0.2-1.4-1c-1.3-2.8-1.5-6.3-1.6-10c0-0.5,0-1.2,0-1.9c0.1-3.1,0.3-7.7-3.3-8.6l-0.1,0
	c-2.5-0.3-4.3,2-5.5,3.6c-0.3,0.4-0.6,0.7-0.8,1c-6.8,8-18.8,4.1-25.4,1.1c-1.8-0.8-3.5-1.7-5.3-2.7c-0.1-3.7,0.2-7.5,0.9-11.1
	c1-5.5,2.9-10.9,5.5-15.9c2.6-4.9,5.9-9.4,9.8-13.3c2-2,4.1-3.8,6.3-5.4c1.1-0.8,2.3-1.6,3.5-2.4c0.2-0.1,0.5-0.3,0.7-0.4
	c0.1,0,0.1-0.1,0.2-0.1c0.6-0.3,1.2-0.6,1.8-0.9c5.1-2.5,10.6-4.2,16.2-5.1c2.8-0.4,5.5-0.6,8.3-0.6c5.8,0,11.5,0.9,17,2.7
	c5.3,1.7,10.3,4.2,14.9,7.4c4.5,3.2,8.5,7,11.9,11.4c3.4,4.4,6.2,9.3,8.1,14.5c2,5.4,3.2,11,3.5,16.7
	C157.4,99.8,157.4,102.8,157,105.7z M96.6,97.3c-0.6-1.5-0.9-3.3-0.8-5c0.2,0.4,0.3,1,0.4,1.5C96.4,95,96.5,96.1,96.6,97.3z"/>
            <g className="baseline">
                <path d="M49.8,167.3v0.3c-0.2,0.1-0.4,0.2-0.7,0.4c-0.2,0.2-0.5,0.6-0.6,1.1l-3.5,9.3c0,0-0.1,0-0.1,0c0,0-0.1,0-0.1,0
		c0,0-0.1,0-0.1,0c0,0-0.1,0-0.1,0l-3.9-9.8c-0.2-0.4-0.3-0.6-0.5-0.8c-0.2-0.1-0.4-0.2-0.5-0.2v-0.3c0.2,0,0.5,0,0.9,0
		c0.3,0,0.7,0,1,0c0.4,0,0.8,0,1.2,0c0.4,0,0.7,0,0.9,0v0.3c-0.3,0-0.6,0.1-0.8,0.1c-0.2,0.1-0.3,0.2-0.3,0.4c0,0.2,0,0.5,0.2,0.8
		l2.9,7.6l-0.3,0.3l2.5-6.7c0.2-0.6,0.4-1.1,0.4-1.5c0-0.4-0.1-0.6-0.3-0.8c-0.2-0.2-0.6-0.2-1-0.2v-0.3c0.3,0,0.6,0,1,0
		c0.3,0,0.6,0,0.9,0c0.3,0,0.5,0,0.7,0C49.5,167.3,49.7,167.3,49.8,167.3z"/>
                <path d="M52.5,170.1v6.8c0,0.4,0.1,0.7,0.3,0.9c0.2,0.2,0.5,0.2,0.9,0.2v0.3c-0.2,0-0.5,0-0.8,0c-0.4,0-0.7,0-1.1,0
		c-0.4,0-0.8,0-1.1,0s-0.7,0-0.9,0V178c0.4,0,0.7-0.1,0.9-0.2s0.3-0.5,0.3-0.9V172c0-0.5-0.1-0.8-0.2-1c-0.2-0.2-0.5-0.3-0.9-0.3
		v-0.3c0.3,0,0.7,0,1,0c0.4,0,0.7,0,1-0.1C52,170.2,52.2,170.2,52.5,170.1z M51.6,166.3c0.3,0,0.6,0.1,0.8,0.3
		c0.2,0.2,0.3,0.5,0.3,0.8s-0.1,0.6-0.3,0.8c-0.2,0.2-0.5,0.3-0.8,0.3c-0.3,0-0.6-0.1-0.8-0.3c-0.2-0.2-0.3-0.5-0.3-0.8
		s0.1-0.6,0.3-0.8C51,166.4,51.2,166.3,51.6,166.3z"/>
                <path d="M59.8,170.1c0.4,0,0.8,0.1,1,0.2s0.5,0.3,0.7,0.4c0.2,0.2,0.3,0.5,0.4,0.8c0.1,0.3,0.1,0.7,0.1,1.3v4.2
		c0,0.4,0.1,0.7,0.3,0.9s0.5,0.2,0.9,0.2v0.3c-0.2,0-0.5,0-0.8,0s-0.7,0-1.1,0c-0.4,0-0.7,0-1.1,0c-0.3,0-0.6,0-0.8,0V178
		c0.4,0,0.6-0.1,0.8-0.2c0.1-0.2,0.2-0.5,0.2-0.9v-4.6c0-0.3,0-0.6-0.1-0.8c-0.1-0.2-0.2-0.4-0.3-0.6c-0.2-0.2-0.4-0.2-0.8-0.2
		c-0.4,0-0.7,0.1-1,0.3c-0.3,0.2-0.5,0.5-0.7,0.9c-0.2,0.4-0.3,0.8-0.3,1.3v3.8c0,0.4,0.1,0.7,0.2,0.9c0.2,0.2,0.4,0.2,0.7,0.2v0.3
		c-0.2,0-0.4,0-0.8,0c-0.3,0-0.7,0-1.1,0c-0.4,0-0.7,0-1.1,0s-0.7,0-0.9,0V178c0.4,0,0.7-0.1,0.9-0.2s0.3-0.5,0.3-0.9V172
		c0-0.5-0.1-0.8-0.2-1c-0.2-0.2-0.5-0.3-0.9-0.3v-0.3c0.3,0,0.7,0,1,0c0.4,0,0.7,0,1-0.1c0.3,0,0.6-0.1,0.9-0.2v1.7
		c0.3-0.6,0.6-1.1,1.1-1.4C58.8,170.2,59.3,170.1,59.8,170.1z"/>
                <path d="M67.8,170.1c0.4,0,0.7,0,1,0.1c0.3,0.1,0.6,0.2,0.8,0.4c0.2,0.2,0.4,0.3,0.6,0.6c0.1,0.2,0.2,0.5,0.2,0.7
		c0,0.3-0.1,0.6-0.3,0.7c-0.2,0.2-0.4,0.3-0.7,0.3s-0.5-0.1-0.7-0.2c-0.2-0.2-0.3-0.4-0.3-0.7c0-0.3,0.1-0.5,0.2-0.7
		c0.2-0.2,0.3-0.3,0.5-0.3c-0.1-0.2-0.3-0.3-0.5-0.4s-0.5-0.2-0.8-0.2c-0.3,0-0.5,0.1-0.8,0.2c-0.3,0.1-0.5,0.4-0.7,0.7
		c-0.2,0.3-0.4,0.7-0.5,1.2c-0.1,0.5-0.2,1.1-0.2,1.7c0,0.9,0.1,1.6,0.3,2.1c0.2,0.5,0.5,0.9,0.8,1.1c0.3,0.2,0.7,0.3,1.1,0.3
		c0.2,0,0.5,0,0.8-0.1c0.3-0.1,0.5-0.2,0.8-0.5c0.2-0.2,0.5-0.5,0.6-0.9l0.3,0.1c-0.1,0.3-0.3,0.7-0.5,1s-0.6,0.6-1,0.9
		c-0.4,0.2-0.9,0.3-1.5,0.3c-0.7,0-1.3-0.2-1.8-0.5c-0.5-0.3-1-0.8-1.3-1.4c-0.3-0.6-0.5-1.4-0.5-2.3c0-0.9,0.2-1.6,0.5-2.3
		c0.3-0.7,0.8-1.2,1.3-1.5C66.4,170.2,67.1,170.1,67.8,170.1z"/>
                <path d="M75.3,170.1c0.9,0,1.6,0.3,2.2,0.8c0.5,0.6,0.8,1.4,0.8,2.6h-5.4l0-0.3h3.8c0-0.5,0-1-0.1-1.4c-0.1-0.4-0.2-0.8-0.4-1
		c-0.2-0.3-0.5-0.4-0.8-0.4c-0.4,0-0.8,0.2-1.2,0.7c-0.3,0.5-0.5,1.2-0.6,2.3l0,0.1c0,0.1,0,0.3,0,0.5c0,0.2,0,0.3,0,0.5
		c0,0.7,0.1,1.3,0.3,1.8c0.2,0.5,0.5,0.9,0.9,1.1c0.4,0.2,0.7,0.4,1.1,0.4c0.3,0,0.6,0,0.8-0.1c0.3-0.1,0.5-0.2,0.8-0.5
		c0.2-0.2,0.5-0.5,0.6-0.9l0.3,0.1c-0.1,0.4-0.3,0.7-0.6,1c-0.3,0.3-0.6,0.6-1,0.8c-0.4,0.2-0.9,0.3-1.4,0.3c-0.7,0-1.4-0.2-1.9-0.5
		c-0.5-0.3-1-0.8-1.3-1.4c-0.3-0.6-0.4-1.3-0.4-2.2c0-0.9,0.2-1.7,0.5-2.4c0.3-0.7,0.7-1.2,1.3-1.5C74,170.2,74.6,170.1,75.3,170.1z
		"/>
                <path d="M84.8,170.1c0.4,0,0.8,0.1,1,0.2s0.5,0.3,0.7,0.4c0.2,0.2,0.3,0.5,0.4,0.8c0.1,0.3,0.1,0.7,0.1,1.3v4.2
		c0,0.4,0.1,0.7,0.3,0.9s0.5,0.2,0.9,0.2v0.3c-0.2,0-0.5,0-0.8,0c-0.4,0-0.7,0-1.1,0c-0.4,0-0.7,0-1.1,0c-0.3,0-0.6,0-0.8,0V178
		c0.4,0,0.6-0.1,0.8-0.2c0.1-0.2,0.2-0.5,0.2-0.9v-4.6c0-0.3,0-0.6-0.1-0.8c-0.1-0.2-0.2-0.4-0.3-0.6c-0.2-0.2-0.4-0.2-0.8-0.2
		c-0.4,0-0.7,0.1-1,0.3c-0.3,0.2-0.5,0.5-0.7,0.9c-0.2,0.4-0.3,0.8-0.3,1.3v3.8c0,0.4,0.1,0.7,0.2,0.9s0.4,0.2,0.7,0.2v0.3
		c-0.2,0-0.4,0-0.8,0s-0.7,0-1.1,0c-0.4,0-0.7,0-1.1,0c-0.4,0-0.7,0-0.9,0V178c0.4,0,0.7-0.1,0.9-0.2c0.2-0.2,0.3-0.5,0.3-0.9V172
		c0-0.5-0.1-0.8-0.2-1c-0.2-0.2-0.5-0.3-0.9-0.3v-0.3c0.3,0,0.7,0,1,0c0.4,0,0.7,0,1-0.1c0.3,0,0.6-0.1,0.9-0.2v1.7
		c0.3-0.6,0.6-1.1,1.1-1.4C83.7,170.2,84.2,170.1,84.8,170.1z"/>
                <path d="M91.5,167.7v2.6h2.2v0.3h-2.2v6.1c0,0.4,0.1,0.7,0.2,0.9s0.4,0.3,0.7,0.3c0.3,0,0.5-0.1,0.7-0.3s0.4-0.6,0.6-1.1l0.3,0.1
		c-0.1,0.6-0.3,1-0.7,1.4s-0.8,0.6-1.4,0.6c-0.4,0-0.7,0-0.9-0.1c-0.2-0.1-0.4-0.2-0.6-0.4c-0.2-0.2-0.4-0.5-0.5-0.9
		c-0.1-0.3-0.1-0.8-0.1-1.3v-5.3h-1.4v-0.3h1.4V168c0.3,0,0.6,0,0.9-0.1C91,167.9,91.2,167.8,91.5,167.7z"/>
                <path d="M102.3,167.3v0.3c-0.4,0-0.6,0-0.8,0.1c-0.2,0.1-0.3,0.2-0.4,0.4c-0.1,0.2-0.1,0.5-0.1,0.9v7.8c0,0.4,0,0.6,0.1,0.8
		s0.2,0.3,0.3,0.4c0.2,0.1,0.4,0.1,0.7,0.1h1c0.4,0,0.8-0.1,1.1-0.2s0.6-0.3,0.8-0.6c0.2-0.3,0.4-0.6,0.5-1c0.1-0.4,0.2-0.9,0.3-1.4
		h0.4c0,0.3,0,0.8,0,1.3c0,0.2,0,0.5,0,0.9c0,0.4,0,0.8,0.1,1.2c-0.5,0-1.1,0-1.8,0s-1.3,0-1.8,0c-0.2,0-0.5,0-0.9,0
		c-0.4,0-0.8,0-1.2,0s-0.9,0-1.3,0s-0.9,0-1.3,0V178c0.4,0,0.6-0.1,0.8-0.1c0.2-0.1,0.3-0.2,0.4-0.4c0.1-0.2,0.1-0.5,0.1-0.8v-7.8
		c0-0.4,0-0.7-0.1-0.9c-0.1-0.2-0.2-0.3-0.4-0.4c-0.2-0.1-0.4-0.1-0.8-0.1v-0.3c0.2,0,0.5,0,0.9,0c0.4,0,0.8,0,1.2,0
		c0.4,0,0.8,0,1.2,0C101.8,167.3,102.1,167.3,102.3,167.3z"/>
                <path d="M111.1,170.1c0.9,0,1.6,0.3,2.2,0.8c0.5,0.6,0.8,1.4,0.8,2.6h-5.4l0-0.3h3.8c0-0.5,0-1-0.1-1.4c-0.1-0.4-0.2-0.8-0.4-1
		c-0.2-0.3-0.5-0.4-0.8-0.4c-0.4,0-0.8,0.2-1.2,0.7c-0.3,0.5-0.5,1.2-0.6,2.3l0,0.1c0,0.1,0,0.3,0,0.5c0,0.2,0,0.3,0,0.5
		c0,0.7,0.1,1.3,0.3,1.8c0.2,0.5,0.5,0.9,0.9,1.1c0.4,0.2,0.7,0.4,1.1,0.4c0.3,0,0.6,0,0.8-0.1c0.3-0.1,0.5-0.2,0.8-0.5
		c0.2-0.2,0.5-0.5,0.6-0.9l0.3,0.1c-0.1,0.4-0.3,0.7-0.6,1c-0.3,0.3-0.6,0.6-1,0.8c-0.4,0.2-0.9,0.3-1.4,0.3c-0.7,0-1.4-0.2-1.9-0.5
		c-0.5-0.3-1-0.8-1.3-1.4c-0.3-0.6-0.4-1.3-0.4-2.2c0-0.9,0.2-1.7,0.5-2.4c0.3-0.7,0.7-1.2,1.3-1.5
		C109.7,170.2,110.3,170.1,111.1,170.1z"/>
                <path d="M117.8,170.1v9.6c0,0.5,0.1,0.8,0.4,0.9s0.6,0.2,1.1,0.2v0.3c-0.2,0-0.6,0-1,0s-0.9,0-1.4,0c-0.3,0-0.7,0-1,0
		c-0.3,0-0.6,0-0.8,0v-0.3c0.4,0,0.6-0.1,0.8-0.2c0.2-0.1,0.2-0.4,0.2-0.8V172c0-0.5-0.1-0.8-0.2-1c-0.2-0.2-0.5-0.3-0.9-0.3v-0.3
		c0.3,0,0.7,0,1,0c0.3,0,0.7,0,1-0.1C117.2,170.2,117.5,170.2,117.8,170.1z M120.3,170.1c0.5,0,1,0.1,1.5,0.4c0.4,0.3,0.8,0.7,1,1.3
		c0.2,0.6,0.4,1.3,0.4,2.1c0,0.6-0.1,1.2-0.2,1.8c-0.1,0.6-0.4,1-0.7,1.5c-0.3,0.4-0.7,0.8-1.1,1c-0.4,0.2-1,0.4-1.6,0.4
		c-0.5,0-0.9-0.1-1.2-0.3s-0.6-0.4-0.7-0.8l0.2-0.2c0.1,0.3,0.3,0.5,0.6,0.6c0.2,0.2,0.5,0.3,0.9,0.3c0.5,0,1-0.2,1.3-0.5
		c0.3-0.3,0.5-0.8,0.6-1.4c0.1-0.6,0.2-1.3,0.2-2c0-0.9-0.1-1.5-0.2-2.1s-0.3-0.9-0.6-1.2c-0.2-0.2-0.6-0.4-0.9-0.4
		c-0.5,0-0.9,0.2-1.3,0.6c-0.4,0.4-0.6,0.9-0.7,1.7l-0.2-0.3c0.1-0.8,0.5-1.4,0.9-1.8S119.6,170.1,120.3,170.1z"/>
                <path d="M129.3,170.1c0.3,0,0.6,0.1,0.8,0.2s0.4,0.3,0.5,0.5s0.2,0.4,0.2,0.6c0,0.3-0.1,0.6-0.3,0.8c-0.2,0.2-0.4,0.3-0.7,0.3
		c-0.3,0-0.5-0.1-0.7-0.2s-0.3-0.4-0.3-0.6c0-0.2,0.1-0.4,0.2-0.6c0.1-0.2,0.3-0.3,0.4-0.4c-0.1-0.1-0.2-0.1-0.4-0.1
		c-0.3,0-0.5,0.1-0.8,0.3c-0.2,0.2-0.4,0.4-0.6,0.7s-0.3,0.5-0.4,0.9s-0.1,0.6-0.1,0.8v3.6c0,0.5,0.1,0.9,0.4,1s0.7,0.3,1.2,0.3v0.3
		c-0.2,0-0.6,0-1,0s-0.9,0-1.4,0c-0.4,0-0.8,0-1.1,0c-0.4,0-0.7,0-0.9,0V178c0.4,0,0.7-0.1,0.9-0.2c0.2-0.2,0.3-0.5,0.3-0.9V172
		c0-0.5-0.1-0.8-0.2-1c-0.2-0.2-0.5-0.3-0.9-0.3v-0.3c0.3,0,0.7,0,1,0c0.4,0,0.7,0,1-0.1c0.3,0,0.6-0.1,0.9-0.2v1.8
		c0.1-0.3,0.3-0.6,0.5-0.9c0.2-0.3,0.5-0.5,0.8-0.7C128.6,170.2,128.9,170.1,129.3,170.1z"/>
                <path d="M134.9,170.1c0.9,0,1.6,0.3,2.2,0.8c0.5,0.6,0.8,1.4,0.8,2.6h-5.4l0-0.3h3.8c0-0.5,0-1-0.1-1.4c-0.1-0.4-0.2-0.8-0.4-1
		c-0.2-0.3-0.5-0.4-0.8-0.4c-0.4,0-0.8,0.2-1.2,0.7c-0.3,0.5-0.5,1.2-0.6,2.3l0,0.1c0,0.1,0,0.3,0,0.5c0,0.2,0,0.3,0,0.5
		c0,0.7,0.1,1.3,0.3,1.8c0.2,0.5,0.5,0.9,0.9,1.1c0.4,0.2,0.7,0.4,1.1,0.4c0.3,0,0.6,0,0.8-0.1c0.3-0.1,0.5-0.2,0.8-0.5
		c0.2-0.2,0.5-0.5,0.6-0.9l0.3,0.1c-0.1,0.4-0.3,0.7-0.6,1c-0.3,0.3-0.6,0.6-1,0.8s-0.9,0.3-1.4,0.3c-0.7,0-1.4-0.2-1.9-0.5
		c-0.5-0.3-1-0.8-1.3-1.4s-0.4-1.3-0.4-2.2c0-0.9,0.2-1.7,0.5-2.4c0.3-0.7,0.7-1.2,1.3-1.5C133.6,170.2,134.2,170.1,134.9,170.1z
		 M135,165.7c0.2,0.5,0.6,1.1,1.1,1.6c0.5,0.5,1,0.9,1.6,1.2l-0.1,0.2c-0.6-0.2-1.1-0.4-1.7-0.7c-0.5-0.3-1-0.5-1.3-0.8
		c-0.3,0.3-0.6,0.5-1.1,0.8c-0.4,0.3-0.9,0.5-1.3,0.7l-0.1-0.2c0.6-0.3,1.1-0.7,1.6-1.2c0.5-0.5,0.8-1,1.1-1.6H135z"/>
                <path d="M141.7,167.7v2.6h2.2v0.3h-2.2v6.1c0,0.4,0.1,0.7,0.2,0.9c0.2,0.2,0.4,0.3,0.7,0.3c0.3,0,0.5-0.1,0.7-0.3
		c0.2-0.2,0.4-0.6,0.6-1.1l0.3,0.1c-0.1,0.6-0.3,1-0.7,1.4c-0.3,0.4-0.8,0.6-1.4,0.6c-0.4,0-0.7,0-0.9-0.1c-0.2-0.1-0.4-0.2-0.6-0.4
		c-0.2-0.2-0.4-0.5-0.5-0.9c-0.1-0.3-0.1-0.8-0.1-1.3v-5.3h-1.4v-0.3h1.4V168c0.3,0,0.6,0,0.9-0.1S141.4,167.8,141.7,167.7z"/>
                <path d="M149.5,170.1c0.3,0,0.6,0.1,0.8,0.2s0.4,0.3,0.5,0.5s0.2,0.4,0.2,0.6c0,0.3-0.1,0.6-0.3,0.8c-0.2,0.2-0.4,0.3-0.7,0.3
		c-0.3,0-0.5-0.1-0.7-0.2s-0.3-0.4-0.3-0.6c0-0.2,0.1-0.4,0.2-0.6c0.1-0.2,0.3-0.3,0.4-0.4c-0.1-0.1-0.2-0.1-0.4-0.1
		c-0.3,0-0.5,0.1-0.8,0.3c-0.2,0.2-0.4,0.4-0.6,0.7s-0.3,0.5-0.4,0.9s-0.1,0.6-0.1,0.8v3.6c0,0.5,0.1,0.9,0.4,1s0.7,0.3,1.2,0.3v0.3
		c-0.2,0-0.6,0-1,0s-0.9,0-1.4,0c-0.4,0-0.8,0-1.1,0c-0.4,0-0.7,0-0.9,0V178c0.4,0,0.7-0.1,0.9-0.2c0.2-0.2,0.3-0.5,0.3-0.9V172
		c0-0.5-0.1-0.8-0.2-1c-0.2-0.2-0.5-0.3-0.9-0.3v-0.3c0.3,0,0.7,0,1,0c0.4,0,0.7,0,1-0.1c0.3,0,0.6-0.1,0.9-0.2v1.8
		c0.1-0.3,0.3-0.6,0.5-0.9c0.2-0.3,0.5-0.5,0.8-0.7C148.8,170.2,149.1,170.1,149.5,170.1z"/>
                <path d="M155.1,170.1c0.9,0,1.6,0.3,2.2,0.8c0.5,0.6,0.8,1.4,0.8,2.6h-5.4l0-0.3h3.8c0-0.5,0-1-0.1-1.4c-0.1-0.4-0.2-0.8-0.4-1
		c-0.2-0.3-0.5-0.4-0.8-0.4c-0.4,0-0.8,0.2-1.2,0.7c-0.3,0.5-0.5,1.2-0.6,2.3l0,0.1c0,0.1,0,0.3,0,0.5c0,0.2,0,0.3,0,0.5
		c0,0.7,0.1,1.3,0.3,1.8c0.2,0.5,0.5,0.9,0.9,1.1c0.4,0.2,0.7,0.4,1.1,0.4c0.3,0,0.6,0,0.8-0.1c0.3-0.1,0.5-0.2,0.8-0.5
		c0.2-0.2,0.5-0.5,0.6-0.9l0.3,0.1c-0.1,0.4-0.3,0.7-0.6,1c-0.3,0.3-0.6,0.6-1,0.8s-0.9,0.3-1.4,0.3c-0.7,0-1.4-0.2-1.9-0.5
		c-0.5-0.3-1-0.8-1.3-1.4s-0.4-1.3-0.4-2.2c0-0.9,0.2-1.7,0.5-2.4c0.3-0.7,0.7-1.2,1.3-1.5C153.8,170.2,154.4,170.1,155.1,170.1z"/>
            </g>
</svg>
