<?xml version="1.0" encoding="utf-8"?>
<!-- Generator: Adobe Illustrator 28.1.0, SVG Export Plug-In . SVG Version: 6.00 Build 0)  -->
<svg version="1.1" id="Calque_1" xmlns="http://www.w3.org/2000/svg" xmlns:xlink="http://www.w3.org/1999/xlink" x="0px" y="0px"
	 viewBox="0 0 80 80" style="enable-background:new 0 0 80 80;" xml:space="preserve">
<style type="text/css">
	.st0{display:none;opacity:0.5;fill:#0F172A;}
	.st1{fill:#828282;}
</style>
<path class="st0" d="M18,26.5l15.6,0L18.4,52.6H33l-6.7,11.5h0.3l0,0.1h17.6L51.2,52l7.1,12.3h17.6l0-0.1h0c0,0-0.7-1.2-1.9-3.2
	L52.5,24l7.9-13.6l0,0l-51.9,0L18,26.5z"/>
<path class="st1" d="M64.2,56.6l-15.6,0l15.1-26.1H49.2l6.7-11.5h-0.3l0-0.1H38.1L31,31.1l-7.1-12.3H6.3l0,0.1h0
	c0,0,0.7,1.2,1.9,3.2l21.4,36.9l-7.9,13.6l0,0l51.9,0L64.2,56.6z M22.5,21.3l8.4,14.4l2.2-3.5l6.4-11l12.1,0.1L31,56.6L10.5,21.3
	H22.5z"/>
</svg>
