<?xml version="1.0" encoding="utf-8"?>
<!-- Generator: Adobe Illustrator 19.1.0, SVG Export Plug-In . SVG Version: 6.00 Build 0)  -->
<svg version="1.1" xmlns="http://www.w3.org/2000/svg" xmlns:xlink="http://www.w3.org/1999/xlink" x="0px" y="0px"
	 viewBox="0 0 80 80" style="enable-background:new 0 0 80 80;" xml:space="preserve">
<style type="text/css">
	.st0{fill:#0f172a;}
</style>
<g id="Layer_2">
	<path class="st0" d="M57.8,27L63,10.3c0.5-1.7-0.4-3.6-2.2-4.1l-9.8-3c-1.7-0.5-3.6,0.4-4.1,2.2l-4.3,13.8
		c-1.1-0.1-2.1-0.2-3.2-0.2c-13.9,0-25.2,11.3-25.2,25.2c0,13.9,11.3,25.2,25.2,25.2s25.2-11.3,25.2-25.2C64.6,37.5,62,31.5,57.8,27
		z M48.7,5.9c0.1-0.4,0.4-0.6,0.7-0.8c0.2-0.1,0.4-0.2,0.7-0.2c0.1,0,0.3,0,0.4,0.1l9.8,3c0.7,0.2,1.2,1,0.9,1.8l-6.9,22.1
		c-0.2,0.7-1,1.2-1.8,0.9l-9.8-3c-0.7-0.2-1.2-1-0.9-1.8L48.7,5.9z M39.4,66.7c-12.4,0-22.6-10.1-22.6-22.6
		c0-12.4,10.1-22.6,22.6-22.6c0.8,0,1.6,0.1,2.4,0.1l-1.8,5.7c-0.5,1.7,0.4,3.6,2.2,4.1l9.8,3c0.3,0.1,0.6,0.1,1,0.1
		c1.4,0,2.7-0.9,3.1-2.3l0.8-2.4c3.2,3.9,5.1,8.8,5.1,14.2C62,56.6,51.9,66.7,39.4,66.7z"/>
	<path class="st0" d="M40.5,35.6c-0.2-0.4-0.6-0.7-1-0.8c-0.9-0.3-1.8,0.2-2.1,1.1l-2.9,9.5l-1.8-6.8c-0.1-0.5-0.5-1-1-1.1
		c-0.1,0-0.2-0.1-0.5-0.1l-5.8-0.9l-0.7-0.2c-0.4-0.1-0.9,0-1.2,0.3c-0.3,0.2-0.5,0.6-0.6,1c-0.1,0.5-0.1,0.8,0,1.1
		c0.1,0.4,0.5,0.7,0.9,0.8l4.7,0.9l0.3,0.1v-0.1l3.5,11.3c0.1,0.6,0.8,1,1.2,1.2l0.2,0c0,0,0.1,0,0.2,0c0,0,0.1,0,0.1,0
		c0.1,0,0.1,0,0.3,0c0,0,0.1,0,0.1,0c0,0,0.1,0,0.2,0c0,0,0.1,0,0.1,0l0.1,0c0.5-0.2,0.9-0.6,1.1-1.1l4.6-15
		C40.8,36.4,40.8,36,40.5,35.6z M34.6,52.6L34.6,52.6L34.6,52.6L34.6,52.6z"/>
	<polygon class="st0" points="59.5,10.1 50,7.1 49.5,8.9 58.9,11.9 	"/>
	<circle class="st0" cx="48.9" cy="28.5" r="1.6"/>
</g>
<g id="Layer_3">
	<path class="st0" d="M50.1,50h-7.3l3.8-13.1c0.2-0.8-0.2-1.7-1-1.9l-0.3-0.1c-0.8-0.2-1.6,0.2-1.8,1L39,51c-0.2,0.8,0.2,1.6,1,1.8
		l0.3,0.1c0,0,0,0,0,0c0.1,0,0.1,0,0.2,0c0,0,0.1,0,0.1,0c0,0,0,0,0.1,0h9.4c0.8,0,1.9-0.7,1.9-1.5v-0.3C52,50.4,50.9,50,50.1,50z"
		/>
</g>
</svg>
